SplineFontDB: 3.0
FontName: Lusitana-Bold
FullName: Lusitana Bold
FamilyName: Lusitana
Weight: Bold
Copyright: Copyright (c) 2011 by Ana Paula Megda (www.anamegda.com|anapbm@gmail.com), with Reserved Font Name Lusitana.
Version: 1.001
ItalicAngle: 0
UnderlinePosition: -50
UnderlineWidth: 50
Ascent: 800
Descent: 200
sfntRevision: 0x00010042
LayerCount: 2
Layer: 0 1 "Back"  1
Layer: 1 1 "Fore"  0
XUID: [1021 272 5491152 12914514]
FSType: 0
OS2Version: 2
OS2_WeightWidthSlopeOnly: 0
OS2_UseTypoMetrics: 1
CreationTime: 1325880188
ModificationTime: 1325881674
PfmFamily: 17
TTFWeight: 700
TTFWidth: 5
LineGap: 0
VLineGap: 0
Panose: 2 0 0 0 0 0 0 0 0 0
OS2TypoAscent: 156
OS2TypoAOffset: 1
OS2TypoDescent: -141
OS2TypoDOffset: 1
OS2TypoLinegap: 0
OS2WinAscent: 0
OS2WinAOffset: 1
OS2WinDescent: 0
OS2WinDOffset: 1
HheadAscent: 0
HheadAOffset: 1
HheadDescent: 0
HheadDOffset: 1
OS2SubXSize: 700
OS2SubYSize: 650
OS2SubXOff: 0
OS2SubYOff: 140
OS2SupXSize: 700
OS2SupYSize: 650
OS2SupXOff: 0
OS2SupYOff: 477
OS2StrikeYSize: 50
OS2StrikeYPos: 250
OS2Vendor: 'pyrs'
OS2CodePages: 00000001.00000000
OS2UnicodeRanges: 80000023.00000042.00000000.00000000
Lookup: 258 0 0 "'kern' Horizontal Kerning in Latin lookup 0"  {"'kern' Horizontal Kerning in Latin lookup 0 subtable"  } ['kern' ('latn' <'dflt' > ) ]
DEI: 91125
TtTable: prep
PUSHW_1
 511
SCANCTRL
PUSHB_1
 4
SCANTYPE
EndTTInstrs
ShortTable: maxp 16
  1
  0
  210
  85
  5
  60
  4
  2
  0
  1
  1
  0
  64
  0
  2
  1
EndShort
LangName: 1033 "" "" "" "AnaPaulaMegda: Lusitana Bold: 2011" "" "Version 1.001" "" "Lusitana is a trademark of Ana Paula Megda." "Ana Paula Megda" "Ana Paula Megda" "" "" "www.anamegda.com" "This Font Software is licensed under the SIL Open Font License, Version 1.1. This license is available with a FAQ at: http://scripts.sil.org/OFL" "http://scripts.sil.org/OFL" 
GaspTable: 1 65535 15 1
Encoding: UnicodeBmp
UnicodeInterp: none
NameList: Adobe Glyph List
DisplaySize: -24
AntiAlias: 1
FitToEm: 1
BeginChars: 65542 210

StartChar: exclam
Encoding: 33 33 4
Width: 319
GlyphClass: 2
Flags: W
LayerCount: 2
Fore
SplineSet
229 662 m 1,0,-1
 227 626 l 1,1,-1
 186 208 l 2,2,3
 186 205 186 205 183 201.5 c 128,-1,4
 180 198 180 198 177 198 c 2,5,-1
 137 196 l 2,6,7
 133 196 133 196 133 206 c 1,8,-1
 78 662 l 1,9,10
 159 694 159 694 199 702 c 1,11,12
 219 702 219 702 226 687 c 0,13,14
 229 682 229 682 229 662 c 1,0,-1
105 44 m 128,-1,16
 105 69 105 69 122 85 c 128,-1,17
 139 101 139 101 161.5 101 c 128,-1,18
 184 101 184 101 200 86.5 c 128,-1,19
 216 72 216 72 216 47.5 c 128,-1,20
 216 23 216 23 201 5.5 c 128,-1,21
 186 -12 186 -12 159.5 -12 c 128,-1,22
 133 -12 133 -12 119 3.5 c 128,-1,15
 105 19 105 19 105 44 c 128,-1,16
EndSplineSet
EndChar

StartChar: quotedbl
Encoding: 34 34 5
Width: 295
GlyphClass: 2
Flags: W
LayerCount: 2
Fore
SplineSet
137 722 m 1,0,1
 143 722 143 722 143 704 c 128,-1,2
 143 686 143 686 133.5 586 c 128,-1,3
 124 486 124 486 120 480 c 0,4,5
 108 464 108 464 94 464 c 128,-1,6
 80 464 80 464 68 469 c 1,7,8
 66 510 66 510 46 666 c 1,9,10
 100 714 100 714 137 722 c 1,0,1
249 485 m 0,11,12
 237 469 237 469 223 469 c 128,-1,13
 209 469 209 469 197 474 c 1,14,15
 195 515 195 515 175 671 c 1,16,17
 229 719 229 719 266 727 c 1,18,19
 274 727 274 727 272 717 c 1,20,21
 272 691 272 691 262.5 591 c 128,-1,22
 253 491 253 491 249 485 c 0,11,12
EndSplineSet
EndChar

StartChar: numbersign
Encoding: 35 35 6
Width: 453
GlyphClass: 2
Flags: W
LayerCount: 2
Fore
SplineSet
36 473 m 1,0,-1
 72 472 l 1,1,-1
 123 472 l 1,2,-1
 155 625 l 1,3,4
 169 634 169 634 188.5 634 c 128,-1,5
 208 634 208 634 220 628 c 1,6,-1
 187 471 l 1,7,-1
 267 471 l 1,8,-1
 299 625 l 1,9,10
 313 634 313 634 332.5 634 c 128,-1,11
 352 634 352 634 364 628 c 1,12,-1
 330 470 l 1,13,-1
 445 470 l 1,14,15
 450 462 450 462 450 452.5 c 128,-1,16
 450 443 450 443 435.5 428.5 c 128,-1,17
 421 414 421 414 403.5 407.5 c 128,-1,18
 386 401 386 401 382 401 c 2,19,-1
 316 403 l 1,20,-1
 291 289 l 1,21,-1
 399 289 l 1,22,23
 404 281 404 281 404 271.5 c 128,-1,24
 404 262 404 262 389.5 247.5 c 128,-1,25
 375 233 375 233 357.5 226.5 c 128,-1,26
 340 220 340 220 336 220 c 2,27,-1
 277 221 l 1,28,-1
 244 66 l 1,29,30
 241 61 241 61 234 61 c 0,31,32
 206 61 206 61 186 79 c 1,33,-1
 216 223 l 1,34,-1
 134 225 l 1,35,-1
 100 66 l 1,36,37
 97 61 97 61 90 61 c 0,38,39
 62 61 62 61 42 79 c 1,40,-1
 72 227 l 1,41,-1
 -24 230 l 1,42,43
 -29 237 -29 237 -29 251.5 c 128,-1,44
 -29 266 -29 266 -10 292 c 1,45,-1
 0 292 l 1,46,-1
 85 291 l 1,47,-1
 110 408 l 1,48,-1
 22 411 l 1,49,50
 7 433 7 433 36 473 c 1,0,-1
148 290 m 1,51,-1
 230 290 l 1,52,-1
 253 404 l 1,53,-1
 173 407 l 1,54,-1
 148 290 l 1,51,-1
EndSplineSet
EndChar

StartChar: dollar
Encoding: 36 36 7
Width: 549
GlyphClass: 2
Flags: W
LayerCount: 2
Fore
SplineSet
35 506 m 0,0,1
 35 592 35 592 96 638.5 c 128,-1,2
 157 685 157 685 247 691 c 1,3,-1
 247 792 l 1,4,5
 255 798 255 798 281.5 803.5 c 128,-1,6
 308 809 308 809 321 809 c 1,7,-1
 321 689 l 1,8,9
 406 681 406 681 481 648 c 1,10,11
 491 628 491 628 491 563.5 c 128,-1,12
 491 499 491 499 486 463 c 1,13,-1
 423 465 l 1,14,15
 416 590 416 590 321 616 c 1,16,-1
 321 394 l 1,17,18
 446 336 446 336 485 290 c 1,19,20
 529 236 529 236 529 170.5 c 128,-1,21
 529 105 529 105 475.5 52 c 128,-1,22
 422 -1 422 -1 321 -10 c 1,23,-1
 321 -93 l 1,24,25
 316 -98 316 -98 291.5 -102 c 128,-1,26
 267 -106 267 -106 249 -106 c 1,27,-1
 248 -11 l 1,28,29
 160 -4 160 -4 52 35 c 1,30,31
 47 51 47 51 37.5 113 c 128,-1,32
 28 175 28 175 24 217 c 1,33,-1
 99 231 l 1,34,35
 118 147 118 147 153 108.5 c 128,-1,36
 188 70 188 70 248 65 c 1,37,-1
 248 295 l 1,38,39
 213 312 213 312 203.5 316 c 128,-1,40
 194 320 194 320 163 336.5 c 128,-1,41
 132 353 132 353 121 362 c 128,-1,42
 110 371 110 371 88.5 389 c 128,-1,43
 67 407 67 407 58 422 c 0,44,45
 35 465 35 465 35 506 c 0,0,1
167 534 m 0,46,47
 167 475 167 475 247 431 c 1,48,-1
 247 621 l 1,49,50
 214 616 214 616 190.5 594.5 c 128,-1,51
 167 573 167 573 167 534 c 0,46,47
397 153 m 0,52,53
 397 210 397 210 321 257 c 1,54,-1
 321 68 l 1,55,56
 397 83 397 83 397 153 c 0,52,53
EndSplineSet
EndChar

StartChar: percent
Encoding: 37 37 8
Width: 698
GlyphClass: 2
Flags: W
LayerCount: 2
Fore
SplineSet
398.5 46 m 128,-1,1
 357 94 357 94 357 167.5 c 128,-1,2
 357 241 357 241 415 298.5 c 128,-1,3
 473 356 473 356 542 356 c 128,-1,4
 611 356 611 356 652.5 307.5 c 128,-1,5
 694 259 694 259 694 185.5 c 128,-1,6
 694 112 694 112 636 55 c 128,-1,7
 578 -2 578 -2 509 -2 c 128,-1,0
 440 -2 440 -2 398.5 46 c 128,-1,1
61.5 424 m 128,-1,9
 20 472 20 472 20 545.5 c 128,-1,10
 20 619 20 619 78 676.5 c 128,-1,11
 136 734 136 734 205 734 c 128,-1,12
 274 734 274 734 315.5 685.5 c 128,-1,13
 357 637 357 637 357 563.5 c 128,-1,14
 357 490 357 490 299 433 c 128,-1,15
 241 376 241 376 172 376 c 128,-1,8
 103 376 103 376 61.5 424 c 128,-1,9
195 437 m 0,16,17
 255 437 255 437 255 544 c 0,18,19
 255 600 255 600 235 638 c 128,-1,20
 215 676 215 676 181 676 c 0,21,22
 122 676 122 676 122 567 c 0,23,24
 122 437 122 437 195 437 c 0,16,17
532 59 m 0,25,26
 592 59 592 59 592 166 c 0,27,28
 592 222 592 222 572 260 c 128,-1,29
 552 298 552 298 518 298 c 0,30,31
 459 298 459 298 459 189 c 0,32,33
 459 59 459 59 532 59 c 0,25,26
518 714 m 1,34,35
 542 723 542 723 568.5 723 c 128,-1,36
 595 723 595 723 612 716 c 1,37,-1
 157 -1 l 1,38,39
 151 -5 151 -5 124 -8.5 c 128,-1,40
 97 -12 97 -12 87 -12 c 128,-1,41
 77 -12 77 -12 73 -12 c 128,-1,42
 69 -12 69 -12 66.5 -8 c 128,-1,43
 64 -4 64 -4 64 -2 c 0,44,45
 64 -1 64 -1 518 714 c 1,34,35
EndSplineSet
EndChar

StartChar: ampersand
Encoding: 38 38 9
Width: 822
GlyphClass: 2
Flags: W
LayerCount: 2
Fore
SplineSet
814 -2 m 1,0,-1
 705 1 l 1,1,2
 661 1 661 1 615 -1 c 1,3,-1
 499 86 l 1,4,5
 404 -12 404 -12 271 -12 c 0,6,7
 167 -12 167 -12 97 42.5 c 128,-1,8
 27 97 27 97 27 165.5 c 128,-1,9
 27 234 27 234 60 285.5 c 128,-1,10
 93 337 93 337 169 387 c 1,11,12
 145 412 145 412 131 430 c 128,-1,13
 117 448 117 448 104 479 c 128,-1,14
 91 510 91 510 90.5 529.5 c 128,-1,15
 90 549 90 549 90 554 c 0,16,17
 90 623 90 623 147 672.5 c 128,-1,18
 204 722 204 722 281.5 722 c 128,-1,19
 359 722 359 722 404.5 686 c 128,-1,20
 450 650 450 650 450 590 c 0,21,22
 450 503 450 503 325 412 c 1,23,-1
 513 243 l 1,24,25
 528 276 528 276 538.5 316 c 128,-1,26
 549 356 549 356 549 377.5 c 128,-1,27
 549 399 549 399 479 399 c 1,28,-1
 462 451 l 1,29,-1
 612 448 l 1,30,-1
 748 451 l 1,31,-1
 761 399 l 1,32,33
 674 399 674 399 658 368 c 2,34,-1
 573 201 l 1,35,-1
 718 86 l 2,36,37
 772 44 772 44 806 44 c 1,38,-1
 814 -2 l 1,0,-1
156 202 m 0,39,40
 156 145 156 145 195 103 c 128,-1,41
 234 61 234 61 291 61 c 0,42,43
 389 61 389 61 443 133 c 1,44,-1
 221 341 l 1,45,46
 195 317 195 317 175.5 276.5 c 128,-1,47
 156 236 156 236 156 202 c 0,39,40
332 641 m 128,-1,49
 314 665 314 665 280 665 c 128,-1,50
 246 665 246 665 227 640.5 c 128,-1,51
 208 616 208 616 208 585.5 c 128,-1,52
 208 555 208 555 228.5 519 c 128,-1,53
 249 483 249 483 277 455 c 1,54,55
 350 525 350 525 350 585 c 0,56,48
 350 617 350 617 332 641 c 128,-1,49
EndSplineSet
EndChar

StartChar: quotesingle
Encoding: 39 39 10
Width: 192
GlyphClass: 2
Flags: W
LayerCount: 2
Fore
SplineSet
119 533 m 0,0,1
 107 517 107 517 93 517 c 128,-1,2
 79 517 79 517 67 522 c 1,3,4
 65 563 65 563 45 719 c 1,5,6
 99 767 99 767 136 775 c 1,7,8
 144 775 144 775 142 765 c 1,9,10
 142 739 142 739 132.5 639 c 128,-1,11
 123 539 123 539 119 533 c 0,0,1
EndSplineSet
EndChar

StartChar: parenleft
Encoding: 40 40 11
Width: 361
GlyphClass: 2
Flags: W
LayerCount: 2
Fore
SplineSet
39 281 m 128,-1,1
 39 410 39 410 108.5 544 c 128,-1,2
 178 678 178 678 283 771 c 0,3,4
 287 774 287 774 296 774 c 128,-1,5
 305 774 305 774 326.5 764 c 128,-1,6
 348 754 348 754 348 746 c 1,7,8
 160 537 160 537 160 291 c 0,9,10
 160 166 160 166 214 36 c 128,-1,11
 268 -94 268 -94 351 -187 c 1,12,13
 351 -195 351 -195 328.5 -207.5 c 128,-1,14
 306 -220 306 -220 297.5 -220 c 128,-1,15
 289 -220 289 -220 285 -217 c 0,16,17
 169 -120 169 -120 104 16 c 128,-1,0
 39 152 39 152 39 281 c 128,-1,1
EndSplineSet
EndChar

StartChar: parenright
Encoding: 41 41 12
Width: 361
GlyphClass: 2
Flags: W
LayerCount: 2
Fore
SplineSet
321 281 m 128,-1,1
 321 152 321 152 256 16 c 128,-1,2
 191 -120 191 -120 75 -217 c 0,3,4
 71 -220 71 -220 62.5 -220 c 128,-1,5
 54 -220 54 -220 31.5 -207.5 c 128,-1,6
 9 -195 9 -195 9 -187 c 1,7,8
 92 -94 92 -94 146 36 c 128,-1,9
 200 166 200 166 200 291 c 0,10,11
 200 537 200 537 12 746 c 1,12,13
 12 754 12 754 33.5 764 c 128,-1,14
 55 774 55 774 64 774 c 128,-1,15
 73 774 73 774 77 771 c 0,16,17
 182 678 182 678 251.5 544 c 128,-1,0
 321 410 321 410 321 281 c 128,-1,1
EndSplineSet
EndChar

StartChar: asterisk
Encoding: 42 42 13
Width: 362
GlyphClass: 2
Flags: W
LayerCount: 2
Fore
SplineSet
36 441 m 1,0,1
 23 454 23 454 23 459 c 128,-1,2
 23 464 23 464 24 467.5 c 128,-1,3
 25 471 25 471 26.5 476.5 c 128,-1,4
 28 482 28 482 29 484 c 0,5,6
 32 490 32 490 36 502 c 1,7,-1
 137 523 l 1,8,-1
 43 600 l 1,9,10
 51 622 51 622 96 628 c 1,11,-1
 169 563 l 1,12,13
 180 611 180 611 184 662 c 1,14,15
 208 679 208 679 225 679 c 128,-1,16
 242 679 242 679 247 671 c 0,17,18
 247 670 247 670 242 652 c 0,19,20
 228 598 228 598 221 555 c 1,21,22
 311 580 311 580 332 589 c 1,23,24
 340 577 340 577 340 568 c 0,25,26
 340 543 340 543 328 528 c 0,27,28
 327 526 327 526 313 523 c 0,29,30
 254 510 254 510 237 505 c 1,31,-1
 341 424 l 1,32,33
 335 415 335 415 316.5 408.5 c 128,-1,34
 298 402 298 402 289 402 c 128,-1,35
 280 402 280 402 201 466 c 1,36,37
 181 366 181 366 181 345 c 1,38,39
 157 349 157 349 130 381 c 1,40,-1
 154 486 l 1,41,-1
 36 441 l 1,0,1
EndSplineSet
EndChar

StartChar: plus
Encoding: 43 43 14
Width: 568
GlyphClass: 2
Flags: W
LayerCount: 2
Fore
SplineSet
239 197 m 1,0,1
 150 197 150 197 54 195 c 1,2,3
 44 204 44 204 39.5 222.5 c 128,-1,4
 35 241 35 241 35 253.5 c 128,-1,5
 35 266 35 266 39 279 c 1,6,7
 129 277 129 277 239 277 c 1,8,9
 239 399 239 399 237 446 c 1,10,11
 247 456 247 456 275.5 464 c 128,-1,12
 304 472 304 472 322 472 c 1,13,14
 320 417 320 417 320 277 c 1,15,16
 394 277 394 277 498 279 c 1,17,18
 509 268 509 268 516.5 241.5 c 128,-1,19
 524 215 524 215 524 195 c 1,20,21
 406 197 406 197 320 197 c 1,22,23
 320 112 320 112 322 10 c 1,24,25
 313 0 313 0 290.5 -6 c 128,-1,26
 268 -12 268 -12 256.5 -12 c 128,-1,27
 245 -12 245 -12 237 -11 c 1,28,29
 239 91 239 91 239 197 c 1,0,1
EndSplineSet
EndChar

StartChar: comma
Encoding: 44 44 15
Width: 242
GlyphClass: 2
Flags: W
LayerCount: 2
Fore
SplineSet
27 1 m 1,0,1
 13 14 13 14 13 73 c 0,2,3
 13 94 13 94 18 97 c 1,4,5
 40 118 40 118 80.5 118 c 128,-1,6
 121 118 121 118 147 90 c 128,-1,7
 173 62 173 62 173 16.5 c 128,-1,8
 173 -29 173 -29 140.5 -89.5 c 128,-1,9
 108 -150 108 -150 47 -193 c 1,10,11
 45 -193 45 -193 39 -193 c 128,-1,12
 33 -193 33 -193 18 -187 c 128,-1,13
 3 -181 3 -181 -3 -173 c 1,14,15
 52 -122 52 -122 64 -102 c 0,16,17
 86 -64 86 -64 86 -34 c 128,-1,18
 86 -4 86 -4 63 2 c 0,19,20
 52 4 52 4 43 4 c 128,-1,21
 34 4 34 4 27 1 c 1,0,1
EndSplineSet
EndChar

StartChar: hyphen
Encoding: 45 45 16
Width: 375
GlyphClass: 2
Flags: W
LayerCount: 2
Fore
SplineSet
52 264 m 1,0,1
 52 264 52 264 205 263 c 1,2,-1
 311 264 l 1,3,4
 318 256 318 256 324.5 222.5 c 128,-1,5
 331 189 331 189 331 173 c 1,6,-1
 204 174 l 1,7,-1
 63 173 l 1,8,9
 56 180 56 180 52.5 204.5 c 128,-1,10
 49 229 49 229 49 242 c 128,-1,11
 49 255 49 255 52 264 c 1,0,1
EndSplineSet
EndChar

StartChar: period
Encoding: 46 46 17
Width: 230
GlyphClass: 2
Flags: W
LayerCount: 2
Fore
SplineSet
66 7 m 128,-1,1
 49 26 49 26 49 54.5 c 128,-1,2
 49 83 49 83 69 102 c 128,-1,3
 89 121 89 121 115.5 121 c 128,-1,4
 142 121 142 121 161 104 c 128,-1,5
 180 87 180 87 180 58 c 128,-1,6
 180 29 180 29 162 8.5 c 128,-1,7
 144 -12 144 -12 113.5 -12 c 128,-1,0
 83 -12 83 -12 66 7 c 128,-1,1
EndSplineSet
EndChar

StartChar: slash
Encoding: 47 47 18
Width: 452
GlyphClass: 2
Flags: W
LayerCount: 2
Fore
SplineSet
329 740 m 1,0,1
 356 749 356 749 385.5 749 c 128,-1,2
 415 749 415 749 432 743 c 1,3,-1
 129 -46 l 1,4,5
 122 -57 122 -57 94.5 -61 c 128,-1,6
 67 -65 67 -65 52 -65 c 128,-1,7
 37 -65 37 -65 26 -61 c 1,8,-1
 329 740 l 1,0,1
EndSplineSet
EndChar

StartChar: zero
Encoding: 48 48 19
Width: 609
GlyphClass: 2
Flags: W
LayerCount: 2
Fore
SplineSet
101.5 81 m 128,-1,1
 25 174 25 174 25 327.5 c 128,-1,2
 25 481 25 481 101 586.5 c 128,-1,3
 177 692 177 692 302.5 692 c 128,-1,4
 428 692 428 692 506 595.5 c 128,-1,5
 584 499 584 499 584 346 c 128,-1,6
 584 193 584 193 507.5 90.5 c 128,-1,7
 431 -12 431 -12 304.5 -12 c 128,-1,0
 178 -12 178 -12 101.5 81 c 128,-1,1
323 56 m 0,8,9
 386 56 386 56 419.5 132 c 128,-1,10
 453 208 453 208 453 315 c 0,11,12
 453 434 453 434 420 524 c 0,13,14
 402 572 402 572 369 600 c 128,-1,15
 336 628 336 628 291 628 c 0,16,17
 231 628 231 628 193.5 549 c 128,-1,18
 156 470 156 470 156 373 c 0,19,20
 156 249 156 249 188 160 c 0,21,22
 206 112 206 112 240.5 84 c 128,-1,23
 275 56 275 56 323 56 c 0,8,9
EndSplineSet
EndChar

StartChar: one
Encoding: 49 49 20
Width: 340
GlyphClass: 2
Flags: W
LayerCount: 2
Fore
SplineSet
183 0 m 1,0,-1
 38 -1 l 1,1,-1
 27 51 l 1,2,3
 64 52 64 52 82 58.5 c 128,-1,4
 100 65 100 65 102.5 70 c 128,-1,5
 105 75 105 75 105 85 c 2,6,-1
 105 568 l 2,7,8
 105 611 105 611 54 611 c 0,9,10
 41 611 41 611 20 608 c 1,11,-1
 0 657 l 1,12,13
 74 670 74 670 119 683 c 2,14,-1
 214 711 l 1,15,16
 232 711 232 711 236 706 c 128,-1,17
 240 701 240 701 240 677 c 2,18,-1
 241 85 l 2,19,20
 241 51 241 51 304 51 c 0,21,22
 307 51 307 51 311 51 c 1,23,-1
 324 -3 l 1,24,-1
 183 0 l 1,0,-1
EndSplineSet
EndChar

StartChar: two
Encoding: 50 50 21
Width: 543
GlyphClass: 2
Flags: W
LayerCount: 2
Fore
SplineSet
218 606 m 0,0,1
 135 606 135 606 73 518 c 1,2,3
 62 518 62 518 49 526.5 c 128,-1,4
 36 535 36 535 34 548 c 1,5,6
 116 691 116 691 260 691 c 0,7,8
 353 691 353 691 415 643.5 c 128,-1,9
 477 596 477 596 477 512 c 0,10,11
 477 454 477 454 447 402 c 0,12,13
 420 355 420 355 396.5 326 c 128,-1,14
 373 297 373 297 351 271.5 c 128,-1,15
 329 246 329 246 314 228 c 128,-1,16
 299 210 299 210 275.5 185.5 c 128,-1,17
 252 161 252 161 221.5 131.5 c 128,-1,18
 191 102 191 102 188 99 c 1,19,-1
 351 99 l 2,20,21
 392 99 392 99 409 118.5 c 128,-1,22
 426 138 426 138 444 199 c 1,23,-1
 493 175 l 1,24,25
 493 138 493 138 484 82 c 0,26,27
 483 75 483 75 456 -16 c 1,28,29
 411 0 411 0 291 0 c 2,30,-1
 218 0 l 2,31,32
 97 0 97 0 20 -6 c 1,33,34
 10 19 10 19 10 33 c 1,35,-1
 57 70 l 1,36,37
 138 136 138 136 208 222 c 0,38,39
 332 375 332 375 332 494 c 0,40,41
 332 546 332 546 300 576 c 128,-1,42
 268 606 268 606 218 606 c 0,0,1
EndSplineSet
EndChar

StartChar: three
Encoding: 51 51 22
Width: 452
GlyphClass: 2
Flags: W
LayerCount: 2
Fore
SplineSet
251 585.5 m 128,-1,1
 226 606 226 606 186 606 c 128,-1,2
 146 606 146 606 103 586.5 c 128,-1,3
 60 567 60 567 38 539 c 1,4,5
 18 539 18 539 4 574 c 1,6,7
 32 621 32 621 86.5 656.5 c 128,-1,8
 141 692 141 692 218.5 692 c 128,-1,9
 296 692 296 692 346.5 656 c 128,-1,10
 397 620 397 620 397 559 c 0,11,12
 397 446 397 446 238 381 c 1,13,14
 422 318 422 318 422 200 c 0,15,16
 422 100 422 100 333.5 44 c 128,-1,17
 245 -12 245 -12 119 -12 c 0,18,19
 39 -12 39 -12 13 3 c 1,20,21
 6 9 6 9 10 24.5 c 128,-1,22
 14 40 14 40 21 40 c 0,23,24
 79 38 79 38 82 38 c 0,25,26
 169 38 169 38 227 85.5 c 128,-1,27
 285 133 285 133 285 200 c 0,28,29
 285 247 285 247 245.5 275.5 c 128,-1,30
 206 304 206 304 160 304 c 128,-1,31
 114 304 114 304 82 296 c 1,32,33
 76 306 76 306 71.5 324.5 c 128,-1,34
 67 343 67 343 67 349 c 1,35,36
 68 350 68 350 94.5 362.5 c 128,-1,37
 121 375 121 375 138.5 384.5 c 128,-1,38
 156 394 156 394 184.5 412 c 128,-1,39
 213 430 213 430 231 446 c 0,40,41
 276 488 276 488 276 526.5 c 128,-1,0
 276 565 276 565 251 585.5 c 128,-1,1
EndSplineSet
EndChar

StartChar: four
Encoding: 52 52 23
Width: 595
GlyphClass: 2
Flags: W
LayerCount: 2
Fore
SplineSet
311 228 m 1,0,-1
 46 228 l 2,1,2
 27 228 27 228 15.5 236 c 128,-1,3
 4 244 4 244 4 251.5 c 128,-1,4
 4 259 4 259 10 267 c 2,5,-1
 373 680 l 2,6,7
 382 690 382 690 392.5 691 c 128,-1,8
 403 692 403 692 412 692 c 2,9,-1
 431 692 l 1,10,11
 448 668 448 668 447 651 c 1,12,13
 433 628 433 628 433 572 c 2,14,-1
 433 312 l 1,15,-1
 457 312 l 2,16,17
 520 312 520 312 549 330 c 1,18,19
 565 312 565 312 565 297 c 0,20,21
 565 258 565 258 535 213 c 1,22,23
 490 227 490 227 433 228 c 1,24,-1
 433 -12 l 1,25,26
 354 -10 354 -10 311 11 c 1,27,-1
 311 228 l 1,0,-1
315 312 m 1,28,-1
 315 518 l 1,29,-1
 144 312 l 1,30,-1
 315 312 l 1,28,-1
EndSplineSet
EndChar

StartChar: five
Encoding: 53 53 24
Width: 453
GlyphClass: 2
Flags: W
LayerCount: 2
Fore
SplineSet
197 680 m 2,0,-1
 290 680 l 2,1,2
 325 680 325 680 341 692.5 c 128,-1,3
 357 705 357 705 374 750 c 1,4,-1
 418 722 l 1,5,6
 418 661 418 661 383 572 c 1,7,8
 335 584 335 584 135 584 c 1,9,10
 130 567 130 567 122 540 c 128,-1,11
 114 513 114 513 109 495 c 1,12,13
 252 477 252 477 329.5 415.5 c 128,-1,14
 407 354 407 354 407 275 c 0,15,16
 407 211 407 211 375.5 157.5 c 128,-1,17
 344 104 344 104 294 70 c 0,18,19
 190 1 190 1 67 1 c 0,20,21
 63 1 63 1 57.5 11 c 128,-1,22
 52 21 52 21 52 30.5 c 128,-1,23
 52 40 52 40 62 43 c 1,24,25
 155 59 155 59 218 110.5 c 128,-1,26
 281 162 281 162 281 234.5 c 128,-1,27
 281 307 281 307 203.5 346.5 c 128,-1,28
 126 386 126 386 17 386 c 1,29,-1
 89 652 l 2,30,31
 96 679 96 679 108 691 c 1,32,33
 152 680 152 680 197 680 c 2,0,-1
EndSplineSet
EndChar

StartChar: six
Encoding: 54 54 25
Width: 525
GlyphClass: 2
Flags: W
LayerCount: 2
Fore
SplineSet
292 407 m 0,0,1
 374 407 374 407 438.5 354.5 c 128,-1,2
 503 302 503 302 503 209 c 128,-1,3
 503 116 503 116 440 52 c 128,-1,4
 377 -12 377 -12 263 -12 c 128,-1,5
 149 -12 149 -12 86.5 48 c 128,-1,6
 24 108 24 108 24 225.5 c 128,-1,7
 24 343 24 343 118.5 473 c 128,-1,8
 213 603 213 603 354 692 c 0,9,10
 355 692 355 692 361 689.5 c 128,-1,11
 367 687 367 687 369.5 686 c 128,-1,12
 372 685 372 685 377.5 682.5 c 128,-1,13
 383 680 383 680 386 677.5 c 128,-1,14
 389 675 389 675 392 672 c 0,15,16
 399 666 399 666 399 659 c 1,17,18
 360 628 360 628 305 569 c 128,-1,19
 250 510 250 510 235 490 c 0,20,21
 192 431 192 431 173 382 c 1,22,23
 238 407 238 407 292 407 c 0,0,1
210.5 332.5 m 128,-1,25
 185 321 185 321 170 300.5 c 128,-1,26
 155 280 155 280 155 208.5 c 128,-1,27
 155 137 155 137 187 96.5 c 128,-1,28
 219 56 219 56 271 56 c 128,-1,29
 323 56 323 56 347.5 94 c 128,-1,30
 372 132 372 132 372 192.5 c 128,-1,31
 372 253 372 253 342 298.5 c 128,-1,32
 312 344 312 344 261 344 c 0,33,24
 236 344 236 344 210.5 332.5 c 128,-1,25
EndSplineSet
EndChar

StartChar: seven
Encoding: 55 55 26
Width: 514
GlyphClass: 2
Flags: W
LayerCount: 2
Fore
SplineSet
398 680 m 2,0,1
 470 680 470 680 511 690 c 1,2,3
 516 682 516 682 516 649 c 1,4,-1
 217 -13 l 1,5,6
 212 -12 212 -12 201 -10 c 128,-1,7
 190 -8 190 -8 183 -6.5 c 128,-1,8
 176 -5 176 -5 168 -2 c 0,9,10
 154 2 154 2 156 16 c 1,11,-1
 377 583 l 1,12,-1
 159 583 l 2,13,14
 124 583 124 583 104 565 c 128,-1,15
 84 547 84 547 67 499 c 1,16,-1
 14 533 l 1,17,18
 14 533 14 533 14 557 c 0,19,20
 14 576 14 576 16 583.5 c 128,-1,21
 18 591 18 591 20.5 603.5 c 128,-1,22
 23 616 23 616 27 627.5 c 128,-1,23
 31 639 31 639 36.5 656 c 128,-1,24
 42 673 42 673 49 693 c 1,25,26
 87 682 87 682 184 680 c 1,27,-1
 398 680 l 2,0,1
EndSplineSet
EndChar

StartChar: eight
Encoding: 56 56 27
Width: 510
GlyphClass: 2
Flags: W
LayerCount: 2
Fore
SplineSet
25 168 m 0,0,1
 25 235 25 235 72 282 c 1,2,3
 109 317 109 317 162 353 c 1,4,5
 109 390 109 390 85 415 c 0,6,7
 39 462 39 462 39 515 c 0,8,9
 39 595 39 595 99.5 644 c 128,-1,10
 160 693 160 693 258 693 c 128,-1,11
 356 693 356 693 408.5 650.5 c 128,-1,12
 461 608 461 608 461 545 c 0,13,14
 461 451 461 451 337 363 c 1,15,16
 448 300 448 300 475 237 c 0,17,18
 488 206 488 206 488 169 c 0,19,20
 488 87 488 87 424 37.5 c 128,-1,21
 360 -12 360 -12 258.5 -12 c 128,-1,22
 157 -12 157 -12 91 33 c 128,-1,23
 25 78 25 78 25 168 c 0,0,1
337.5 85 m 128,-1,25
 367 114 367 114 367 160 c 128,-1,26
 367 206 367 206 325 245.5 c 128,-1,27
 283 285 283 285 207 326 c 1,28,29
 182 300 182 300 164 259 c 128,-1,30
 146 218 146 218 146 171 c 128,-1,31
 146 124 146 124 177.5 90 c 128,-1,32
 209 56 209 56 258.5 56 c 128,-1,24
 308 56 308 56 337.5 85 c 128,-1,25
160 537 m 0,33,34
 160 451 160 451 291 387 c 1,35,36
 313 415 313 415 326.5 455.5 c 128,-1,37
 340 496 340 496 340 535 c 128,-1,38
 340 574 340 574 315 601.5 c 128,-1,39
 290 629 290 629 248 629 c 128,-1,40
 206 629 206 629 183 600 c 128,-1,41
 160 571 160 571 160 537 c 0,33,34
EndSplineSet
EndChar

StartChar: nine
Encoding: 57 57 28
Width: 525
GlyphClass: 2
Flags: W
LayerCount: 2
Fore
SplineSet
351 274 m 1,0,1
 308 256 308 256 230.5 256 c 128,-1,2
 153 256 153 256 87.5 316.5 c 128,-1,3
 22 377 22 377 22 470.5 c 128,-1,4
 22 564 22 564 85 627.5 c 128,-1,5
 148 691 148 691 262 691 c 128,-1,6
 376 691 376 691 438.5 631 c 128,-1,7
 501 571 501 571 501 453 c 128,-1,8
 501 335 501 335 419 208 c 128,-1,9
 337 81 337 81 202 -12 c 1,10,11
 161 0 161 0 156 20 c 1,12,13
 221 67 221 67 278.5 141.5 c 128,-1,14
 336 216 336 216 351 274 c 1,0,1
352 376 m 0,15,16
 370 401 370 401 370 472 c 128,-1,17
 370 543 370 543 337.5 586 c 128,-1,18
 305 629 305 629 254 629 c 128,-1,19
 203 629 203 629 178 588.5 c 128,-1,20
 153 548 153 548 153 487.5 c 128,-1,21
 153 427 153 427 183 384.5 c 128,-1,22
 213 342 213 342 270 342 c 128,-1,23
 327 342 327 342 352 376 c 0,15,16
EndSplineSet
EndChar

StartChar: colon
Encoding: 58 58 29
Width: 243
GlyphClass: 2
Flags: W
LayerCount: 2
Fore
SplineSet
72 55 m 128,-1,1
 72 84 72 84 92.5 103.5 c 128,-1,2
 113 123 113 123 139.5 123 c 128,-1,3
 166 123 166 123 185.5 106 c 128,-1,4
 205 89 205 89 205 59.5 c 128,-1,5
 205 30 205 30 187 9 c 128,-1,6
 169 -12 169 -12 137.5 -12 c 128,-1,7
 106 -12 106 -12 89 7 c 128,-1,0
 72 26 72 26 72 55 c 128,-1,1
72 323 m 128,-1,9
 72 352 72 352 92.5 371.5 c 128,-1,10
 113 391 113 391 139.5 391 c 128,-1,11
 166 391 166 391 185.5 374 c 128,-1,12
 205 357 205 357 205 327.5 c 128,-1,13
 205 298 205 298 187 277 c 128,-1,14
 169 256 169 256 137.5 256 c 128,-1,15
 106 256 106 256 89 275 c 128,-1,8
 72 294 72 294 72 323 c 128,-1,9
EndSplineSet
EndChar

StartChar: semicolon
Encoding: 59 59 30
Width: 298
GlyphClass: 2
Flags: W
LayerCount: 2
Fore
SplineSet
75 323 m 128,-1,1
 75 352 75 352 95.5 371.5 c 128,-1,2
 116 391 116 391 142.5 391 c 128,-1,3
 169 391 169 391 188.5 374 c 128,-1,4
 208 357 208 357 208 327.5 c 128,-1,5
 208 298 208 298 190 277 c 128,-1,6
 172 256 172 256 140.5 256 c 128,-1,7
 109 256 109 256 92 275 c 128,-1,0
 75 294 75 294 75 323 c 128,-1,1
104 1 m 1,8,9
 90 14 90 14 90 73 c 0,10,11
 90 94 90 94 95 97 c 1,12,13
 118 118 118 118 158 118 c 128,-1,14
 198 118 198 118 224 90 c 128,-1,15
 250 62 250 62 250 16.5 c 128,-1,16
 250 -29 250 -29 217.5 -89.5 c 128,-1,17
 185 -150 185 -150 124 -193 c 1,18,19
 122 -193 122 -193 116 -193 c 128,-1,20
 110 -193 110 -193 95 -187 c 128,-1,21
 80 -181 80 -181 74 -173 c 1,22,23
 129 -122 129 -122 141 -102 c 0,24,25
 163 -64 163 -64 163 -34 c 128,-1,26
 163 -4 163 -4 140 2 c 0,27,28
 129 4 129 4 120 4 c 128,-1,29
 111 4 111 4 104 1 c 1,8,9
EndSplineSet
EndChar

StartChar: less
Encoding: 60 60 31
Width: 500
GlyphClass: 2
Flags: W
LayerCount: 2
Fore
SplineSet
481 496.5 m 128,-1,1
 481 454 481 454 477 442 c 1,2,-1
 166 275 l 1,3,-1
 166 271 l 1,4,-1
 477 103 l 1,5,6
 480 82 480 82 480 46 c 128,-1,7
 480 10 480 10 477 0 c 1,8,-1
 68 213 l 1,9,10
 63 218 63 218 58.5 258.5 c 128,-1,11
 54 299 54 299 54 310 c 128,-1,12
 54 321 54 321 55 323 c 1,13,-1
 477 544 l 1,14,0
 481 539 481 539 481 496.5 c 128,-1,1
EndSplineSet
EndChar

StartChar: equal
Encoding: 61 61 32
Width: 527
GlyphClass: 2
Flags: W
LayerCount: 2
Fore
SplineSet
42 217 m 1,0,1
 42 217 42 217 267 215 c 1,2,-1
 474 217 l 1,3,4
 481 209 481 209 487.5 178.5 c 128,-1,5
 494 148 494 148 494 133 c 1,6,-1
 266 135 l 1,7,-1
 53 133 l 1,8,9
 46 140 46 140 42.5 162 c 128,-1,10
 39 184 39 184 39 196 c 128,-1,11
 39 208 39 208 42 217 c 1,0,1
37 363 m 1,12,-1
 262 361 l 1,13,-1
 469 363 l 1,14,15
 476 355 476 355 482.5 324.5 c 128,-1,16
 489 294 489 294 489 279 c 1,17,-1
 261 281 l 1,18,-1
 48 279 l 1,19,20
 41 286 41 286 37.5 308 c 128,-1,21
 34 330 34 330 34 342 c 128,-1,22
 34 354 34 354 37 363 c 1,12,-1
EndSplineSet
EndChar

StartChar: greater
Encoding: 62 62 33
Width: 547
GlyphClass: 2
Flags: W
LayerCount: 2
Fore
SplineSet
479 323 m 1,0,1
 480 321 480 321 480 310 c 128,-1,2
 480 299 480 299 475.5 258.5 c 128,-1,3
 471 218 471 218 466 213 c 1,4,-1
 57 0 l 1,5,6
 54 10 54 10 54 26 c 0,7,8
 54 82 54 82 57 103 c 1,9,-1
 368 271 l 1,10,-1
 368 275 l 1,11,-1
 57 442 l 1,12,13
 53 454 53 454 53 496.5 c 128,-1,14
 53 539 53 539 57 544 c 1,15,-1
 479 323 l 1,0,1
EndSplineSet
EndChar

StartChar: question
Encoding: 63 63 34
Width: 380
GlyphClass: 2
Flags: W
LayerCount: 2
Fore
SplineSet
287 520 m 0,0,1
 287 546 287 546 259 565.5 c 128,-1,2
 231 585 231 585 190.5 585 c 128,-1,3
 150 585 150 585 129 580.5 c 128,-1,4
 108 576 108 576 107 576 c 0,5,6
 99 576 99 576 92 607.5 c 128,-1,7
 85 639 85 639 85 665.5 c 128,-1,8
 85 692 85 692 141 692 c 0,9,10
 181 692 181 692 213 678 c 0,11,12
 285 647 285 647 322.5 600 c 128,-1,13
 360 553 360 553 360 500 c 128,-1,14
 360 447 360 447 340 411 c 128,-1,15
 320 375 320 375 270 342 c 1,16,17
 212 306 212 306 201 296 c 128,-1,18
 190 286 190 286 184 280 c 1,19,20
 175 268 175 268 175 250 c 128,-1,21
 175 232 175 232 194 210 c 1,22,23
 190 191 190 191 177 189 c 0,24,25
 170 188 170 188 148.5 200 c 128,-1,26
 127 212 127 212 105 238.5 c 128,-1,27
 83 265 83 265 83 294 c 128,-1,28
 83 323 83 323 102 356 c 128,-1,29
 121 389 121 389 159 413 c 2,30,-1
 182 428 l 1,31,-1
 182 427 l 1,32,33
 208 443 208 443 218 448.5 c 128,-1,34
 228 454 228 454 237.5 460.5 c 128,-1,35
 247 467 247 467 252 470.5 c 128,-1,36
 257 474 257 474 264 479.5 c 128,-1,37
 271 485 271 485 274 489.5 c 128,-1,38
 277 494 277 494 280 499 c 0,39,40
 287 508 287 508 287 520 c 0,0,1
111 44 m 128,-1,42
 111 69 111 69 128 85 c 128,-1,43
 145 101 145 101 167.5 101 c 128,-1,44
 190 101 190 101 206 86.5 c 128,-1,45
 222 72 222 72 222 47.5 c 128,-1,46
 222 23 222 23 207 5.5 c 128,-1,47
 192 -12 192 -12 165.5 -12 c 128,-1,48
 139 -12 139 -12 125 3.5 c 128,-1,41
 111 19 111 19 111 44 c 128,-1,42
EndSplineSet
EndChar

StartChar: at
Encoding: 64 64 35
Width: 847
GlyphClass: 2
Flags: W
LayerCount: 2
Fore
SplineSet
340 -8 m 0,0,1
 302 -8 302 -8 282 20 c 0,2,3
 261 50 261 50 261 92 c 0,4,5
 261 252 261 252 370 354 c 0,6,7
 422 402 422 402 491 402 c 0,8,9
 532 402 532 402 545 373 c 1,10,-1
 553 408 l 1,11,12
 583 424 583 424 637 424 c 1,13,14
 573 74 573 74 573 68 c 128,-1,15
 573 62 573 62 571 62 c 1,16,17
 613 62 613 62 666.5 142 c 128,-1,18
 720 222 720 222 720 341 c 0,19,20
 720 436 720 436 671 483.5 c 128,-1,21
 622 531 622 531 537 531 c 0,22,23
 450 531 450 531 361 474 c 0,24,25
 312 442 312 442 272 396.5 c 128,-1,26
 232 351 232 351 206 278.5 c 128,-1,27
 180 206 180 206 180 118 c 0,28,29
 180 -5 180 -5 249 -81.5 c 128,-1,30
 318 -158 318 -158 423 -158 c 1,31,32
 428 -163 428 -163 428 -164 c 0,33,34
 428 -187 428 -187 366 -187 c 0,35,36
 289 -187 289 -187 212 -142 c 0,37,38
 170 -117 170 -117 136.5 -83 c 128,-1,39
 103 -49 103 -49 81.5 4 c 128,-1,40
 60 57 60 57 60 120 c 0,41,42
 60 250 60 250 130.5 356.5 c 128,-1,43
 201 463 201 463 316.5 521 c 128,-1,44
 432 579 432 579 562 579 c 128,-1,45
 692 579 692 579 766 513 c 128,-1,46
 840 447 840 447 840 351 c 0,47,48
 840 284 840 284 804.5 215.5 c 128,-1,49
 769 147 769 147 717 98.5 c 128,-1,50
 665 50 665 50 607.5 19 c 128,-1,51
 550 -12 550 -12 507.5 -12 c 128,-1,52
 465 -12 465 -12 465 24 c 0,53,54
 465 48 465 48 484 121 c 1,55,56
 459 86 459 86 441 63.5 c 128,-1,57
 423 41 423 41 393 16.5 c 128,-1,58
 363 -8 363 -8 340 -8 c 0,0,1
422 102 m 0,59,60
 525 209 525 209 525 312 c 0,61,62
 525 327 525 327 514.5 342.5 c 128,-1,63
 504 358 504 358 487 358 c 0,64,65
 436 358 436 358 395.5 280.5 c 128,-1,66
 355 203 355 203 355 119 c 0,67,68
 355 67 355 67 374 67 c 0,69,70
 389 67 389 67 422 102 c 0,59,60
EndSplineSet
EndChar

StartChar: A
Encoding: 65 65 36
Width: 747
GlyphClass: 2
Flags: W
LayerCount: 2
Fore
SplineSet
129 0 m 1,0,-1
 7 -4 l 1,1,-1
 0 51 l 1,2,3
 35 54 35 54 57 68 c 128,-1,4
 79 82 79 82 89 98.5 c 128,-1,5
 99 115 99 115 111 148 c 2,6,-1
 320 710 l 1,7,-1
 407 710 l 1,8,-1
 643 132 l 2,9,10
 661 87 661 87 680.5 68.5 c 128,-1,11
 700 50 700 50 736 50 c 1,12,-1
 747 -3 l 1,13,14
 701 0 701 0 596 0 c 128,-1,15
 491 0 491 0 444 -3 c 1,16,-1
 435 50 l 1,17,18
 488 50 488 50 501 57.5 c 128,-1,19
 514 65 514 65 514 75 c 128,-1,20
 514 85 514 85 508 98 c 2,21,-1
 441 248 l 1,22,-1
 224 248 l 1,23,-1
 182 128 l 2,24,25
 178 117 178 117 178 107 c 0,26,27
 178 86 178 86 203 69 c 128,-1,28
 228 52 228 52 280 51 c 1,29,-1
 290 -4 l 1,30,-1
 129 0 l 1,0,-1
323 529 m 1,31,-1
 246 312 l 1,32,-1
 413 312 l 1,33,-1
 323 529 l 1,31,-1
EndSplineSet
EndChar

StartChar: B
Encoding: 66 66 37
Width: 653
GlyphClass: 2
Flags: W
LayerCount: 2
Fore
SplineSet
330 -4 m 1,0,-1
 188 0 l 1,1,2
 120 0 120 0 43 -3 c 1,3,-1
 31 51 l 1,4,5
 79 52 79 52 94.5 61 c 128,-1,6
 110 70 110 70 110 87 c 2,7,-1
 110 623 l 2,8,9
 110 641 110 641 96.5 650 c 128,-1,10
 83 659 83 659 43 659 c 1,11,-1
 30 713 l 1,12,13
 150 710 150 710 170 710 c 2,14,-1
 330 714 l 1,15,16
 565 714 565 714 565 550 c 0,17,18
 565 440 565 440 432 388 c 1,19,20
 508 374 508 374 561.5 326.5 c 128,-1,21
 615 279 615 279 615 211 c 0,22,23
 615 109 615 109 542.5 52.5 c 128,-1,24
 470 -4 470 -4 330 -4 c 1,0,-1
389 620 m 128,-1,26
 354 650 354 650 301 650 c 128,-1,27
 248 650 248 650 248 643 c 2,28,-1
 248 398 l 1,29,30
 250 397 250 397 289 397 c 0,31,32
 352 397 352 397 388 433 c 128,-1,33
 424 469 424 469 424 529.5 c 128,-1,25
 424 590 424 590 389 620 c 128,-1,26
248 115 m 2,34,35
 248 59 248 59 320.5 59 c 128,-1,36
 393 59 393 59 431 99.5 c 128,-1,37
 469 140 469 140 469 195 c 0,38,39
 469 273 469 273 419.5 308 c 128,-1,40
 370 343 370 343 309.5 343 c 128,-1,41
 249 343 249 343 248 342 c 1,42,-1
 248 115 l 2,34,35
EndSplineSet
EndChar

StartChar: C
Encoding: 67 67 38
Width: 768
GlyphClass: 2
Flags: W
LayerCount: 2
Fore
SplineSet
434 652 m 0,0,1
 319 652 319 652 257.5 571.5 c 128,-1,2
 196 491 196 491 196 363.5 c 128,-1,3
 196 236 196 236 268 148 c 128,-1,4
 340 60 340 60 455 60 c 0,5,6
 608 60 608 60 670 213 c 1,7,-1
 738 198 l 1,8,9
 738 189 738 189 712 116.5 c 128,-1,10
 686 44 686 44 680 45 c 1,11,12
 576 -12 576 -12 435 -12 c 0,13,14
 261 -12 261 -12 150.5 85 c 128,-1,15
 40 182 40 182 40 341 c 0,16,17
 40 521 40 521 154.5 621.5 c 128,-1,18
 269 722 269 722 448 722 c 0,19,20
 527 722 527 722 619 700 c 1,21,22
 666 691 666 691 704 685 c 1,23,24
 715 662 715 662 715 606 c 128,-1,25
 715 550 715 550 709 492 c 1,26,-1
 637 500 l 1,27,28
 630 559 630 559 609 590 c 0,29,30
 566 652 566 652 434 652 c 0,0,1
EndSplineSet
EndChar

StartChar: D
Encoding: 68 68 39
Width: 832
GlyphClass: 2
Flags: W
LayerCount: 2
Fore
SplineSet
353 -3 m 1,0,-1
 173 2 l 1,1,2
 120 2 120 2 43 -1 c 1,3,-1
 31 53 l 1,4,5
 79 54 79 54 94.5 63 c 128,-1,6
 110 72 110 72 110 89 c 2,7,-1
 110 622 l 2,8,9
 110 640 110 640 96.5 649 c 128,-1,10
 83 658 83 658 43 658 c 1,11,-1
 30 712 l 1,12,13
 150 709 150 709 170 709 c 2,14,-1
 370 711 l 1,15,16
 568 711 568 711 680 621.5 c 128,-1,17
 792 532 792 532 792 364.5 c 128,-1,18
 792 197 792 197 677.5 97 c 128,-1,19
 563 -3 563 -3 353 -3 c 1,0,-1
571 135 m 128,-1,21
 637 210 637 210 637 352.5 c 128,-1,22
 637 495 637 495 561.5 573.5 c 128,-1,23
 486 652 486 652 346 652 c 2,24,-1
 271 652 l 2,25,26
 245 652 245 652 245 645 c 2,27,-1
 245 126 l 2,28,29
 245 100 245 100 250 89 c 128,-1,30
 255 78 255 78 285 69 c 128,-1,31
 315 60 315 60 380 60 c 0,32,20
 505 60 505 60 571 135 c 128,-1,21
EndSplineSet
EndChar

StartChar: E
Encoding: 69 69 40
Width: 669
GlyphClass: 2
Flags: W
LayerCount: 2
Fore
SplineSet
438 651 m 2,0,-1
 313 650 l 1,1,-1
 289 650 l 1,2,3
 248 648 248 648 248 646 c 2,4,-1
 248 399 l 1,5,-1
 414 399 l 2,6,7
 426 399 426 399 426 495 c 1,8,-1
 482 504 l 1,9,-1
 479 366 l 1,10,11
 479 309 479 309 482 243 c 1,12,-1
 424 232 l 1,13,14
 424 289 424 289 422 305 c 128,-1,15
 420 321 420 321 412 321 c 2,16,-1
 248 321 l 1,17,-1
 248 115 l 2,18,19
 248 82 248 82 266 72 c 128,-1,20
 284 62 284 62 327 62 c 2,21,-1
 421 62 l 2,22,23
 556 62 556 62 605 206 c 1,24,-1
 659 195 l 1,25,26
 659 178 659 178 630 89 c 128,-1,27
 601 0 601 0 587 0 c 2,28,-1
 356 -1 l 1,29,30
 356 -1 356 -1 173 0 c 0,31,32
 120 0 120 0 43 -3 c 1,33,-1
 31 51 l 1,34,35
 79 52 79 52 94.5 61 c 128,-1,36
 110 70 110 70 110 87 c 2,37,-1
 110 623 l 2,38,39
 110 641 110 641 96.5 650 c 128,-1,40
 83 659 83 659 43 659 c 1,41,-1
 30 713 l 1,42,43
 150 710 150 710 170 710 c 2,44,-1
 429 710 l 1,45,-1
 585 709 l 1,46,47
 597 682 597 682 597 622 c 128,-1,48
 597 562 597 562 592 515 c 1,49,-1
 548 522 l 1,50,51
 537 591 537 591 511.5 621 c 128,-1,52
 486 651 486 651 438 651 c 2,0,-1
EndSplineSet
EndChar

StartChar: F
Encoding: 70 70 41
Width: 607
GlyphClass: 2
Flags: W
LayerCount: 2
Fore
SplineSet
482 504 m 1,0,-1
 479 366 l 1,1,2
 479 309 479 309 482 243 c 1,3,-1
 424 232 l 1,4,5
 424 289 424 289 422 305 c 128,-1,6
 420 321 420 321 412 321 c 2,7,-1
 248 321 l 1,8,-1
 248 87 l 2,9,10
 248 68 248 68 266.5 59.5 c 128,-1,11
 285 51 285 51 345 51 c 1,12,-1
 358 -3 l 1,13,14
 238 0 238 0 179 0 c 128,-1,15
 120 0 120 0 43 -3 c 1,16,-1
 31 51 l 1,17,18
 79 52 79 52 94.5 61 c 128,-1,19
 110 70 110 70 110 87 c 2,20,-1
 110 623 l 2,21,22
 110 641 110 641 96.5 650 c 128,-1,23
 83 659 83 659 43 659 c 1,24,-1
 30 713 l 1,25,26
 150 710 150 710 170 710 c 2,27,-1
 585 710 l 1,28,29
 597 676 597 676 597 616.5 c 128,-1,30
 597 557 597 557 592 515 c 1,31,-1
 548 522 l 1,32,33
 537 591 537 591 511.5 621 c 128,-1,34
 486 651 486 651 438 651 c 2,35,-1
 289 651 l 1,36,37
 248 649 248 649 248 646 c 2,38,-1
 248 399 l 1,39,-1
 414 399 l 2,40,41
 426 399 426 399 426 495 c 1,42,-1
 482 504 l 1,0,-1
EndSplineSet
EndChar

StartChar: G
Encoding: 71 71 42
Width: 820
GlyphClass: 2
Flags: W
LayerCount: 2
Fore
SplineSet
432 653 m 0,0,1
 321 653 321 653 258.5 571.5 c 128,-1,2
 196 490 196 490 196 361.5 c 128,-1,3
 196 233 196 233 261.5 146.5 c 128,-1,4
 327 60 327 60 446 60 c 0,5,6
 501 60 501 60 542 78 c 128,-1,7
 583 96 583 96 583 138 c 2,8,-1
 583 244 l 2,9,10
 583 257 583 257 576 264 c 0,11,12
 560 280 560 280 466 280 c 1,13,-1
 453 334 l 1,14,15
 573 331 573 331 642.5 331 c 128,-1,16
 712 331 712 331 788 334 c 1,17,-1
 800 280 l 1,18,19
 752 279 752 279 736.5 270 c 128,-1,20
 721 261 721 261 721 244 c 2,21,-1
 721 137 l 2,22,23
 721 61 721 61 695 52 c 1,24,-1
 702 53 l 1,25,26
 587 -12 587 -12 432 -12 c 0,27,28
 249 -12 249 -12 144.5 85.5 c 128,-1,29
 40 183 40 183 40 349.5 c 128,-1,30
 40 516 40 516 155.5 619 c 128,-1,31
 271 722 271 722 446 722 c 0,32,33
 511 722 511 722 584 706.5 c 128,-1,34
 657 691 657 691 700 685 c 1,35,36
 712 660 712 660 712 605 c 128,-1,37
 712 550 712 550 706 492 c 1,38,-1
 656 501 l 1,39,40
 642 579 642 579 582.5 616 c 128,-1,41
 523 653 523 653 432 653 c 0,0,1
EndSplineSet
EndChar

StartChar: H
Encoding: 72 72 43
Width: 837
GlyphClass: 2
Flags: W
LayerCount: 2
Fore
SplineSet
253 623 m 2,0,-1
 253 399 l 1,1,-1
 584 399 l 1,2,-1
 584 623 l 2,3,4
 584 641 584 641 570.5 650 c 128,-1,5
 557 659 557 659 517 659 c 1,6,-1
 504 713 l 1,7,8
 624 710 624 710 668 710 c 128,-1,9
 712 710 712 710 789 713 c 1,10,-1
 801 659 l 1,11,12
 753 658 753 658 737.5 649 c 128,-1,13
 722 640 722 640 722 623 c 2,14,-1
 722 87 l 2,15,16
 722 69 722 69 735.5 60 c 128,-1,17
 749 51 749 51 789 51 c 1,18,-1
 802 -3 l 1,19,20
 682 0 682 0 638 0 c 128,-1,21
 594 0 594 0 517 -3 c 1,22,-1
 505 51 l 1,23,24
 553 52 553 52 568.5 61 c 128,-1,25
 584 70 584 70 584 87 c 2,26,-1
 584 322 l 1,27,-1
 253 322 l 1,28,-1
 253 87 l 2,29,30
 253 69 253 69 266.5 60 c 128,-1,31
 280 51 280 51 320 51 c 1,32,-1
 333 -3 l 1,33,34
 213 0 213 0 169 0 c 128,-1,35
 125 0 125 0 48 -3 c 1,36,-1
 36 51 l 1,37,38
 84 52 84 52 99.5 61 c 128,-1,39
 115 70 115 70 115 87 c 2,40,-1
 115 623 l 2,41,42
 115 641 115 641 101.5 650 c 128,-1,43
 88 659 88 659 48 659 c 1,44,-1
 35 713 l 1,45,46
 155 710 155 710 199.5 710 c 128,-1,47
 244 710 244 710 320 713 c 1,48,-1
 332 659 l 1,49,50
 284 658 284 658 268.5 649 c 128,-1,51
 253 640 253 640 253 623 c 2,0,-1
EndSplineSet
EndChar

StartChar: I
Encoding: 73 73 44
Width: 358
GlyphClass: 2
Flags: W
LayerCount: 2
Fore
SplineSet
248 623 m 2,0,-1
 248 87 l 2,1,2
 248 69 248 69 261.5 60 c 128,-1,3
 275 51 275 51 315 51 c 1,4,-1
 328 -3 l 1,5,6
 208 0 208 0 164 0 c 128,-1,7
 120 0 120 0 43 -3 c 1,8,-1
 31 51 l 1,9,10
 79 52 79 52 94.5 61 c 128,-1,11
 110 70 110 70 110 87 c 2,12,-1
 110 623 l 2,13,14
 110 641 110 641 96.5 650 c 128,-1,15
 83 659 83 659 43 659 c 1,16,-1
 30 713 l 1,17,18
 150 710 150 710 194.5 710 c 128,-1,19
 239 710 239 710 315 713 c 1,20,-1
 327 659 l 1,21,22
 279 658 279 658 263.5 649 c 128,-1,23
 248 640 248 640 248 623 c 2,0,-1
EndSplineSet
EndChar

StartChar: J
Encoding: 74 74 45
Width: 372
GlyphClass: 2
Flags: W
LayerCount: 2
Fore
SplineSet
263 623 m 2,0,-1
 263 66 l 2,1,2
 263 -52 263 -52 196.5 -133.5 c 128,-1,3
 130 -215 130 -215 40 -256 c 1,4,5
 31 -255 31 -255 26 -249 c 0,6,7
 15 -234 15 -234 15 -230 c 128,-1,8
 15 -226 15 -226 26 -219 c 0,9,10
 75 -183 75 -183 97.5 -112 c 128,-1,11
 120 -41 120 -41 121 80 c 2,12,-1
 125 623 l 2,13,14
 125 641 125 641 111.5 650 c 128,-1,15
 98 659 98 659 58 659 c 1,16,-1
 45 713 l 1,17,18
 165 710 165 710 209.5 710 c 128,-1,19
 254 710 254 710 330 713 c 1,20,-1
 342 659 l 1,21,22
 294 658 294 658 278.5 649 c 128,-1,23
 263 640 263 640 263 623 c 2,0,-1
EndSplineSet
EndChar

StartChar: K
Encoding: 75 75 46
Width: 722
GlyphClass: 2
Flags: W
LayerCount: 2
Fore
SplineSet
737 -3 m 1,0,-1
 610 0 l 1,1,2
 567 0 567 0 540 -1 c 1,3,4
 502 45 502 45 382 178.5 c 128,-1,5
 262 312 262 312 249 312 c 2,6,-1
 248 312 l 1,7,-1
 248 87 l 2,8,9
 248 69 248 69 261.5 60 c 128,-1,10
 275 51 275 51 315 51 c 1,11,-1
 328 -3 l 1,12,13
 208 0 208 0 164 0 c 128,-1,14
 120 0 120 0 43 -3 c 1,15,-1
 31 51 l 1,16,17
 79 52 79 52 94.5 61 c 128,-1,18
 110 70 110 70 110 87 c 2,19,-1
 110 623 l 2,20,21
 110 641 110 641 96.5 650 c 128,-1,22
 83 659 83 659 43 659 c 1,23,-1
 30 713 l 1,24,25
 150 710 150 710 194.5 710 c 128,-1,26
 239 710 239 710 315 713 c 1,27,-1
 327 659 l 1,28,29
 279 658 279 658 263.5 649 c 128,-1,30
 248 640 248 640 248 623 c 2,31,-1
 248 384 l 1,32,33
 309 442 309 442 398 538 c 128,-1,34
 487 634 487 634 487 646.5 c 128,-1,35
 487 659 487 659 421 659 c 1,36,-1
 408 713 l 1,37,38
 528 710 528 710 572 710 c 128,-1,39
 616 710 616 710 693 713 c 1,40,-1
 705 659 l 1,41,42
 603 656 603 656 575 626 c 2,43,-1
 353 389 l 1,44,-1
 632 87 l 1,45,46
 670 51 670 51 724 51 c 1,47,-1
 737 -3 l 1,0,-1
EndSplineSet
EndChar

StartChar: L
Encoding: 76 76 47
Width: 632
GlyphClass: 2
Flags: W
LayerCount: 2
Fore
SplineSet
329 -2 m 1,0,-1
 172 0 l 2,1,2
 118 0 118 0 42 -3 c 1,3,-1
 30 51 l 1,4,5
 78 52 78 52 93.5 61 c 128,-1,6
 109 70 109 70 109 87 c 2,7,-1
 113 623 l 2,8,9
 113 641 113 641 99.5 650 c 128,-1,10
 86 659 86 659 46 659 c 1,11,-1
 33 713 l 1,12,13
 153 710 153 710 197.5 710 c 128,-1,14
 242 710 242 710 318 713 c 1,15,-1
 330 659 l 1,16,17
 282 658 282 658 266.5 649 c 128,-1,18
 251 640 251 640 251 623 c 2,19,-1
 251 114 l 2,20,21
 251 61 251 61 300 61 c 2,22,-1
 394 61 l 2,23,24
 529 61 529 61 578 205 c 1,25,-1
 632 194 l 1,26,27
 632 177 632 177 603 88.5 c 128,-1,28
 574 0 574 0 560 0 c 2,29,-1
 329 -2 l 1,0,-1
EndSplineSet
EndChar

StartChar: M
Encoding: 77 77 48
Width: 992
GlyphClass: 2
Flags: W
LayerCount: 2
Fore
SplineSet
737 714 m 1,0,-1
 836 710 l 1,1,2
 873 710 873 710 949 713 c 1,3,-1
 961 659 l 1,4,5
 913 658 913 658 897.5 649 c 128,-1,6
 882 640 882 640 882 623 c 2,7,-1
 882 87 l 2,8,9
 882 69 882 69 895.5 60 c 128,-1,10
 909 51 909 51 949 51 c 1,11,-1
 962 -3 l 1,12,13
 842 0 842 0 798 0 c 128,-1,14
 754 0 754 0 677 -3 c 1,15,-1
 665 51 l 1,16,17
 713 52 713 52 728.5 61 c 128,-1,18
 744 70 744 70 744 87 c 2,19,-1
 744 503 l 1,20,21
 715 442 715 442 632 268.5 c 128,-1,22
 549 95 549 95 506 4 c 1,23,-1
 480 -8 l 1,24,-1
 216 524 l 1,25,-1
 216 87 l 2,26,27
 216 69 216 69 229.5 60 c 128,-1,28
 243 51 243 51 283 51 c 1,29,-1
 296 -3 l 1,30,31
 176 0 176 0 148 0 c 128,-1,32
 120 0 120 0 43 -3 c 1,33,-1
 31 51 l 1,34,35
 117 53 117 53 117 87 c 2,36,-1
 117 623 l 2,37,38
 117 659 117 659 43 659 c 1,39,-1
 30 713 l 1,40,41
 150 710 150 710 192 710 c 128,-1,42
 234 710 234 710 260 713 c 1,43,44
 279 657 279 657 329.5 558.5 c 128,-1,45
 380 460 380 460 394 427 c 1,46,47
 417 366 417 366 514 193 c 1,48,49
 554 283 554 283 584.5 354.5 c 128,-1,50
 615 426 615 426 637.5 475 c 128,-1,51
 660 524 660 524 680 570 c 0,52,53
 737 695 737 695 737 714 c 1,0,-1
EndSplineSet
EndChar

StartChar: N
Encoding: 78 78 49
Width: 826
GlyphClass: 2
Flags: W
LayerCount: 2
Fore
SplineSet
721 -4 m 1,0,1
 701 0 701 0 677.5 0 c 128,-1,2
 654 0 654 0 639 -3 c 1,3,-1
 216 534 l 1,4,-1
 216 87 l 2,5,6
 216 69 216 69 229.5 60 c 128,-1,7
 243 51 243 51 283 51 c 1,8,-1
 296 -3 l 1,9,10
 176 0 176 0 148 0 c 128,-1,11
 120 0 120 0 43 -3 c 1,12,-1
 31 51 l 1,13,14
 117 53 117 53 117 87 c 2,15,-1
 117 623 l 2,16,17
 117 659 117 659 43 659 c 1,18,-1
 30 713 l 1,19,20
 150 710 150 710 192 710 c 128,-1,21
 234 710 234 710 260 713 c 1,22,23
 260 701 260 701 274 680.5 c 128,-1,24
 288 660 288 660 297.5 645.5 c 128,-1,25
 307 631 307 631 322.5 610.5 c 128,-1,26
 338 590 338 590 349.5 575 c 128,-1,27
 361 560 361 560 379 538 c 0,28,29
 445 455 445 455 459.5 437 c 128,-1,30
 474 419 474 419 540.5 332.5 c 128,-1,31
 607 246 607 246 622 228 c 1,32,-1
 621 623 l 2,33,34
 621 641 621 641 607.5 650 c 128,-1,35
 594 659 594 659 554 659 c 1,36,-1
 541 713 l 1,37,38
 661 710 661 710 689.5 710 c 128,-1,39
 718 710 718 710 794 713 c 1,40,-1
 806 659 l 1,41,42
 720 657 720 657 720 623 c 2,43,-1
 721 -4 l 1,0,1
EndSplineSet
EndChar

StartChar: O
Encoding: 79 79 50
Width: 843
GlyphClass: 2
Flags: W
LayerCount: 2
Fore
SplineSet
146 86.5 m 128,-1,1
 40 185 40 185 40 342.5 c 128,-1,2
 40 500 40 500 153 611 c 128,-1,3
 266 722 266 722 430.5 722 c 128,-1,4
 595 722 595 722 699 622.5 c 128,-1,5
 803 523 803 523 803 364 c 128,-1,6
 803 205 803 205 692.5 96.5 c 128,-1,7
 582 -12 582 -12 417 -12 c 128,-1,0
 252 -12 252 -12 146 86.5 c 128,-1,1
303 108 m 0,8,9
 361 60 361 60 450 60 c 128,-1,10
 539 60 539 60 593.5 136 c 128,-1,11
 648 212 648 212 648 326 c 0,12,13
 648 467 648 467 585 560 c 128,-1,14
 522 653 522 653 403 653 c 0,15,16
 309 653 309 653 252 575 c 128,-1,17
 195 497 195 497 195 383 c 0,18,19
 195 196 195 196 303 108 c 0,8,9
EndSplineSet
EndChar

StartChar: P
Encoding: 80 80 51
Width: 599
GlyphClass: 2
Flags: W
LayerCount: 2
Fore
SplineSet
317 714 m 0,0,1
 435 714 435 714 509.5 665 c 128,-1,2
 584 616 584 616 584 518 c 0,3,4
 584 465 584 465 562 424.5 c 128,-1,5
 540 384 540 384 502 361 c 0,6,7
 428 315 428 315 328 315 c 0,8,9
 300 315 300 315 277 320 c 1,10,11
 266 329 266 329 266 348 c 128,-1,12
 266 367 266 367 274 376 c 1,13,14
 290 373 290 373 316 373 c 0,15,16
 376 373 376 373 413 412.5 c 128,-1,17
 450 452 450 452 450 523 c 0,18,19
 450 649 450 649 303 649 c 0,20,21
 248 649 248 649 248 642 c 2,22,-1
 248 87 l 2,23,24
 248 68 248 68 266.5 59.5 c 128,-1,25
 285 51 285 51 345 51 c 1,26,-1
 358 -3 l 1,27,28
 238 0 238 0 179 0 c 128,-1,29
 120 0 120 0 43 -3 c 1,30,-1
 31 51 l 1,31,32
 79 52 79 52 94.5 61 c 128,-1,33
 110 70 110 70 110 87 c 2,34,-1
 110 623 l 2,35,36
 110 641 110 641 96.5 650 c 128,-1,37
 83 659 83 659 43 659 c 1,38,-1
 30 713 l 1,39,40
 162 710 162 710 170 710 c 0,41,42
 297 714 297 714 317 714 c 0,0,1
EndSplineSet
EndChar

StartChar: Q
Encoding: 81 81 52
Width: 849
GlyphClass: 2
Flags: W
LayerCount: 2
Fore
SplineSet
40 345 m 0,0,1
 40 500 40 500 153 611 c 128,-1,2
 266 722 266 722 430.5 722 c 128,-1,3
 595 722 595 722 699 622.5 c 128,-1,4
 803 523 803 523 803 361 c 0,5,6
 803 238 803 238 731 139.5 c 128,-1,7
 659 41 659 41 532 2 c 1,8,9
 618 -7 618 -7 694 -44 c 1,10,11
 845 -115 845 -115 938 -115 c 0,12,13
 960 -115 960 -115 999 -110 c 128,-1,14
 1038 -105 1038 -105 1055.5 -98.5 c 128,-1,15
 1073 -92 1073 -92 1079 -95 c 128,-1,16
 1085 -98 1085 -98 1090 -105 c 2,17,-1
 1109 -130 l 1,18,19
 1063 -160 1063 -160 996 -180 c 128,-1,20
 929 -200 929 -200 866.5 -200 c 128,-1,21
 804 -200 804 -200 736 -181.5 c 128,-1,22
 668 -163 668 -163 628.5 -144.5 c 128,-1,23
 589 -126 589 -126 537 -97 c 1,24,-1
 538 -98 l 1,25,26
 492 -72 492 -72 449.5 -52 c 128,-1,27
 407 -32 407 -32 302 4 c 1,28,-1
 291 7 l 1,29,-1
 292 6 l 1,30,31
 175 39 175 39 107.5 129 c 128,-1,32
 40 219 40 219 40 345 c 0,0,1
303 108 m 0,33,34
 361 60 361 60 449.5 60 c 128,-1,35
 538 60 538 60 592.5 135.5 c 128,-1,36
 647 211 647 211 647 326 c 0,37,38
 647 467 647 467 584.5 560 c 128,-1,39
 522 653 522 653 403 653 c 0,40,41
 309 653 309 653 252 575 c 128,-1,42
 195 497 195 497 195 383 c 0,43,44
 195 196 195 196 303 108 c 0,33,34
EndSplineSet
EndChar

StartChar: R
Encoding: 82 82 53
Width: 715
GlyphClass: 2
Flags: W
LayerCount: 2
Fore
SplineSet
730 -3 m 1,0,-1
 631 0 l 2,1,2
 599 0 599 0 517 -2 c 1,3,4
 508 10 508 10 494.5 30.5 c 128,-1,5
 481 51 481 51 461.5 80.5 c 128,-1,6
 442 110 442 110 390.5 188 c 128,-1,7
 339 266 339 266 312 302 c 0,8,9
 312 303 312 303 313 303 c 2,10,-1
 248 303 l 1,11,-1
 248 87 l 2,12,13
 248 69 248 69 261.5 60 c 128,-1,14
 275 51 275 51 315 51 c 1,15,-1
 328 -3 l 1,16,17
 208 0 208 0 164 0 c 128,-1,18
 120 0 120 0 43 -3 c 1,19,-1
 31 51 l 1,20,21
 79 52 79 52 94.5 61 c 128,-1,22
 110 70 110 70 110 87 c 2,23,-1
 110 623 l 2,24,25
 110 641 110 641 96.5 650 c 128,-1,26
 83 659 83 659 43 659 c 1,27,-1
 30 713 l 1,28,29
 150 710 150 710 170 710 c 2,30,-1
 319 714 l 1,31,32
 437 714 437 714 511.5 665.5 c 128,-1,33
 586 617 586 617 586 518 c 0,34,35
 586 385 586 385 446 329 c 1,36,37
 488 274 488 274 507 246 c 1,38,-1
 506 246 l 1,39,40
 616 95 616 95 626 86 c 0,41,42
 662 52 662 52 711 49 c 1,43,-1
 730 -3 l 1,0,-1
248 643 m 2,44,-1
 248 358 l 1,45,46
 265 357 265 357 290 357 c 0,47,48
 369 357 369 357 409.5 400 c 128,-1,49
 450 443 450 443 450 512.5 c 128,-1,50
 450 582 450 582 409 616 c 128,-1,51
 368 650 368 650 308 650 c 128,-1,52
 248 650 248 650 248 643 c 2,44,-1
EndSplineSet
EndChar

StartChar: S
Encoding: 83 83 54
Width: 585
GlyphClass: 2
Flags: W
LayerCount: 2
Fore
SplineSet
177 99 m 128,-1,1
 217 60 217 60 281 60 c 128,-1,2
 345 60 345 60 374 90.5 c 128,-1,3
 403 121 403 121 403 166 c 128,-1,4
 403 211 403 211 367.5 245 c 128,-1,5
 332 279 332 279 281.5 304 c 128,-1,6
 231 329 231 329 180.5 357 c 128,-1,7
 130 385 130 385 94.5 430.5 c 128,-1,8
 59 476 59 476 59 536 c 0,9,10
 59 628 59 628 129 675 c 128,-1,11
 199 722 199 722 306.5 722 c 128,-1,12
 414 722 414 722 507 678 c 1,13,14
 517 658 517 658 517 593.5 c 128,-1,15
 517 529 517 529 512 493 c 1,16,-1
 449 495 l 1,17,18
 442 653 442 653 292 653 c 0,19,20
 252 653 252 653 226 629.5 c 128,-1,21
 200 606 200 606 200 569 c 128,-1,22
 200 532 200 532 225.5 504 c 128,-1,23
 251 476 251 476 289.5 456.5 c 128,-1,24
 328 437 328 437 372.5 411.5 c 128,-1,25
 417 386 417 386 455.5 360.5 c 128,-1,26
 494 335 494 335 519.5 293 c 128,-1,27
 545 251 545 251 545 200 c 0,28,29
 545 110 545 110 477.5 49 c 128,-1,30
 410 -12 410 -12 304 -12 c 128,-1,31
 198 -12 198 -12 68 35 c 1,32,33
 63 51 63 51 53.5 113 c 128,-1,34
 44 175 44 175 40 217 c 1,35,-1
 115 231 l 1,36,0
 137 138 137 138 177 99 c 128,-1,1
EndSplineSet
EndChar

StartChar: T
Encoding: 84 84 55
Width: 683
GlyphClass: 2
Flags: W
LayerCount: 2
Fore
SplineSet
455 643 m 2,0,-1
 400 643 l 1,1,-1
 400 87 l 2,2,3
 400 68 400 68 415 59.5 c 128,-1,4
 430 51 430 51 477 51 c 1,5,-1
 490 -3 l 1,6,7
 370 0 370 0 316 0 c 128,-1,8
 262 0 262 0 185 -3 c 1,9,-1
 173 51 l 1,10,11
 228 52 228 52 245 61 c 128,-1,12
 262 70 262 70 262 87 c 2,13,-1
 262 643 l 1,14,-1
 229 643 l 2,15,16
 138 643 138 643 114 620 c 1,17,18
 93 603 93 603 78 519 c 1,19,-1
 32 518 l 1,20,21
 22 567 22 567 22 620 c 128,-1,22
 22 673 22 673 34 718 c 1,23,24
 73 710 73 710 122 710 c 2,25,-1
 556 710 l 2,26,27
 623 710 623 710 657 718 c 1,28,29
 663 649 663 649 663 608.5 c 128,-1,30
 663 568 663 568 652 515 c 1,31,-1
 605 522 l 1,32,33
 594 602 594 602 569 620 c 0,34,35
 537 643 537 643 455 643 c 2,0,-1
EndSplineSet
EndChar

StartChar: U
Encoding: 85 85 56
Width: 788
GlyphClass: 2
Flags: W
LayerCount: 2
Fore
SplineSet
431 -12 m 0,0,1
 270 -12 270 -12 190 51 c 128,-1,2
 110 114 110 114 110 253 c 2,3,-1
 110 623 l 2,4,5
 110 641 110 641 96.5 650 c 128,-1,6
 83 659 83 659 43 659 c 1,7,-1
 30 713 l 1,8,9
 150 710 150 710 194.5 710 c 128,-1,10
 239 710 239 710 315 713 c 1,11,-1
 327 659 l 1,12,13
 279 658 279 658 263.5 649 c 128,-1,14
 248 640 248 640 248 623 c 2,15,-1
 248 265 l 2,16,17
 248 60 248 60 439 60 c 0,18,19
 511 60 511 60 546.5 110 c 128,-1,20
 582 160 582 160 582 251 c 2,21,-1
 582 623 l 2,22,23
 582 641 582 641 568.5 650 c 128,-1,24
 555 659 555 659 515 659 c 1,25,-1
 502 713 l 1,26,27
 622 710 622 710 651 710 c 128,-1,28
 680 710 680 710 756 713 c 1,29,-1
 768 659 l 1,30,31
 720 658 720 658 704.5 649 c 128,-1,32
 689 640 689 640 689 623 c 2,33,-1
 689 260 l 2,34,35
 689 -12 689 -12 431 -12 c 0,0,1
EndSplineSet
EndChar

StartChar: V
Encoding: 86 86 57
Width: 722
GlyphClass: 2
Flags: W
LayerCount: 2
Fore
SplineSet
593 710 m 1,0,-1
 715 713 l 1,1,-1
 722 660 l 1,2,3
 669 654 669 654 646 628 c 1,4,5
 627 605 627 605 611 562 c 2,6,-1
 402 0 l 1,7,-1
 317 0 l 1,8,-1
 104 577 l 2,9,10
 87 622 87 622 67 641 c 128,-1,11
 47 660 47 660 11 660 c 1,12,-1
 0 713 l 1,13,14
 46 710 46 710 159 710 c 128,-1,15
 272 710 272 710 303 713 c 1,16,-1
 312 660 l 1,17,18
 259 660 259 660 246.5 652.5 c 128,-1,19
 234 645 234 645 234 634 c 128,-1,20
 234 623 234 623 239 611 c 2,21,-1
 402 187 l 1,22,-1
 540 582 l 2,23,24
 544 593 544 593 544 603 c 0,25,26
 544 624 544 624 519 641.5 c 128,-1,27
 494 659 494 659 442 660 c 1,28,-1
 432 713 l 1,29,-1
 593 710 l 1,0,-1
EndSplineSet
EndChar

StartChar: W
Encoding: 87 87 58
Width: 1078
GlyphClass: 2
Flags: W
LayerCount: 2
Fore
SplineSet
164 710 m 1,0,-1
 303 713 l 1,1,-1
 312 659 l 1,2,3
 259 659 259 659 246.5 652 c 128,-1,4
 234 645 234 645 234 634 c 128,-1,5
 234 623 234 623 239 611 c 2,6,-1
 402 187 l 1,7,-1
 500 468 l 1,8,-1
 460 577 l 2,9,10
 443 622 443 622 423 640.5 c 128,-1,11
 403 659 403 659 367 659 c 1,12,-1
 356 712 l 1,13,14
 456 710 456 710 511 710 c 128,-1,15
 566 710 566 710 659 713 c 1,16,-1
 668 659 l 1,17,18
 615 659 615 659 602.5 652 c 128,-1,19
 590 645 590 645 590 634 c 128,-1,20
 590 623 590 623 595 611 c 2,21,-1
 758 187 l 1,22,-1
 896 582 l 2,23,24
 900 593 900 593 900 603 c 0,25,26
 900 624 900 624 875 641 c 128,-1,27
 850 658 850 658 798 659 c 1,28,-1
 788 713 l 1,29,-1
 949 710 l 1,30,-1
 1071 713 l 1,31,-1
 1078 659 l 1,32,33
 1043 656 1043 656 1021 642 c 128,-1,34
 999 628 999 628 989 611.5 c 128,-1,35
 979 595 979 595 967 562 c 2,36,-1
 758 0 l 1,37,-1
 673 0 l 1,38,-1
 538 365 l 1,39,-1
 402 0 l 1,40,-1
 317 0 l 1,41,-1
 104 577 l 2,42,43
 87 622 87 622 67 640.5 c 128,-1,44
 47 659 47 659 11 659 c 1,45,-1
 0 713 l 1,46,47
 46 710 46 710 164 710 c 1,0,-1
EndSplineSet
EndChar

StartChar: X
Encoding: 88 88 59
Width: 755
GlyphClass: 2
Flags: W
LayerCount: 2
Fore
SplineSet
297 -3 m 1,0,-1
 143 0 l 1,1,-1
 14 -3 l 1,2,-1
 0 52 l 1,3,4
 5 52 5 52 15 54 c 128,-1,5
 25 56 25 56 33.5 57.5 c 128,-1,6
 42 59 42 59 46 60.5 c 128,-1,7
 50 62 50 62 57.5 64.5 c 128,-1,8
 65 67 65 67 70 70 c 128,-1,9
 75 73 75 73 81 77 c 0,10,11
 91 84 91 84 103 98 c 2,12,-1
 304 343 l 1,13,-1
 123 578 l 1,14,15
 94 621 94 621 70.5 639.5 c 128,-1,16
 47 658 47 658 14 658 c 1,17,-1
 3 713 l 1,18,19
 49 710 49 710 171.5 710 c 128,-1,20
 294 710 294 710 326 713 c 1,21,-1
 338 658 l 1,22,23
 295 658 295 658 278.5 648.5 c 128,-1,24
 262 639 262 639 262 630.5 c 128,-1,25
 262 622 262 622 268 613 c 2,26,-1
 385 451 l 1,27,-1
 508 599 l 1,28,29
 519 615 519 615 519 624.5 c 128,-1,30
 519 634 519 634 514 640 c 0,31,32
 501 653 501 653 457 658 c 1,33,-1
 446 713 l 1,34,-1
 599 710 l 1,35,-1
 729 714 l 1,36,-1
 741 658 l 1,37,38
 663 658 663 658 625 610 c 1,39,-1
 436 384 l 1,40,-1
 635 122 l 2,41,42
 665 82 665 82 685.5 67 c 128,-1,43
 706 52 706 52 740 52 c 1,44,-1
 755 -3 l 1,45,46
 694 1 694 1 590 1 c 128,-1,47
 486 1 486 1 433 -4 c 1,48,-1
 419 52 l 1,49,50
 466 52 466 52 480.5 57 c 128,-1,51
 495 62 495 62 495 72 c 0,52,53
 495 79 495 79 490 88 c 2,54,-1
 366 277 l 1,55,-1
 223 101 l 2,56,57
 205 78 205 78 231 62 c 0,58,59
 244 55 244 55 281 51 c 1,60,-1
 297 -3 l 1,0,-1
EndSplineSet
EndChar

StartChar: Y
Encoding: 89 89 60
Width: 763
GlyphClass: 2
Flags: W
LayerCount: 2
Fore
SplineSet
322 660 m 1,0,1
 256 660 256 660 256 640 c 0,2,3
 256 629 256 629 269 612 c 1,4,-1
 405 387 l 1,5,-1
 544 582 l 1,6,7
 564 607 564 607 564 623 c 128,-1,8
 564 639 564 639 548 649.5 c 128,-1,9
 532 660 532 660 493 660 c 1,10,-1
 483 713 l 1,11,-1
 634 710 l 1,12,-1
 756 713 l 1,13,-1
 763 660 l 1,14,15
 736 660 736 660 709 644 c 128,-1,16
 682 628 682 628 666.5 611.5 c 128,-1,17
 651 595 651 595 624 562 c 1,18,-1
 457 334 l 1,19,-1
 458 87 l 2,20,21
 458 69 458 69 471.5 60 c 128,-1,22
 485 51 485 51 525 51 c 1,23,-1
 538 -3 l 1,24,25
 418 0 418 0 374 0 c 128,-1,26
 330 0 330 0 253 -3 c 1,27,-1
 241 51 l 1,28,29
 289 52 289 52 304.5 61 c 128,-1,30
 320 70 320 70 320 87 c 2,31,-1
 320 310 l 1,32,-1
 134 578 l 1,33,34
 73 660 73 660 11 660 c 1,35,-1
 0 713 l 1,36,37
 46 710 46 710 164 710 c 128,-1,38
 282 710 282 710 313 713 c 1,39,-1
 322 660 l 1,0,1
EndSplineSet
EndChar

StartChar: Z
Encoding: 90 90 61
Width: 685
GlyphClass: 2
Flags: W
LayerCount: 2
Fore
SplineSet
432 0 m 2,0,-1
 132 0 l 2,1,2
 69 0 69 0 31 -11 c 1,3,4
 15 16 15 16 15 18 c 1,5,-1
 460 647 l 1,6,-1
 262 647 l 2,7,8
 180 647 180 647 154 622 c 1,9,10
 133 604 133 604 118 522 c 1,11,-1
 65 520 l 1,12,13
 56 566 56 566 56 624.5 c 128,-1,14
 56 683 56 683 68 722 c 1,15,16
 109 710 109 710 154 710 c 2,17,-1
 556 710 l 2,18,19
 602 710 602 710 644 722 c 1,20,21
 657 697 657 697 657 692 c 1,22,23
 431 380 431 380 264 134 c 1,24,25
 230 82 230 82 224 69 c 1,26,-1
 518 69 l 2,27,28
 556 69 556 69 574.5 99.5 c 128,-1,29
 593 130 593 130 602 204 c 1,30,-1
 659 211 l 1,31,32
 665 152 665 152 665 97 c 128,-1,33
 665 42 665 42 655 -4 c 1,34,35
 555 0 555 0 432 0 c 2,0,-1
EndSplineSet
EndChar

StartChar: bracketleft
Encoding: 91 91 62
Width: 336
GlyphClass: 2
Flags: W
LayerCount: 2
Fore
SplineSet
373 -341 m 1,0,-1
 340 -340 l 1,1,2
 258 -335 258 -335 122 -335 c 0,3,4
 96 -335 96 -335 96 -310 c 2,5,-1
 96 794 l 2,6,7
 96 820 96 820 121 820 c 0,8,9
 208 820 208 820 372 826 c 1,10,-1
 380 764 l 1,11,12
 354 764 354 764 322.5 764 c 128,-1,13
 291 764 291 764 260 762.5 c 128,-1,14
 229 761 229 761 220.5 757.5 c 128,-1,15
 212 754 212 754 212 745 c 2,16,-1
 212 -260 l 2,17,18
 212 -272 212 -272 247 -275.5 c 128,-1,19
 282 -279 282 -279 380 -279 c 1,20,-1
 373 -341 l 1,0,-1
EndSplineSet
EndChar

StartChar: backslash
Encoding: 92 92 63
Width: 373
GlyphClass: 2
Flags: W
LayerCount: 2
Fore
SplineSet
355 -61 m 1,0,1
 344 -65 344 -65 329 -65 c 128,-1,2
 314 -65 314 -65 286.5 -61 c 128,-1,3
 259 -57 259 -57 252 -46 c 1,4,-1
 -51 743 l 1,5,6
 -34 749 -34 749 -19 749 c 0,7,8
 25 749 25 749 52 740 c 1,9,-1
 355 -61 l 1,0,1
EndSplineSet
EndChar

StartChar: bracketright
Encoding: 93 93 64
Width: 336
GlyphClass: 2
Flags: W
LayerCount: 2
Fore
SplineSet
14 -340 m 1,0,-1
 -19 -341 l 1,1,-1
 -26 -279 l 1,2,3
 72 -279 72 -279 107 -275.5 c 128,-1,4
 142 -272 142 -272 142 -260 c 2,5,-1
 142 745 l 2,6,7
 142 754 142 754 134 758 c 1,8,9
 117 764 117 764 58.5 764 c 128,-1,10
 0 764 0 764 -26 764 c 1,11,-1
 -18 826 l 1,12,13
 145 820 145 820 233 820 c 0,14,15
 258 820 258 820 258 794 c 2,16,-1
 258 -310 l 2,17,18
 258 -335 258 -335 232 -335 c 0,19,20
 96 -335 96 -335 14 -340 c 1,0,-1
EndSplineSet
EndChar

StartChar: asciicircum
Encoding: 94 94 65
Width: 833
GlyphClass: 2
Flags: W
LayerCount: 2
Fore
SplineSet
229 691 m 1,0,-1
 290 693 l 2,1,2
 302 693 302 693 311 676 c 2,3,-1
 498 322 l 1,4,5
 498 312 498 312 486.5 303.5 c 128,-1,6
 475 295 475 295 439 282 c 1,7,-1
 265 584 l 1,8,-1
 101 271 l 1,9,10
 57 286 57 286 49 294.5 c 128,-1,11
 41 303 41 303 41 309 c 1,12,-1
 229 691 l 1,0,-1
EndSplineSet
EndChar

StartChar: underscore
Encoding: 95 95 66
Width: 600
GlyphClass: 2
Flags: W
LayerCount: 2
Fore
SplineSet
4 -2 m 1,0,1
 4 -2 4 -2 307 -4 c 1,2,-1
 577 -2 l 1,3,4
 587 -12 587 -12 593.5 -36 c 128,-1,5
 600 -60 600 -60 600 -77 c 1,6,-1
 306 -74 l 1,7,-1
 17 -77 l 1,8,9
 9 -69 9 -69 5 -51.5 c 128,-1,10
 1 -34 1 -34 1 -23 c 128,-1,11
 1 -12 1 -12 4 -2 c 1,0,1
EndSplineSet
EndChar

StartChar: grave
Encoding: 96 96 67
Width: 266
GlyphClass: 2
Flags: W
LayerCount: 2
Fore
SplineSet
25 656 m 2,0,1
 24 657 24 657 24 659 c 128,-1,2
 24 661 24 661 28 664 c 0,3,4
 89 703 89 703 137 703 c 1,5,-1
 224 522 l 1,6,7
 218 500 218 500 188 493 c 1,8,-1
 25 656 l 2,0,1
EndSplineSet
EndChar

StartChar: a
Encoding: 97 97 68
Width: 457
GlyphClass: 2
Flags: W
LayerCount: 2
Fore
SplineSet
166 152.5 m 128,-1,1
 143 135 143 135 143 111.5 c 128,-1,2
 143 88 143 88 159.5 74 c 128,-1,3
 176 60 176 60 203 60 c 128,-1,4
 230 60 230 60 254 82 c 1,5,-1
 252 183 l 1,6,0
 189 170 189 170 166 152.5 c 128,-1,1
439 69 m 1,7,-1
 447 28 l 1,8,9
 430 21 430 21 376.5 4.5 c 128,-1,10
 323 -12 323 -12 310 -12 c 128,-1,11
 297 -12 297 -12 291 -9 c 128,-1,12
 285 -6 285 -6 280 2 c 128,-1,13
 275 10 275 10 273 14.5 c 128,-1,14
 271 19 271 19 267 31.5 c 128,-1,15
 263 44 263 44 262 47 c 1,16,17
 208 -12 208 -12 139 -12 c 0,18,19
 94 -12 94 -12 63 16.5 c 128,-1,20
 32 45 32 45 32 87 c 0,21,22
 32 144 32 144 77.5 171.5 c 128,-1,23
 123 199 123 199 249 226 c 1,24,-1
 249 262 l 2,25,26
 249 320 249 320 236 348.5 c 128,-1,27
 223 377 223 377 190.5 377 c 128,-1,28
 158 377 158 377 140 367 c 1,29,-1
 140 303 l 2,30,31
 140 297 140 297 108 291 c 128,-1,32
 76 285 76 285 61 285 c 128,-1,33
 46 285 46 285 46 321 c 0,34,35
 46 338 46 338 52 357 c 128,-1,36
 58 376 58 376 65 384 c 0,37,38
 83 404 83 404 142.5 426 c 128,-1,39
 202 448 202 448 233 448 c 0,40,41
 298 448 298 448 334.5 408 c 128,-1,42
 371 368 371 368 371 290 c 2,43,-1
 371 87 l 2,44,45
 371 68 371 68 387 68 c 2,46,-1
 414 69 l 1,47,-1
 439 69 l 1,7,-1
EndSplineSet
EndChar

StartChar: b
Encoding: 98 98 69
Width: 556
GlyphClass: 2
Flags: W
LayerCount: 2
Fore
SplineSet
198 107 m 2,0,1
 198 83 198 83 228.5 66.5 c 128,-1,2
 259 50 259 50 296 50 c 0,3,4
 345 50 345 50 369 94.5 c 128,-1,5
 393 139 393 139 393 201 c 0,6,7
 393 375 393 375 290 375 c 0,8,9
 268 375 268 375 240 367 c 128,-1,10
 212 359 212 359 198 348 c 1,11,-1
 198 107 l 2,0,1
198 391 m 1,12,13
 258 448 258 448 336 448 c 128,-1,14
 414 448 414 448 469 385.5 c 128,-1,15
 524 323 524 323 524 233 c 0,16,17
 524 123 524 123 459.5 55.5 c 128,-1,18
 395 -12 395 -12 290 -12 c 0,19,20
 231 -12 231 -12 159 23 c 1,21,-1
 129 -5 l 2,22,23
 120 -13 120 -13 107 -10 c 2,24,-1
 95 -7 l 2,25,26
 77 -2 77 -2 78.5 18 c 128,-1,27
 80 38 80 38 80 129 c 2,28,-1
 78 619 l 2,29,30
 78 656 78 656 66 666 c 128,-1,31
 54 676 54 676 38.5 676 c 128,-1,32
 23 676 23 676 13 675 c 1,33,-1
 0 713 l 1,34,35
 91 736 91 736 167 766 c 1,36,37
 186 766 186 766 191.5 758.5 c 128,-1,38
 197 751 197 751 197 737 c 2,39,-1
 198 391 l 1,12,13
EndSplineSet
EndChar

StartChar: c
Encoding: 99 99 70
Width: 459
GlyphClass: 2
Flags: W
LayerCount: 2
Fore
SplineSet
190 347 m 128,-1,1
 165 307 165 307 165 237.5 c 128,-1,2
 165 168 165 168 198.5 113.5 c 128,-1,3
 232 59 232 59 298 59 c 128,-1,4
 364 59 364 59 416 106 c 0,5,6
 423 113 423 113 428 107 c 2,7,-1
 444 85 l 1,8,9
 410 42 410 42 360 15 c 128,-1,10
 310 -12 310 -12 257 -12 c 0,11,12
 155 -12 155 -12 95 50.5 c 128,-1,13
 35 113 35 113 35 207 c 0,14,15
 35 322 35 322 101 385 c 128,-1,16
 167 448 167 448 261 448 c 0,17,18
 308 448 308 448 362.5 430 c 128,-1,19
 417 412 417 412 436 393 c 0,20,21
 437 391 437 391 437 388 c 0,22,23
 437 372 437 372 401 321 c 0,24,25
 397 317 397 317 390 317 c 128,-1,26
 383 317 383 317 364 334 c 0,27,28
 309 387 309 387 262 387 c 128,-1,0
 215 387 215 387 190 347 c 128,-1,1
EndSplineSet
EndChar

StartChar: d
Encoding: 100 100 71
Width: 568
GlyphClass: 2
Flags: W
LayerCount: 2
Fore
SplineSet
357 44 m 1,0,1
 305 -12 305 -12 227 -12 c 128,-1,2
 149 -12 149 -12 92 45.5 c 128,-1,3
 35 103 35 103 35 198 c 0,4,5
 35 314 35 314 101.5 381 c 128,-1,6
 168 448 168 448 249 448 c 0,7,8
 299 448 299 448 350 429 c 1,9,-1
 350 619 l 2,10,11
 350 656 350 656 337 666 c 128,-1,12
 324 676 324 676 305.5 676 c 128,-1,13
 287 676 287 676 275 675 c 1,14,-1
 262 713 l 1,15,16
 370 737 370 737 444 766 c 1,17,18
 463 766 463 766 468.5 758.5 c 128,-1,19
 474 751 474 751 474 737 c 2,20,-1
 474 113 l 2,21,22
 474 90 474 90 478 82 c 0,23,24
 484 68 484 68 518 68 c 2,25,-1
 533 68 l 1,26,-1
 554 69 l 1,27,-1
 563 17 l 1,28,29
 456 11 456 11 376 -12 c 1,30,31
 357 -12 357 -12 357 -1 c 2,32,-1
 357 44 l 1,0,1
197.5 109.5 m 128,-1,34
 229 66 229 66 269 66 c 128,-1,35
 309 66 309 66 350 95 c 1,36,-1
 350 300 l 2,37,38
 350 336 350 336 326.5 356.5 c 128,-1,39
 303 377 303 377 264 377 c 0,40,41
 166 377 166 377 166 229 c 0,42,33
 166 153 166 153 197.5 109.5 c 128,-1,34
EndSplineSet
EndChar

StartChar: e
Encoding: 101 101 72
Width: 476
GlyphClass: 2
Flags: W
LayerCount: 2
Fore
SplineSet
437 236 m 2,0,-1
 165 236 l 1,1,2
 165 178 165 178 187 127 c 0,3,4
 200 97 200 97 229.5 78 c 128,-1,5
 259 59 259 59 297 59 c 128,-1,6
 335 59 335 59 367.5 74.5 c 128,-1,7
 400 90 400 90 411.5 101.5 c 128,-1,8
 423 113 423 113 428 107 c 2,9,-1
 444 85 l 1,10,11
 410 43 410 43 359.5 15.5 c 128,-1,12
 309 -12 309 -12 261 -12 c 0,13,14
 153 -12 153 -12 94 49.5 c 128,-1,15
 35 111 35 111 35 215.5 c 128,-1,16
 35 320 35 320 101 384 c 128,-1,17
 167 448 167 448 252 448 c 128,-1,18
 337 448 337 448 391.5 399 c 128,-1,19
 446 350 446 350 446 251 c 0,20,21
 446 236 446 236 437 236 c 2,0,-1
331 296 m 1,22,23
 331 387 331 387 256 387 c 0,24,25
 219 387 219 387 196 359 c 128,-1,26
 173 331 173 331 169 296 c 1,27,-1
 331 296 l 1,22,23
EndSplineSet
EndChar

StartChar: f
Encoding: 102 102 73
Width: 374
GlyphClass: 2
Flags: W
LayerCount: 2
Fore
SplineSet
95 76 m 2,0,-1
 95 361 l 1,1,-1
 45 361 l 1,2,3
 32 389 32 389 32 402 c 1,4,5
 51 404 51 404 95 416 c 1,6,-1
 95 434 l 2,7,8
 95 515 95 515 125.5 590.5 c 128,-1,9
 156 666 156 666 215 716 c 128,-1,10
 274 766 274 766 346 766 c 0,11,12
 384 766 384 766 420.5 752 c 128,-1,13
 457 738 457 738 473 717 c 0,14,15
 474 715 474 715 474 709.5 c 128,-1,16
 474 704 474 704 462.5 681.5 c 128,-1,17
 451 659 451 659 434 645 c 0,18,19
 430 641 430 641 423 641 c 1,20,21
 417 644 417 644 396 659 c 0,22,23
 343 698 343 698 303 698 c 0,24,25
 220 698 220 698 220 554 c 2,26,-1
 220 424 l 1,27,-1
 336 424 l 1,28,29
 338 415 338 415 338 399 c 128,-1,30
 338 383 338 383 325 361 c 1,31,-1
 220 361 l 1,32,-1
 219 76 l 2,33,34
 219 60 219 60 230.5 52.5 c 128,-1,35
 242 45 242 45 278 45 c 1,36,-1
 289 -3 l 1,37,38
 184 0 184 0 143 0 c 128,-1,39
 102 0 102 0 35 -3 c 1,40,-1
 25 45 l 1,41,42
 66 46 66 46 80.5 53.5 c 128,-1,43
 95 61 95 61 95 76 c 2,0,-1
EndSplineSet
EndChar

StartChar: g
Encoding: 103 103 74
Width: 525
GlyphClass: 2
Flags: W
LayerCount: 2
Fore
SplineSet
194.5 219.5 m 128,-1,1
 219 188 219 188 256 188 c 128,-1,2
 293 188 293 188 312.5 218 c 128,-1,3
 332 248 332 248 332 289.5 c 128,-1,4
 332 331 332 331 308.5 361 c 128,-1,5
 285 391 285 391 246 391 c 128,-1,6
 207 391 207 391 188.5 364 c 128,-1,7
 170 337 170 337 170 294 c 128,-1,0
 170 251 170 251 194.5 219.5 c 128,-1,1
437 294 m 0,8,9
 437 217 437 217 382.5 169 c 128,-1,10
 328 121 328 121 248 121 c 2,11,-1
 203 121 l 1,12,13
 172 113 172 113 172 97 c 128,-1,14
 172 81 172 81 207 75 c 1,15,16
 237 66 237 66 310 61 c 1,17,18
 399 52 399 52 422 43 c 0,19,20
 496 15 496 15 496 -66.5 c 128,-1,21
 496 -148 496 -148 416 -207.5 c 128,-1,22
 336 -267 336 -267 237.5 -267 c 128,-1,23
 139 -267 139 -267 79.5 -232.5 c 128,-1,24
 20 -198 20 -198 20 -122 c 0,25,26
 20 -91 20 -91 41 -70 c 0,27,28
 49 -62 49 -62 127 -10 c 1,29,30
 105 0 105 0 86.5 23.5 c 128,-1,31
 68 47 68 47 68 63 c 128,-1,32
 68 79 68 79 76 87 c 128,-1,33
 84 95 84 95 121.5 117.5 c 128,-1,34
 159 140 159 140 160 141 c 1,35,36
 120 155 120 155 90.5 193.5 c 128,-1,37
 61 232 61 232 61 279 c 0,38,39
 61 349 61 349 111.5 398.5 c 128,-1,40
 162 448 162 448 244 448 c 0,41,42
 268 448 268 448 327 439.5 c 128,-1,43
 386 431 386 431 435.5 431 c 128,-1,44
 485 431 485 431 504 434 c 1,45,46
 504 431 504 431 504 423 c 0,47,48
 504 379 504 379 490 354 c 1,49,-1
 404 370 l 1,50,51
 418 362 418 362 427.5 337.5 c 128,-1,52
 437 313 437 313 437 294 c 0,8,9
341.5 -176 m 128,-1,54
 372 -149 372 -149 372 -108 c 0,55,56
 372 -29 372 -29 217 -29 c 0,57,58
 199 -29 199 -29 187 -36 c 0,59,60
 139 -67 139 -67 139 -118 c 0,61,62
 139 -157 139 -157 170.5 -180 c 128,-1,63
 202 -203 202 -203 256.5 -203 c 128,-1,53
 311 -203 311 -203 341.5 -176 c 128,-1,54
EndSplineSet
EndChar

StartChar: h
Encoding: 104 104 75
Width: 608
GlyphClass: 2
Flags: W
LayerCount: 2
Fore
SplineSet
220 737 m 2,0,-1
 220 388 l 1,1,2
 296 428 296 428 331 438 c 128,-1,3
 366 448 366 448 391 448 c 0,4,5
 449 448 449 448 485 406 c 128,-1,6
 521 364 521 364 521 284 c 2,7,-1
 521 76 l 2,8,9
 521 60 521 60 532.5 52.5 c 128,-1,10
 544 45 544 45 580 45 c 1,11,-1
 591 -3 l 1,12,13
 486 0 486 0 445 0 c 128,-1,14
 404 0 404 0 337 -3 c 1,15,-1
 327 45 l 1,16,17
 368 46 368 46 382.5 53.5 c 128,-1,18
 397 61 397 61 397 76 c 2,19,-1
 397 254 l 2,20,21
 397 307 397 307 379.5 332.5 c 128,-1,22
 362 358 362 358 318 358 c 128,-1,23
 274 358 274 358 220 335 c 1,24,-1
 220 76 l 2,25,26
 220 45 220 45 284 45 c 1,27,-1
 295 -3 l 1,28,29
 190 0 190 0 149 0 c 128,-1,30
 108 0 108 0 41 -3 c 1,31,-1
 31 45 l 1,32,33
 72 46 72 46 86.5 53.5 c 128,-1,34
 101 61 101 61 101 76 c 2,35,-1
 101 619 l 2,36,37
 101 656 101 656 89 666 c 128,-1,38
 77 676 77 676 61.5 676 c 128,-1,39
 46 676 46 676 36 675 c 1,40,-1
 23 713 l 1,41,42
 114 736 114 736 190 766 c 1,43,44
 209 766 209 766 214.5 758.5 c 128,-1,45
 220 751 220 751 220 737 c 2,0,-1
EndSplineSet
EndChar

StartChar: i
Encoding: 105 105 76
Width: 319
GlyphClass: 2
Flags: W
LayerCount: 2
Fore
SplineSet
234 433 m 2,0,-1
 234 76 l 2,1,2
 234 60 234 60 245.5 52.5 c 128,-1,3
 257 45 257 45 293 45 c 1,4,-1
 304 -3 l 1,5,6
 199 0 199 0 158.5 0 c 128,-1,7
 118 0 118 0 51 -3 c 1,8,-1
 41 45 l 1,9,10
 82 46 82 46 96 53.5 c 128,-1,11
 110 61 110 61 110 76 c 2,12,-1
 110 316 l 2,13,14
 110 339 110 339 98 351.5 c 128,-1,15
 86 364 86 364 50 364 c 2,16,-1
 37 364 l 1,17,-1
 23 405 l 1,18,19
 113 426 113 426 201 456 c 1,20,21
 222 456 222 456 228 451.5 c 128,-1,22
 234 447 234 447 234 433 c 2,0,-1
123 569 m 128,-1,24
 103 587 103 587 103 615 c 128,-1,25
 103 643 103 643 124.5 664 c 128,-1,26
 146 685 146 685 173 685 c 128,-1,27
 200 685 200 685 220 667 c 128,-1,28
 240 649 240 649 240 621 c 128,-1,29
 240 593 240 593 218.5 572 c 128,-1,30
 197 551 197 551 170 551 c 128,-1,23
 143 551 143 551 123 569 c 128,-1,24
EndSplineSet
EndChar

StartChar: j
Encoding: 106 106 77
Width: 272
GlyphClass: 2
Flags: W
LayerCount: 2
Fore
SplineSet
31 -267 m 1,0,1
 20 -267 20 -267 10 -254 c 128,-1,2
 0 -241 0 -241 0 -237.5 c 128,-1,3
 0 -234 0 -234 5 -230 c 0,4,5
 60 -180 60 -180 76.5 -110 c 128,-1,6
 93 -40 93 -40 94 63 c 2,7,-1
 96 317 l 2,8,9
 96 343 96 343 84.5 354 c 128,-1,10
 73 365 73 365 36 365 c 2,11,-1
 23 365 l 1,12,-1
 9 406 l 1,13,14
 99 427 99 427 187 457 c 1,15,16
 208 457 208 457 214 452.5 c 128,-1,17
 220 448 220 448 220 434 c 2,18,-1
 219 62 l 2,19,20
 219 -45 219 -45 163.5 -141.5 c 128,-1,21
 108 -238 108 -238 31 -267 c 1,0,1
105 569 m 128,-1,23
 85 587 85 587 85 615 c 128,-1,24
 85 643 85 643 106.5 664 c 128,-1,25
 128 685 128 685 155 685 c 128,-1,26
 182 685 182 685 202 667 c 128,-1,27
 222 649 222 649 222 621 c 128,-1,28
 222 593 222 593 200.5 572 c 128,-1,29
 179 551 179 551 152 551 c 128,-1,22
 125 551 125 551 105 569 c 128,-1,23
EndSplineSet
EndChar

StartChar: k
Encoding: 107 107 78
Width: 552
GlyphClass: 2
Flags: W
LayerCount: 2
Fore
SplineSet
225 737 m 2,0,-1
 225 257 l 1,1,2
 296 320 296 320 333 366 c 0,3,4
 341 377 341 377 332.5 381 c 128,-1,5
 324 385 324 385 307 385 c 1,6,-1
 296 433 l 1,7,8
 401 430 401 430 421.5 430 c 128,-1,9
 442 430 442 430 510 433 c 1,10,-1
 520 385 l 1,11,12
 510 386 510 386 500 386 c 0,13,14
 459 386 459 386 436 365 c 1,15,-1
 325 251 l 1,16,17
 348 218 348 218 392.5 168 c 128,-1,18
 437 118 437 118 468 89 c 1,19,20
 519 45 519 45 558 45 c 0,21,22
 562 45 562 45 566 45 c 1,23,-1
 577 -3 l 1,24,25
 547 0 547 0 497.5 0 c 128,-1,26
 448 0 448 0 388 -3 c 1,27,28
 365 32 365 32 306 110 c 128,-1,29
 247 188 247 188 225 196 c 1,30,-1
 225 76 l 2,31,32
 225 60 225 60 236.5 52.5 c 128,-1,33
 248 45 248 45 284 45 c 1,34,-1
 295 -3 l 1,35,36
 190 0 190 0 149 0 c 128,-1,37
 108 0 108 0 41 -3 c 1,38,-1
 31 45 l 1,39,40
 72 46 72 46 86.5 53.5 c 128,-1,41
 101 61 101 61 101 76 c 2,42,-1
 101 619 l 2,43,44
 101 656 101 656 89 666 c 128,-1,45
 77 676 77 676 61.5 676 c 128,-1,46
 46 676 46 676 36 675 c 1,47,-1
 23 713 l 1,48,49
 129 740 129 740 195 766 c 1,50,51
 214 766 214 766 219.5 758.5 c 128,-1,52
 225 751 225 751 225 737 c 2,0,-1
EndSplineSet
EndChar

StartChar: l
Encoding: 108 108 79
Width: 325
GlyphClass: 2
Flags: W
LayerCount: 2
Fore
SplineSet
225 737 m 2,0,-1
 225 76 l 2,1,2
 225 60 225 60 236.5 52.5 c 128,-1,3
 248 45 248 45 284 45 c 1,4,-1
 295 -3 l 1,5,6
 190 0 190 0 149 0 c 128,-1,7
 108 0 108 0 41 -3 c 1,8,-1
 31 45 l 1,9,10
 72 46 72 46 86.5 53.5 c 128,-1,11
 101 61 101 61 101 76 c 2,12,-1
 101 619 l 2,13,14
 101 656 101 656 89 666 c 128,-1,15
 77 676 77 676 61.5 676 c 128,-1,16
 46 676 46 676 36 675 c 1,17,-1
 23 713 l 1,18,19
 129 740 129 740 195 766 c 1,20,21
 214 766 214 766 219.5 758.5 c 128,-1,22
 225 751 225 751 225 737 c 2,0,-1
EndSplineSet
EndChar

StartChar: m
Encoding: 109 109 80
Width: 850
GlyphClass: 2
Flags: W
LayerCount: 2
Fore
SplineSet
446.5 429 m 128,-1,1
 478 410 478 410 485 391 c 1,2,3
 494 395 494 395 514.5 405.5 c 128,-1,4
 535 416 535 416 547 421.5 c 128,-1,5
 559 427 559 427 577 434 c 0,6,7
 609 448 609 448 644 448 c 0,8,9
 707 448 707 448 743.5 407.5 c 128,-1,10
 780 367 780 367 780 289 c 2,11,-1
 780 76 l 2,12,13
 780 67 780 67 781.5 61.5 c 128,-1,14
 783 56 783 56 793 50.5 c 128,-1,15
 803 45 803 45 822 45 c 1,16,-1
 833 -3 l 1,17,18
 728 0 728 0 701 0 c 128,-1,19
 674 0 674 0 607 -3 c 1,20,-1
 597 45 l 1,21,22
 631 46 631 46 643 53.5 c 128,-1,23
 655 61 655 61 656 76 c 1,24,-1
 656 256 l 2,25,26
 656 311 656 311 637 334.5 c 128,-1,27
 618 358 618 358 578 358 c 128,-1,28
 538 358 538 358 498 340 c 1,29,30
 501 322 501 322 501 289 c 2,31,-1
 499 76 l 2,32,33
 499 67 499 67 500.5 61.5 c 128,-1,34
 502 56 502 56 512 50.5 c 128,-1,35
 522 45 522 45 541 45 c 1,36,-1
 552 -3 l 1,37,38
 447 0 447 0 420 0 c 128,-1,39
 393 0 393 0 326 -3 c 1,40,-1
 316 45 l 1,41,42
 350 46 350 46 362 53.5 c 128,-1,43
 374 61 374 61 375 76 c 1,44,-1
 375 256 l 2,45,46
 375 329 375 329 344 348 c 0,47,48
 328 358 328 358 299 358 c 128,-1,49
 270 358 270 358 216 335 c 1,50,-1
 216 76 l 2,51,52
 216 67 216 67 217.5 61.5 c 128,-1,53
 219 56 219 56 229 50.5 c 128,-1,54
 239 45 239 45 258 45 c 1,55,-1
 269 -3 l 1,56,57
 164 0 164 0 137 0 c 128,-1,58
 110 0 110 0 43 -3 c 1,59,-1
 33 45 l 1,60,61
 67 46 67 46 79 53.5 c 128,-1,62
 91 61 91 61 92 76 c 1,63,-1
 92 316 l 2,64,65
 92 340 92 340 81 349.5 c 128,-1,66
 70 359 70 359 53.5 359 c 128,-1,67
 37 359 37 359 29 358 c 1,68,-1
 15 399 l 1,69,70
 77 414 77 414 183 456 c 1,71,72
 196 456 196 456 199.5 450.5 c 128,-1,73
 203 445 203 445 205 441 c 128,-1,74
 207 437 207 437 208 430 c 128,-1,75
 209 423 209 423 209 418 c 128,-1,76
 209 413 209 413 210 403 c 128,-1,77
 211 393 211 393 211 388 c 1,78,79
 213 389 213 389 227.5 396.5 c 128,-1,80
 242 404 242 404 252.5 409 c 128,-1,81
 263 414 263 414 281 422 c 128,-1,82
 299 430 299 430 313 435 c 0,83,84
 349 448 349 448 382 448 c 128,-1,0
 415 448 415 448 446.5 429 c 128,-1,1
EndSplineSet
EndChar

StartChar: n
Encoding: 110 110 81
Width: 582
GlyphClass: 2
Flags: W
LayerCount: 2
Fore
SplineSet
209 418 m 128,-1,1
 209 413 209 413 210 403 c 128,-1,2
 211 393 211 393 211 388 c 1,3,4
 287 428 287 428 322 438 c 128,-1,5
 357 448 357 448 382 448 c 0,6,7
 440 448 440 448 476 406 c 128,-1,8
 512 364 512 364 512 284 c 2,9,-1
 512 76 l 2,10,11
 512 67 512 67 513.5 61.5 c 128,-1,12
 515 56 515 56 525 50.5 c 128,-1,13
 535 45 535 45 554 45 c 1,14,-1
 565 -3 l 1,15,16
 460 0 460 0 433 0 c 128,-1,17
 406 0 406 0 339 -3 c 1,18,-1
 329 45 l 1,19,20
 363 46 363 46 375 53.5 c 128,-1,21
 387 61 387 61 388 76 c 1,22,-1
 388 254 l 2,23,24
 388 307 388 307 370.5 332.5 c 128,-1,25
 353 358 353 358 311.5 358 c 128,-1,26
 270 358 270 358 216 335 c 1,27,-1
 216 76 l 2,28,29
 216 67 216 67 217.5 61.5 c 128,-1,30
 219 56 219 56 229 50.5 c 128,-1,31
 239 45 239 45 258 45 c 1,32,-1
 269 -3 l 1,33,34
 164 0 164 0 137 0 c 128,-1,35
 110 0 110 0 43 -3 c 1,36,-1
 33 45 l 1,37,38
 67 46 67 46 79 53.5 c 128,-1,39
 91 61 91 61 92 76 c 1,40,-1
 92 316 l 2,41,42
 92 340 92 340 81 349.5 c 128,-1,43
 70 359 70 359 53.5 359 c 128,-1,44
 37 359 37 359 29 358 c 1,45,-1
 15 399 l 1,46,47
 77 414 77 414 183 456 c 1,48,49
 196 456 196 456 199.5 450.5 c 128,-1,50
 203 445 203 445 205 441 c 128,-1,51
 207 437 207 437 208 430 c 128,-1,0
 209 423 209 423 209 418 c 128,-1,1
EndSplineSet
EndChar

StartChar: o
Encoding: 111 111 82
Width: 560
GlyphClass: 2
Flags: W
LayerCount: 2
Fore
SplineSet
196.5 104.5 m 128,-1,1
 228 50 228 50 286 50 c 128,-1,2
 344 50 344 50 369.5 95.5 c 128,-1,3
 395 141 395 141 395 210 c 128,-1,4
 395 279 395 279 364.5 333.5 c 128,-1,5
 334 388 334 388 274.5 388 c 128,-1,6
 215 388 215 388 190 341.5 c 128,-1,7
 165 295 165 295 165 227 c 128,-1,0
 165 159 165 159 196.5 104.5 c 128,-1,1
103 46.5 m 128,-1,9
 35 105 35 105 35 208 c 128,-1,10
 35 311 35 311 105 379.5 c 128,-1,11
 175 448 175 448 281.5 448 c 128,-1,12
 388 448 388 448 456.5 386.5 c 128,-1,13
 525 325 525 325 525 221 c 128,-1,14
 525 117 525 117 455 52.5 c 128,-1,15
 385 -12 385 -12 278 -12 c 128,-1,8
 171 -12 171 -12 103 46.5 c 128,-1,9
EndSplineSet
EndChar

StartChar: p
Encoding: 112 112 83
Width: 556
GlyphClass: 2
Flags: W
LayerCount: 2
Fore
SplineSet
201 107 m 2,0,1
 201 83 201 83 228.5 66.5 c 128,-1,2
 256 50 256 50 292 50 c 0,3,4
 341 50 341 50 365.5 94.5 c 128,-1,5
 390 139 390 139 390 211 c 128,-1,6
 390 283 390 283 364.5 329 c 128,-1,7
 339 375 339 375 288.5 375 c 128,-1,8
 238 375 238 375 201 348 c 1,9,-1
 201 107 l 2,0,1
194 420 m 2,10,-1
 196 392 l 1,11,-1
 196 388 l 1,12,13
 251 448 251 448 331 448 c 128,-1,14
 411 448 411 448 466 385.5 c 128,-1,15
 521 323 521 323 521 224 c 128,-1,16
 521 125 521 125 459.5 56.5 c 128,-1,17
 398 -12 398 -12 306 -12 c 0,18,19
 245 -12 245 -12 201 17 c 1,20,-1
 201 -179 l 2,21,22
 201 -195 201 -195 216 -202.5 c 128,-1,23
 231 -210 231 -210 280 -210 c 1,24,-1
 291 -258 l 1,25,26
 186 -255 186 -255 135.5 -255 c 128,-1,27
 85 -255 85 -255 18 -258 c 1,28,-1
 8 -210 l 1,29,30
 49 -209 49 -209 63 -201.5 c 128,-1,31
 77 -194 77 -194 77 -179 c 2,32,-1
 77 316 l 2,33,34
 77 340 77 340 66 349.5 c 128,-1,35
 55 359 55 359 38.5 359 c 128,-1,36
 22 359 22 359 14 358 c 1,37,-1
 0 399 l 1,38,39
 62 414 62 414 168 456 c 1,40,41
 181 456 181 456 184.5 450.5 c 128,-1,42
 188 445 188 445 190 442 c 0,43,44
 194 434 194 434 194 420 c 2,10,-1
EndSplineSet
EndChar

StartChar: q
Encoding: 113 113 84
Width: 542
GlyphClass: 2
Flags: W
LayerCount: 2
Fore
SplineSet
358 44 m 1,0,1
 315 -12 315 -12 232.5 -12 c 128,-1,2
 150 -12 150 -12 93 45 c 128,-1,3
 36 102 36 102 36 195 c 0,4,5
 36 313 36 313 103 380.5 c 128,-1,6
 170 448 170 448 250 448 c 0,7,8
 313 448 313 448 398 415 c 1,9,-1
 443 454 l 2,10,11
 449 459 449 459 456 459 c 256,12,13
 463 459 463 459 493 454 c 0,14,15
 500 453 500 453 497 442 c 0,16,17
 482 377 482 377 482 320 c 2,18,-1
 482 -179 l 2,19,20
 482 -195 482 -195 493.5 -202.5 c 128,-1,21
 505 -210 505 -210 541 -210 c 1,22,-1
 552 -258 l 1,23,24
 447 -255 447 -255 396.5 -255 c 128,-1,25
 346 -255 346 -255 278 -258 c 1,26,-1
 268 -210 l 1,27,28
 358 -209 358 -209 358 -179 c 2,29,-1
 358 44 l 1,0,1
276 66 m 0,30,31
 309 66 309 66 350 95 c 1,32,-1
 350 300 l 2,33,34
 350 336 350 336 327 356.5 c 128,-1,35
 304 377 304 377 265 377 c 0,36,37
 167 377 167 377 167 229 c 0,38,39
 167 153 167 153 198.5 109.5 c 128,-1,40
 230 66 230 66 276 66 c 0,30,31
EndSplineSet
EndChar

StartChar: r
Encoding: 114 114 85
Width: 405
GlyphClass: 2
Flags: W
LayerCount: 2
Fore
SplineSet
319 448 m 0,0,1
 380 448 380 448 402 418 c 1,2,3
 402 405 402 405 389.5 382 c 128,-1,4
 377 359 377 359 364 342 c 128,-1,5
 351 325 351 325 348 325 c 1,6,-1
 264 356 l 1,7,-1
 260 356 l 1,8,9
 241 354 241 354 228.5 332.5 c 128,-1,10
 216 311 216 311 216 278 c 2,11,-1
 216 76 l 2,12,13
 216 60 216 60 231 52.5 c 128,-1,14
 246 45 246 45 295 45 c 1,15,-1
 306 -3 l 1,16,17
 201 0 201 0 150.5 0 c 128,-1,18
 100 0 100 0 33 -3 c 1,19,-1
 23 45 l 1,20,21
 64 46 64 46 78 53.5 c 128,-1,22
 92 61 92 61 92 76 c 2,23,-1
 92 316 l 2,24,25
 92 340 92 340 81 349.5 c 128,-1,26
 70 359 70 359 53.5 359 c 128,-1,27
 37 359 37 359 29 358 c 1,28,-1
 15 399 l 1,29,30
 77 414 77 414 183 456 c 1,31,32
 199 456 199 456 200.5 444 c 128,-1,33
 202 432 202 432 203.5 409 c 128,-1,34
 205 386 205 386 206 378 c 1,35,36
 220 399 220 399 254 423.5 c 128,-1,37
 288 448 288 448 319 448 c 0,0,1
EndSplineSet
EndChar

StartChar: s
Encoding: 115 115 86
Width: 409
GlyphClass: 2
Flags: W
LayerCount: 2
Fore
SplineSet
188 50 m 0,0,1
 268 50 268 50 268 102 c 0,2,3
 268 136 268 136 186 167 c 0,4,5
 152 180 152 180 118.5 197 c 128,-1,6
 85 214 85 214 61 245 c 128,-1,7
 37 276 37 276 37 318 c 0,8,9
 37 378 37 378 86.5 413 c 128,-1,10
 136 448 136 448 200 448 c 128,-1,11
 264 448 264 448 339 420 c 1,12,13
 352 408 352 408 352 370.5 c 128,-1,14
 352 333 352 333 344 297 c 1,15,-1
 300 301 l 1,16,17
 294 340 294 340 269 364 c 128,-1,18
 244 388 244 388 209.5 388 c 128,-1,19
 175 388 175 388 157.5 373.5 c 128,-1,20
 140 359 140 359 140 340 c 128,-1,21
 140 321 140 321 164 306 c 128,-1,22
 188 291 188 291 222.5 278 c 128,-1,23
 257 265 257 265 291.5 248 c 128,-1,24
 326 231 326 231 350 200 c 128,-1,25
 374 169 374 169 374 127 c 0,26,27
 374 63 374 63 325 26 c 128,-1,28
 276 -11 276 -11 200.5 -11 c 128,-1,29
 125 -11 125 -11 53 12 c 1,30,31
 47 17 47 17 41 66.5 c 128,-1,32
 35 116 35 116 35 143 c 2,33,-1
 35 158 l 1,34,-1
 93 155 l 1,35,36
 100 100 100 100 126 75 c 128,-1,37
 152 50 152 50 188 50 c 0,0,1
EndSplineSet
EndChar

StartChar: t
Encoding: 116 116 87
Width: 360
GlyphClass: 2
Flags: W
LayerCount: 2
Fore
SplineSet
213.5 82 m 128,-1,1
 229 59 229 59 254 59 c 128,-1,2
 279 59 279 59 313 85 c 0,3,4
 321 91 321 91 325 86 c 2,5,-1
 345 59 l 1,6,7
 319 34 319 34 304 22 c 0,8,9
 261 -11 261 -11 202 -11 c 128,-1,10
 143 -11 143 -11 107.5 28.5 c 128,-1,11
 72 68 72 68 72 117 c 2,12,-1
 72 367 l 1,13,-1
 22 367 l 1,14,-1
 17 404 l 1,15,16
 72 422 72 422 100.5 452.5 c 128,-1,17
 129 483 129 483 154 533 c 1,18,-1
 178 533 l 2,19,20
 188 533 188 533 191 529 c 128,-1,21
 194 525 194 525 194 515 c 2,22,-1
 198 430 l 1,23,-1
 325 430 l 1,24,25
 327 421 327 421 327 405 c 128,-1,26
 327 389 327 389 314 367 c 1,27,-1
 199 367 l 1,28,-1
 198 145 l 2,29,0
 198 105 198 105 213.5 82 c 128,-1,1
EndSplineSet
EndChar

StartChar: u
Encoding: 117 117 88
Width: 566
GlyphClass: 2
Flags: W
LayerCount: 2
Fore
SplineSet
305 433 m 1,0,-1
 394 430 l 1,1,2
 434 430 434 430 482 436 c 1,3,-1
 482 113 l 2,4,5
 482 78 482 78 488.5 73 c 128,-1,6
 495 68 495 68 506 68 c 2,7,-1
 521 68 l 1,8,-1
 542 69 l 1,9,-1
 551 17 l 1,10,11
 480 13 480 13 393 -12 c 1,12,13
 374 -12 374 -12 374 -1 c 1,14,-1
 368 44 l 1,15,16
 284 -12 284 -12 231 -12 c 0,17,18
 74 -12 74 -12 74 143 c 2,19,-1
 75 354 l 2,20,21
 75 363 75 363 73.5 368.5 c 128,-1,22
 72 374 72 374 62 379.5 c 128,-1,23
 52 385 52 385 33 385 c 1,24,-1
 22 433 l 1,25,-1
 111 430 l 1,26,27
 151 430 151 430 199 436 c 1,28,-1
 199 175 l 2,29,30
 199 78 199 78 277 78 c 0,31,32
 325 78 325 78 358 106 c 1,33,-1
 358 354 l 2,34,35
 358 363 358 363 356.5 368.5 c 128,-1,36
 355 374 355 374 345 379.5 c 128,-1,37
 335 385 335 385 316 385 c 1,38,-1
 305 433 l 1,0,-1
EndSplineSet
EndChar

StartChar: v
Encoding: 118 118 89
Width: 511
GlyphClass: 2
Flags: W
LayerCount: 2
Fore
SplineSet
330 433 m 1,0,-1
 423 430 l 2,1,2
 444 430 444 430 511 433 c 1,3,-1
 521 385 l 1,4,5
 477 384 477 384 463 354 c 2,6,-1
 301 0 l 1,7,-1
 227 0 l 1,8,-1
 70 341 l 2,9,10
 50 385 50 385 1 385 c 1,11,-1
 -10 433 l 1,12,13
 95 430 95 430 130.5 430 c 128,-1,14
 166 430 166 430 234 433 c 1,15,-1
 244 385 l 1,16,17
 208 384 208 384 197.5 376.5 c 128,-1,18
 187 369 187 369 193 353 c 2,19,-1
 283 135 l 1,20,-1
 381 354 l 2,21,22
 395 385 395 385 341 385 c 1,23,-1
 330 433 l 1,0,-1
EndSplineSet
EndChar

StartChar: w
Encoding: 119 119 90
Width: 812
GlyphClass: 2
Flags: W
LayerCount: 2
Fore
SplineSet
621 433 m 1,0,-1
 714 430 l 2,1,2
 734 430 734 430 802 433 c 1,3,-1
 812 385 l 1,4,5
 768 384 768 384 754 354 c 2,6,-1
 592 0 l 1,7,-1
 518 0 l 1,8,-1
 414 225 l 1,9,-1
 311 0 l 1,10,-1
 237 0 l 1,11,-1
 80 341 l 2,12,13
 60 385 60 385 11 385 c 1,14,-1
 0 433 l 1,15,16
 105 430 105 430 140.5 430 c 128,-1,17
 176 430 176 430 244 433 c 1,18,-1
 254 385 l 1,19,20
 218 384 218 384 207.5 376.5 c 128,-1,21
 197 369 197 369 203 353 c 2,22,-1
 293 135 l 1,23,-1
 383 335 l 1,24,-1
 371 358 l 2,25,26
 358 385 358 385 309 385 c 1,27,-1
 298 433 l 1,28,29
 403 430 403 430 430.5 430 c 128,-1,30
 458 430 458 430 525 433 c 1,31,-1
 535 385 l 1,32,33
 499 384 499 384 488.5 376.5 c 128,-1,34
 478 369 478 369 484 353 c 2,35,-1
 574 135 l 1,36,-1
 672 354 l 2,37,38
 686 385 686 385 632 385 c 1,39,-1
 621 433 l 1,0,-1
EndSplineSet
EndChar

StartChar: x
Encoding: 120 120 91
Width: 560
GlyphClass: 2
Flags: W
LayerCount: 2
Fore
SplineSet
327 433 m 1,0,-1
 430 430 l 2,1,2
 450 430 450 430 518 433 c 1,3,-1
 528 385 l 1,4,5
 502 384 502 384 474.5 375 c 128,-1,6
 447 366 447 366 435 351 c 2,7,-1
 345 226 l 1,8,-1
 478 76 l 1,9,10
 503 45 503 45 544 45 c 1,11,-1
 555 -3 l 1,12,13
 450 0 450 0 408.5 0 c 128,-1,14
 367 0 367 0 299 -3 c 1,15,-1
 289 45 l 1,16,17
 347 46 347 46 347 65 c 0,18,19
 347 71 347 71 342 76 c 2,20,-1
 263 163 l 1,21,-1
 187 66 l 2,22,23
 176 51 176 51 192 47 c 1,24,-1
 231 45 l 1,25,-1
 242 -3 l 1,26,27
 137 0 137 0 111.5 0 c 128,-1,28
 86 0 86 0 19 -3 c 1,29,-1
 9 45 l 1,30,31
 37 45 37 45 55 51.5 c 128,-1,32
 73 58 73 58 76 62 c 1,33,34
 79 64 79 64 208 219 c 1,35,-1
 103 341 l 2,36,37
 89 357 89 357 64.5 371 c 128,-1,38
 40 385 40 385 16 385 c 1,39,-1
 5 433 l 1,40,41
 110 430 110 430 151 430 c 128,-1,42
 192 430 192 430 259 433 c 1,43,-1
 269 385 l 1,44,45
 227 384 227 384 226 374 c 0,46,47
 226 369 226 369 235 358 c 2,48,-1
 296 285 l 1,49,-1
 353 357 l 2,50,51
 361 367 361 367 361 374 c 0,52,53
 361 385 361 385 338 385 c 1,54,-1
 327 433 l 1,0,-1
EndSplineSet
EndChar

StartChar: y
Encoding: 121 121 92
Width: 500
GlyphClass: 2
Flags: W
LayerCount: 2
Fore
SplineSet
309 433 m 1,0,-1
 402 430 l 2,1,2
 422 430 422 430 490 433 c 1,3,-1
 500 385 l 1,4,5
 476 384 476 384 463 378 c 128,-1,6
 450 372 450 372 442 354 c 0,7,8
 220 -159 220 -159 217.5 -164.5 c 128,-1,9
 215 -170 215 -170 199.5 -195.5 c 128,-1,10
 184 -221 184 -221 171.5 -232.5 c 128,-1,11
 159 -244 159 -244 136.5 -255.5 c 128,-1,12
 114 -267 114 -267 82.5 -267 c 128,-1,13
 51 -267 51 -267 25 -245 c 1,14,15
 25 -229 25 -229 38.5 -198.5 c 128,-1,16
 52 -168 52 -168 59 -168 c 1,17,18
 79 -173 79 -173 110 -173 c 0,19,20
 135 -173 135 -173 167.5 -112 c 128,-1,21
 200 -51 200 -51 222 11 c 1,22,-1
 70 341 l 2,23,24
 50 385 50 385 1 385 c 1,25,-1
 -10 433 l 1,26,27
 95 430 95 430 130.5 430 c 128,-1,28
 166 430 166 430 234 433 c 1,29,-1
 244 385 l 1,30,31
 208 384 208 384 197.5 376.5 c 128,-1,32
 187 369 187 369 193 353 c 2,33,-1
 276 137 l 1,34,-1
 360 354 l 2,35,36
 366 369 366 369 357.5 377 c 128,-1,37
 349 385 349 385 320 385 c 1,38,-1
 309 433 l 1,0,-1
EndSplineSet
EndChar

StartChar: z
Encoding: 122 122 93
Width: 451
GlyphClass: 2
Flags: W
LayerCount: 2
Fore
SplineSet
164 428 m 1,0,-1
 218 429 l 1,1,-1
 290 429 l 2,2,3
 341 429 341 429 400 434 c 1,4,5
 411 412 411 412 411 403 c 1,6,-1
 169 62 l 1,7,-1
 270 62 l 2,8,9
 315 62 315 62 332.5 87.5 c 128,-1,10
 350 113 350 113 361 184 c 1,11,-1
 413 190 l 1,12,13
 419 134 419 134 419 87 c 128,-1,14
 419 40 419 40 409 -4 c 1,15,16
 335 0 335 0 228 0 c 0,17,18
 93 0 93 0 27 -3 c 1,19,20
 19 10 19 10 19 20 c 1,21,22
 170 259 170 259 256 370 c 1,23,-1
 248 370 l 2,24,25
 240 370 240 370 215.5 370 c 128,-1,26
 191 370 191 370 176.5 369.5 c 128,-1,27
 162 369 162 369 143 364.5 c 128,-1,28
 124 360 124 360 116 350 c 0,29,30
 96 323 96 323 86 273 c 1,31,-1
 38 286 l 1,32,33
 41 354 41 354 43 373.5 c 128,-1,34
 45 393 45 393 56 442 c 1,35,36
 100 428 100 428 164 428 c 1,0,-1
EndSplineSet
EndChar

StartChar: braceleft
Encoding: 123 123 94
Width: 428
GlyphClass: 2
Flags: W
LayerCount: 2
Fore
SplineSet
45 291 m 0,0,1
 45 294 45 294 50 296 c 1,2,3
 132 302 132 302 154 336 c 0,4,5
 170 362 170 362 170 389.5 c 128,-1,6
 170 417 170 417 154 505 c 128,-1,7
 138 593 138 593 138 602 c 0,8,9
 138 682 138 682 205.5 721 c 128,-1,10
 273 760 273 760 360 760 c 0,11,12
 375 760 375 760 377.5 755.5 c 128,-1,13
 380 751 380 751 381 745 c 0,14,15
 381 743 381 743 385 730 c 1,16,17
 386 720 386 720 378 719 c 0,18,19
 318 709 318 709 285.5 685 c 128,-1,20
 253 661 253 661 253 605 c 0,21,22
 253 582 253 582 272 518 c 128,-1,23
 291 454 291 454 291 424.5 c 128,-1,24
 291 395 291 395 279.5 366 c 128,-1,25
 268 337 268 337 233.5 309.5 c 128,-1,26
 199 282 199 282 147 277 c 0,27,28
 146 276 146 276 150 272 c 1,29,30
 220 253 220 253 255.5 209.5 c 128,-1,31
 291 166 291 166 291 121.5 c 128,-1,32
 291 77 291 77 273 19 c 128,-1,33
 255 -39 255 -39 254 -52 c 128,-1,34
 253 -65 253 -65 253 -72 c 0,35,36
 253 -169 253 -169 371 -181 c 0,37,38
 379 -182 379 -182 378 -192 c 0,39,40
 373 -219 373 -219 371 -223 c 128,-1,41
 369 -227 369 -227 366 -228 c 1,42,43
 261 -216 261 -216 200 -164.5 c 128,-1,44
 139 -113 139 -113 139 -48 c 0,45,46
 139 -20 139 -20 154.5 41 c 128,-1,47
 170 102 170 102 170 122.5 c 128,-1,48
 170 143 170 143 167.5 158 c 128,-1,49
 165 173 165 173 154 192 c 0,50,51
 135 228 135 228 53 248 c 0,52,53
 48 250 48 250 46.5 253.5 c 128,-1,54
 45 257 45 257 45 291 c 0,0,1
EndSplineSet
EndChar

StartChar: bar
Encoding: 124 124 95
Width: 254
GlyphClass: 2
Flags: W
LayerCount: 2
Fore
SplineSet
84 -267 m 1,0,-1
 84 739 l 1,1,2
 97 749 97 749 123.5 757.5 c 128,-1,3
 150 766 150 766 170 766 c 1,4,-1
 170 -243 l 1,5,6
 161 -254 161 -254 134.5 -260.5 c 128,-1,7
 108 -267 108 -267 84 -267 c 1,0,-1
EndSplineSet
EndChar

StartChar: braceright
Encoding: 125 125 96
Width: 428
GlyphClass: 2
Flags: W
LayerCount: 2
Fore
SplineSet
275.5 41 m 128,-1,1
 291 -20 291 -20 291 -48 c 0,2,3
 291 -113 291 -113 230 -164.5 c 128,-1,4
 169 -216 169 -216 64 -228 c 1,5,6
 58 -226 58 -226 57 -217 c 2,7,-1
 52 -192 l 2,8,9
 51 -182 51 -182 59 -181 c 0,10,11
 177 -169 177 -169 177 -72 c 0,12,13
 177 -65 177 -65 176 -52 c 128,-1,14
 175 -39 175 -39 157 19 c 128,-1,15
 139 77 139 77 139 121.5 c 128,-1,16
 139 166 139 166 174.5 209.5 c 128,-1,17
 210 253 210 253 280 272 c 1,18,19
 284 276 284 276 283 277 c 0,20,21
 231 282 231 282 196 310 c 0,22,23
 139 355 139 355 139 422 c 0,24,25
 139 454 139 454 158 518 c 128,-1,26
 177 582 177 582 177 605 c 0,27,28
 177 661 177 661 144.5 685 c 128,-1,29
 112 709 112 709 52 719 c 0,30,31
 42 720 42 720 47 737 c 0,32,33
 48 739 48 739 49 745 c 0,34,35
 51 758 51 758 57 760 c 1,36,37
 64 760 64 760 70 760 c 0,38,39
 157 760 157 760 224.5 721 c 128,-1,40
 292 682 292 682 292 602 c 0,41,42
 292 593 292 593 276 505 c 128,-1,43
 260 417 260 417 260 397 c 128,-1,44
 260 377 260 377 263 365 c 128,-1,45
 266 353 266 353 276 336 c 0,46,47
 298 302 298 302 380 296 c 1,48,49
 385 294 385 294 385 291 c 0,50,51
 385 257 385 257 383.5 253.5 c 128,-1,52
 382 250 382 250 377 248 c 0,53,54
 295 228 295 228 276 192 c 1,55,56
 260 164 260 164 260 133 c 128,-1,0
 260 102 260 102 275.5 41 c 128,-1,1
EndSplineSet
EndChar

StartChar: asciitilde
Encoding: 126 126 97
Width: 619
GlyphClass: 2
Flags: W
LayerCount: 2
Fore
SplineSet
147 138 m 1,0,1
 133 134 133 134 107 134 c 128,-1,2
 81 134 81 134 74 136 c 1,3,4
 70 155 70 155 70 176 c 0,5,6
 70 246 70 246 116 293 c 0,7,8
 147 325 147 325 188 325 c 128,-1,9
 229 325 229 325 264.5 307.5 c 128,-1,10
 300 290 300 290 325 269.5 c 128,-1,11
 350 249 350 249 379 231.5 c 128,-1,12
 408 214 408 214 430 214 c 128,-1,13
 452 214 452 214 464 246.5 c 128,-1,14
 476 279 476 279 476 297.5 c 128,-1,15
 476 316 476 316 475 323 c 1,16,17
 512 323 512 323 542 305 c 1,18,19
 549 295 549 295 549 268 c 0,20,21
 549 216 549 216 517.5 170 c 128,-1,22
 486 124 486 124 429 124 c 0,23,24
 390 124 390 124 344.5 151.5 c 128,-1,25
 299 179 299 179 259 206.5 c 128,-1,26
 219 234 219 234 193 234 c 0,27,28
 147 234 147 234 147 152 c 0,29,30
 147 145 147 145 147 138 c 1,0,1
EndSplineSet
EndChar

StartChar: exclamdown
Encoding: 161 161 98
Width: 319
GlyphClass: 2
Flags: W
LayerCount: 2
Fore
SplineSet
92 -211 m 1,0,-1
 94 -175 l 1,1,-1
 135 243 l 2,2,3
 135 246 135 246 138 249.5 c 128,-1,4
 141 253 141 253 144 253 c 2,5,-1
 184 255 l 2,6,7
 188 255 188 255 188 245 c 1,8,-1
 243 -211 l 1,9,10
 162 -243 162 -243 122 -251 c 1,11,12
 102 -251 102 -251 95 -236 c 0,13,14
 92 -231 92 -231 92 -211 c 1,0,-1
216 405 m 128,-1,16
 216 380 216 380 199 364 c 128,-1,17
 182 348 182 348 159.5 348 c 128,-1,18
 137 348 137 348 121 362.5 c 128,-1,19
 105 377 105 377 105 401.5 c 128,-1,20
 105 426 105 426 120 443.5 c 128,-1,21
 135 461 135 461 161.5 461 c 128,-1,22
 188 461 188 461 202 445.5 c 128,-1,15
 216 430 216 430 216 405 c 128,-1,16
EndSplineSet
EndChar

StartChar: cent
Encoding: 162 162 99
Width: 442
GlyphClass: 2
Flags: W
LayerCount: 2
Fore
SplineSet
38 269 m 0,0,1
 38 384 38 384 104 447 c 128,-1,2
 170 510 170 510 264 510 c 0,3,4
 271 510 271 510 285 508 c 1,5,-1
 296 594 l 1,6,7
 303 598 303 598 314.5 598 c 128,-1,8
 326 598 326 598 346 589 c 1,9,-1
 335 500 l 1,10,11
 407 483 407 483 439 455 c 0,12,13
 440 453 440 453 440 450 c 0,14,15
 440 434 440 434 404 383 c 0,16,17
 400 379 400 379 393.5 379 c 128,-1,18
 387 379 387 379 378 386.5 c 128,-1,19
 369 394 369 394 354 407 c 128,-1,20
 339 420 339 420 326 428 c 1,21,-1
 289 121 l 1,22,-1
 300 121 l 2,23,24
 367 121 367 121 419 168 c 0,25,26
 426 175 426 175 431 169 c 2,27,-1
 447 147 l 1,28,29
 379 62 379 62 281 50 c 1,30,-1
 268 -57 l 1,31,32
 255 -73 255 -73 238.5 -73 c 128,-1,33
 222 -73 222 -73 210 -70 c 1,34,-1
 225 51 l 1,35,36
 138 62 138 62 88 122.5 c 128,-1,37
 38 183 38 183 38 269 c 0,0,1
277 448 m 1,38,-1
 262 449 l 1,39,40
 211 449 211 449 184.5 409.5 c 128,-1,41
 158 370 158 370 158 309 c 0,42,43
 158 177 158 177 236 136 c 1,44,-1
 277 448 l 1,38,-1
EndSplineSet
EndChar

StartChar: sterling
Encoding: 163 163 100
Width: 563
GlyphClass: 2
Flags: W
LayerCount: 2
Fore
SplineSet
242 376 m 1,0,-1
 402 377 l 1,1,-1
 415 377 l 1,2,3
 425 367 425 367 425 347.5 c 128,-1,4
 425 328 425 328 423 314 c 1,5,-1
 248 314 l 1,6,7
 249 287 249 287 249 283 c 0,8,9
 249 238 249 238 224.5 184 c 128,-1,10
 200 130 200 130 170 107 c 1,11,12
 193 119 193 119 222 119 c 0,13,14
 264 119 264 119 311.5 90.5 c 128,-1,15
 359 62 359 62 394 62 c 0,16,17
 422 62 422 62 448 86.5 c 128,-1,18
 474 111 474 111 485 153 c 0,19,20
 487 161 487 161 490 162 c 0,21,22
 492 163 492 163 530 152 c 1,23,24
 506 -29 506 -29 351 -29 c 0,25,26
 303 -29 303 -29 214 22 c 1,27,28
 150 57 150 57 138.5 57 c 128,-1,29
 127 57 127 57 121 53 c 1,30,31
 117 46 117 46 119 32 c 1,32,-1
 119 15 l 1,33,34
 110 -3 110 -3 100 -4 c 1,35,36
 84 -11 84 -11 46 -14 c 1,37,38
 34 -10 34 -10 34 25 c 128,-1,39
 34 60 34 60 46 74 c 1,40,41
 93 121 93 121 109.5 154.5 c 128,-1,42
 126 188 126 188 126 231 c 128,-1,43
 126 274 126 274 122 314 c 1,44,-1
 41 314 l 1,45,46
 15 317 15 317 15 376 c 1,47,-1
 115 376 l 1,48,49
 107 446 107 446 107 464 c 0,50,51
 107 558 107 558 168 625.5 c 128,-1,52
 229 693 229 693 347 693 c 0,53,54
 384 693 384 693 420.5 675.5 c 128,-1,55
 457 658 457 658 457 641 c 1,56,57
 450 611 450 611 414 570 c 0,58,59
 407 563 407 563 402 563 c 0,60,61
 396 563 396 563 366 580 c 1,62,63
 313 614 313 614 283 614 c 128,-1,64
 253 614 253 614 240.5 596.5 c 128,-1,65
 228 579 228 579 228 548.5 c 128,-1,66
 228 518 228 518 233 476 c 0,67,68
 237 444 237 444 242 376 c 1,0,-1
EndSplineSet
EndChar

StartChar: currency
Encoding: 164 164 101
Width: 516
GlyphClass: 2
Flags: W
LayerCount: 2
Fore
SplineSet
428 208 m 1,0,1
 487 137 487 137 489 135 c 1,2,3
 489 120 489 120 468.5 96 c 128,-1,4
 448 72 448 72 425 64 c 1,5,6
 400 96 400 96 384.5 114.5 c 128,-1,7
 369 133 369 133 363 142 c 1,8,9
 317 114 317 114 258.5 114 c 128,-1,10
 200 114 200 114 152 141 c 1,11,-1
 87 68 l 1,12,13
 84 67 84 67 75 67 c 128,-1,14
 66 67 66 67 41 81 c 128,-1,15
 16 95 16 95 7 117 c 1,16,-1
 88 203 l 1,17,18
 56 253 56 253 56 330.5 c 128,-1,19
 56 408 56 408 108 472 c 1,20,-1
 41 552 l 1,21,22
 45 569 45 569 64 595.5 c 128,-1,23
 83 622 83 622 99 635 c 1,24,25
 118 600 118 600 148 566.5 c 128,-1,26
 178 533 178 533 184 525 c 1,27,28
 222 539 222 539 263 539 c 128,-1,29
 304 539 304 539 347 521 c 1,30,31
 394 574 394 574 405.5 588 c 128,-1,32
 417 602 417 602 419 604 c 1,33,34
 437 604 437 604 465 591 c 128,-1,35
 493 578 493 578 510 563 c 1,36,-1
 419 465 l 1,37,38
 463 407 463 407 463 334 c 128,-1,39
 463 261 463 261 428 208 c 1,0,1
184 232.5 m 128,-1,41
 210 201 210 201 253.5 201 c 128,-1,42
 297 201 297 201 329 242.5 c 128,-1,43
 361 284 361 284 361 337 c 128,-1,44
 361 390 361 390 333.5 422 c 128,-1,45
 306 454 306 454 264.5 454 c 128,-1,46
 223 454 223 454 190.5 415 c 128,-1,47
 158 376 158 376 158 320 c 128,-1,40
 158 264 158 264 184 232.5 c 128,-1,41
EndSplineSet
EndChar

StartChar: yen
Encoding: 165 165 102
Width: 610
GlyphClass: 2
Flags: W
LayerCount: 2
Fore
SplineSet
483 678 m 1,0,-1
 605 681 l 1,1,-1
 612 628 l 1,2,3
 529 628 529 628 473 530 c 1,4,-1
 373 364 l 1,5,-1
 509 364 l 1,6,-1
 509 365 l 1,7,8
 513 361 513 361 517 340.5 c 128,-1,9
 521 320 521 320 521 311 c 128,-1,10
 521 302 521 302 520 298 c 1,11,-1
 373 298 l 1,12,-1
 373 259 l 1,13,-1
 515 259 l 1,14,-1
 515 260 l 1,15,16
 519 256 519 256 523 235.5 c 128,-1,17
 527 215 527 215 527 206.5 c 128,-1,18
 527 198 527 198 526 193 c 1,19,-1
 373 193 l 1,20,-1
 374 87 l 2,21,22
 374 69 374 69 387.5 60 c 128,-1,23
 401 51 401 51 441 51 c 1,24,-1
 454 -3 l 1,25,26
 334 0 334 0 290 0 c 128,-1,27
 246 0 246 0 169 -3 c 1,28,-1
 157 51 l 1,29,30
 205 52 205 52 220.5 61 c 128,-1,31
 236 70 236 70 236 87 c 2,32,-1
 236 193 l 1,33,-1
 108 193 l 1,34,35
 101 194 101 194 95 218.5 c 128,-1,36
 89 243 89 243 89 259 c 1,37,-1
 236 259 l 1,38,-1
 236 298 l 1,39,-1
 102 298 l 1,40,41
 95 299 95 299 89 323.5 c 128,-1,42
 83 348 83 348 83 364 c 1,43,-1
 220 364 l 1,44,-1
 100 547 l 2,45,46
 72 590 72 590 47 609.5 c 128,-1,47
 22 629 22 629 -13 629 c 1,48,-1
 -24 682 l 1,49,50
 22 679 22 679 125 679 c 128,-1,51
 228 679 228 679 259 682 c 1,52,-1
 268 629 l 1,53,54
 218 629 218 629 208 620 c 0,55,56
 205 616 205 616 205 607.5 c 128,-1,57
 205 599 205 599 215 581 c 2,58,-1
 321 387 l 1,59,-1
 403 550 l 2,60,61
 422 587 422 587 418 602 c 128,-1,62
 414 617 414 617 398 622.5 c 128,-1,63
 382 628 382 628 352 628 c 1,64,-1
 342 681 l 1,65,-1
 483 678 l 1,0,-1
EndSplineSet
EndChar

StartChar: brokenbar
Encoding: 166 166 103
Width: 254
GlyphClass: 2
Flags: W
LayerCount: 2
Fore
SplineSet
82 304 m 1,0,-1
 82 714 l 1,1,2
 94 724 94 724 123.5 732.5 c 128,-1,3
 153 741 153 741 173 741 c 1,4,-1
 173 328 l 1,5,6
 164 318 164 318 135.5 311 c 128,-1,7
 107 304 107 304 82 304 c 1,0,-1
82 -244 m 1,8,-1
 82 166 l 1,9,10
 94 176 94 176 123.5 184.5 c 128,-1,11
 153 193 153 193 173 193 c 1,12,-1
 173 -220 l 1,13,14
 164 -230 164 -230 135.5 -237 c 128,-1,15
 107 -244 107 -244 82 -244 c 1,8,-1
EndSplineSet
EndChar

StartChar: section
Encoding: 167 167 104
Width: 500
GlyphClass: 2
Flags: W
LayerCount: 2
Fore
SplineSet
47 449.5 m 128,-1,1
 73 489 73 489 119 519 c 1,2,-1
 119 531 l 2,3,4
 119 609 119 609 180 674 c 128,-1,5
 241 739 241 739 323 739 c 0,6,7
 370 739 370 739 408.5 720 c 128,-1,8
 447 701 447 701 447 662 c 0,9,10
 447 646 447 646 433.5 612.5 c 128,-1,11
 420 579 420 579 400 579 c 0,12,13
 390 579 390 579 362 612 c 0,14,15
 352 624 352 624 332 634 c 128,-1,16
 312 644 312 644 286 644 c 128,-1,17
 260 644 260 644 240.5 627.5 c 128,-1,18
 221 611 221 611 221 579 c 0,19,20
 221 530 221 530 350 424 c 0,21,22
 402 382 402 382 435 350 c 128,-1,23
 468 318 468 318 498.5 269.5 c 128,-1,24
 529 221 529 221 529 177 c 0,25,26
 529 57 529 57 430 -7 c 1,27,-1
 430 -8 l 2,28,29
 430 -92 430 -92 370 -154.5 c 128,-1,30
 310 -217 310 -217 208 -217 c 0,31,32
 158 -217 158 -217 105 -187.5 c 128,-1,33
 52 -158 52 -158 52 -130.5 c 128,-1,34
 52 -103 52 -103 65 -70 c 128,-1,35
 78 -37 78 -37 100 -37 c 0,36,37
 109 -37 109 -37 126 -58 c 0,38,39
 176 -122 176 -122 231 -122 c 0,40,41
 272 -122 272 -122 295.5 -103.5 c 128,-1,42
 319 -85 319 -85 319 -51 c 0,43,44
 319 -34 319 -34 299 -8 c 128,-1,45
 279 18 279 18 258 38 c 128,-1,46
 237 58 237 58 197 93 c 128,-1,47
 157 128 157 128 133 151 c 128,-1,48
 109 174 109 174 80 208 c 0,49,50
 21 277 21 277 21 343.5 c 128,-1,0
 21 410 21 410 47 449.5 c 128,-1,1
116 403 m 0,51,52
 116 334 116 334 260 209 c 0,53,54
 376 108 376 108 407 57 c 1,55,56
 432 78 432 78 432 121 c 0,57,58
 432 190 432 190 286 311 c 1,59,60
 177 404 177 404 144 454 c 1,61,62
 133 451 133 451 124.5 434.5 c 128,-1,63
 116 418 116 418 116 403 c 0,51,52
EndSplineSet
EndChar

StartChar: dieresis
Encoding: 168 168 105
Width: 490
GlyphClass: 2
Flags: W
LayerCount: 2
Fore
SplineSet
102 556.5 m 128,-1,1
 83 575 83 575 83 604.5 c 128,-1,2
 83 634 83 634 103 655 c 128,-1,3
 123 676 123 676 153 676 c 128,-1,4
 183 676 183 676 202.5 658 c 128,-1,5
 222 640 222 640 222 610 c 128,-1,6
 222 580 222 580 202 559 c 128,-1,7
 182 538 182 538 151.5 538 c 128,-1,0
 121 538 121 538 102 556.5 c 128,-1,1
284 556.5 m 128,-1,9
 265 575 265 575 265 604.5 c 128,-1,10
 265 634 265 634 285 655 c 128,-1,11
 305 676 305 676 335 676 c 128,-1,12
 365 676 365 676 384 658 c 128,-1,13
 403 640 403 640 403 610 c 128,-1,14
 403 580 403 580 383 559 c 128,-1,15
 363 538 363 538 333 538 c 128,-1,8
 303 538 303 538 284 556.5 c 128,-1,9
EndSplineSet
EndChar

StartChar: copyright
Encoding: 169 169 106
Width: 741
GlyphClass: 2
Flags: W
LayerCount: 2
Fore
SplineSet
141 632 m 128,-1,1
 237 728 237 728 373 728 c 128,-1,2
 509 728 509 728 603 632.5 c 128,-1,3
 697 537 697 537 697 401.5 c 128,-1,4
 697 266 697 266 600.5 170 c 128,-1,5
 504 74 504 74 369 74 c 128,-1,6
 234 74 234 74 139.5 168 c 128,-1,7
 45 262 45 262 45 399 c 128,-1,0
 45 536 45 536 141 632 c 128,-1,1
559.5 592.5 m 128,-1,9
 488 664 488 664 370.5 664 c 128,-1,10
 253 664 253 664 181.5 592.5 c 128,-1,11
 110 521 110 521 110 402 c 128,-1,12
 110 283 110 283 182 210 c 128,-1,13
 254 137 254 137 374.5 137 c 128,-1,14
 495 137 495 137 563 208.5 c 128,-1,15
 631 280 631 280 631 400.5 c 128,-1,8
 631 521 631 521 559.5 592.5 c 128,-1,9
290 510 m 128,-1,17
 263 472 263 472 263 405.5 c 128,-1,18
 263 339 263 339 295.5 297 c 128,-1,19
 328 255 328 255 387 255 c 0,20,21
 466 255 466 255 498 335 c 1,22,-1
 533 327 l 1,23,24
 533 321 533 321 520 280.5 c 128,-1,25
 507 240 507 240 503 241 c 1,26,27
 449 211 449 211 367.5 211 c 128,-1,28
 286 211 286 211 229.5 261 c 128,-1,29
 173 311 173 311 173 398.5 c 128,-1,30
 173 486 173 486 232 538.5 c 128,-1,31
 291 591 291 591 383 591 c 0,32,33
 425 591 425 591 462.5 582 c 128,-1,34
 500 573 500 573 515 571 c 1,35,36
 521 560 521 560 521 527.5 c 128,-1,37
 521 495 521 495 518 465 c 1,38,-1
 481 468 l 1,39,40
 477 499 477 499 466 515 c 0,41,42
 445 548 445 548 381 548 c 128,-1,16
 317 548 317 548 290 510 c 128,-1,17
EndSplineSet
EndChar

StartChar: ordfeminine
Encoding: 170 170 107
Width: 347
GlyphClass: 2
Flags: W
LayerCount: 2
Fore
SplineSet
120 510 m 0,0,1
 120 494 120 494 130.5 485 c 128,-1,2
 141 476 141 476 157 476 c 128,-1,3
 173 476 173 476 189 490 c 1,4,-1
 189 554 l 1,5,6
 120 540 120 540 120 510 c 0,0,1
275 481 m 2,7,-1
 291 482 l 1,8,-1
 307 482 l 1,9,10
 309 467 309 467 312 456 c 1,11,12
 229 431 229 431 222.5 431 c 128,-1,13
 216 431 216 431 211 435.5 c 128,-1,14
 206 440 206 440 204 443.5 c 128,-1,15
 202 447 202 447 199 456.5 c 128,-1,16
 196 466 196 466 195 468 c 1,17,18
 158 431 158 431 123.5 431 c 128,-1,19
 89 431 89 431 69.5 449 c 128,-1,20
 50 467 50 467 50 498.5 c 128,-1,21
 50 530 50 530 79 547.5 c 128,-1,22
 108 565 108 565 187 582 c 1,23,-1
 187 605 l 2,24,25
 187 677 187 677 149 677 c 0,26,27
 129 677 129 677 117 671 c 1,28,-1
 117 631 l 2,29,30
 117 627 117 627 97 623 c 128,-1,31
 77 619 77 619 68 619 c 128,-1,32
 59 619 59 619 59 644.5 c 128,-1,33
 59 670 59 670 70.5 682 c 128,-1,34
 82 694 82 694 119.5 708 c 128,-1,35
 157 722 157 722 177 722 c 0,36,37
 217 722 217 722 240.5 696.5 c 128,-1,38
 264 671 264 671 264 622 c 2,39,-1
 264 494 l 2,40,41
 264 481 264 481 275 481 c 2,7,-1
EndSplineSet
EndChar

StartChar: guillemotleft
Encoding: 171 171 108
Width: 509
GlyphClass: 2
Flags: W
LayerCount: 2
Fore
SplineSet
263 433 m 1,0,1
 274 410 274 410 274 388.5 c 128,-1,2
 274 367 274 367 273 362 c 1,3,-1
 114 230 l 1,4,5
 135 210 135 210 193.5 165 c 128,-1,6
 252 120 252 120 272 101 c 1,7,8
 273 98 273 98 273 90 c 0,9,10
 273 48 273 48 264 23 c 1,11,12
 246 41 246 41 151 113.5 c 128,-1,13
 56 186 56 186 27 193 c 1,14,15
 21 198 21 198 17 216 c 128,-1,16
 13 234 13 234 13 241.5 c 128,-1,17
 13 249 13 249 14 253 c 1,18,19
 108 300 108 300 236 410 c 0,20,21
 247 420 247 420 263 433 c 1,0,1
453 432 m 1,22,23
 464 408 464 408 464 387 c 128,-1,24
 464 366 464 366 463 362 c 1,25,-1
 304 230 l 1,26,27
 327 209 327 209 386 165 c 128,-1,28
 445 121 445 121 467 101 c 0,29,30
 468 99 468 99 468 92.5 c 128,-1,31
 468 86 468 86 463 61 c 128,-1,32
 458 36 458 36 454 23 c 1,33,34
 431 46 431 46 342.5 116 c 128,-1,35
 254 186 254 186 226 193 c 1,36,37
 220 198 220 198 217 217 c 128,-1,38
 214 236 214 236 214 243.5 c 128,-1,39
 214 251 214 251 215 254 c 1,40,41
 291 298 291 298 336.5 332.5 c 128,-1,42
 382 367 382 367 453 432 c 1,22,23
EndSplineSet
EndChar

StartChar: logicalnot
Encoding: 172 172 109
Width: 656
GlyphClass: 2
Flags: W
LayerCount: 2
Fore
SplineSet
494 10 m 1,0,1
 494 10 494 10 496 147 c 1,2,-1
 494 281 l 2,3,4
 494 288 494 288 487 288 c 2,5,-1
 366 290 l 1,6,-1
 83 288 l 1,7,8
 77 294 77 294 73.5 313.5 c 128,-1,9
 70 333 70 333 70 343.5 c 128,-1,10
 70 354 70 354 73 362 c 1,11,-1
 367 360 l 1,12,-1
 558 362 l 2,13,14
 568 362 568 362 568 347 c 2,15,-1
 566 146 l 1,16,-1
 568 20 l 1,17,18
 562 14 562 14 542.5 10.5 c 128,-1,19
 523 7 523 7 512.5 7 c 128,-1,20
 502 7 502 7 494 10 c 1,0,1
EndSplineSet
EndChar

StartChar: uni00AD
Encoding: 173 173 110
Width: 279
GlyphClass: 2
Flags: W
LayerCount: 2
Fore
SplineSet
13 236 m 1,0,1
 13 236 13 236 128 234 c 1,2,-1
 243 236 l 1,3,4
 250 229 250 229 255.5 203 c 128,-1,5
 261 177 261 177 261 162 c 1,6,-1
 127 164 l 1,7,-1
 23 162 l 1,8,9
 17 168 17 168 13.5 187.5 c 128,-1,10
 10 207 10 207 10 217.5 c 128,-1,11
 10 228 10 228 13 236 c 1,0,1
EndSplineSet
EndChar

StartChar: registered
Encoding: 174 174 111
Width: 303
GlyphClass: 2
Flags: W
LayerCount: 2
Fore
SplineSet
44 684 m 128,-1,1
 90 730 90 730 154 730 c 128,-1,2
 218 730 218 730 263 684.5 c 128,-1,3
 308 639 308 639 308 575 c 128,-1,4
 308 511 308 511 262 465 c 128,-1,5
 216 419 216 419 152 419 c 128,-1,6
 88 419 88 419 43 464 c 128,-1,7
 -2 509 -2 509 -2 573.5 c 128,-1,0
 -2 638 -2 638 44 684 c 128,-1,1
153 689 m 128,-1,9
 105 689 105 689 72.5 658.5 c 128,-1,10
 40 628 40 628 40 575.5 c 128,-1,11
 40 523 40 523 73 491 c 128,-1,12
 106 459 106 459 155 459 c 128,-1,13
 204 459 204 459 234.5 489.5 c 128,-1,14
 265 520 265 520 265 574 c 128,-1,15
 265 628 265 628 233 658.5 c 128,-1,8
 201 689 201 689 153 689 c 128,-1,9
149 651 m 2,16,17
 216 651 216 651 216 611 c 0,18,19
 216 585 216 585 186 574 c 1,20,-1
 222 527 l 1,21,22
 226 520 226 520 238 519 c 1,23,-1
 242 509 l 1,24,-1
 188 509 l 1,25,-1
 148 568 l 1,26,-1
 139 568 l 1,27,-1
 139 527 l 2,28,29
 139 520 139 520 155 520 c 1,30,-1
 157 509 l 1,31,-1
 77 509 l 1,32,-1
 75 520 l 1,33,34
 93 520 93 520 93 527 c 2,35,-1
 93 627 l 2,36,37
 93 639 93 639 77 639 c 1,38,-1
 75 651 l 1,39,-1
 149 651 l 2,16,17
139 579 m 1,40,-1
 147 579 l 2,41,42
 175 579 175 579 175 608 c 128,-1,43
 175 637 175 637 147 637 c 1,44,-1
 139 635 l 1,45,-1
 139 579 l 1,40,-1
EndSplineSet
EndChar

StartChar: macron
Encoding: 175 175 112
Width: 416
GlyphClass: 2
Flags: W
LayerCount: 2
Fore
SplineSet
84 613 m 1,0,1
 84 613 84 613 250 610 c 0,2,3
 291 610 291 610 319 613 c 1,4,5
 330 601 330 601 338.5 573.5 c 128,-1,6
 347 546 347 546 347 528 c 1,7,8
 314 530 314 530 271 530 c 2,9,-1
 100 528 l 1,10,11
 80 548 80 548 80 586 c 0,12,13
 80 600 80 600 84 613 c 1,0,1
EndSplineSet
EndChar

StartChar: degree
Encoding: 176 176 113
Width: 294
GlyphClass: 2
Flags: W
LayerCount: 2
Fore
SplineSet
151 507 m 128,-1,1
 176 507 176 507 191.5 524 c 128,-1,2
 207 541 207 541 207 567 c 0,3,4
 207 634 207 634 143 634 c 0,5,6
 118 634 118 634 102 617.5 c 128,-1,7
 86 601 86 601 86 570.5 c 128,-1,8
 86 540 86 540 106 523.5 c 128,-1,0
 126 507 126 507 151 507 c 128,-1,1
57.5 481.5 m 128,-1,10
 21 514 21 514 21 568.5 c 128,-1,11
 21 623 21 623 55 658 c 128,-1,12
 89 693 89 693 145.5 693 c 128,-1,13
 202 693 202 693 237 660.5 c 128,-1,14
 272 628 272 628 272 573.5 c 128,-1,15
 272 519 272 519 237.5 484 c 128,-1,16
 203 449 203 449 148.5 449 c 128,-1,9
 94 449 94 449 57.5 481.5 c 128,-1,10
EndSplineSet
EndChar

StartChar: plusminus
Encoding: 177 177 114
Width: 576
GlyphClass: 2
Flags: W
LayerCount: 2
Fore
SplineSet
239 322 m 1,0,1
 150 322 150 322 54 320 c 1,2,3
 44 329 44 329 39.5 347.5 c 128,-1,4
 35 366 35 366 35 378.5 c 128,-1,5
 35 391 35 391 39 404 c 1,6,7
 129 402 129 402 239 402 c 1,8,9
 239 524 239 524 237 571 c 1,10,11
 247 581 247 581 275.5 589 c 128,-1,12
 304 597 304 597 322 597 c 1,13,14
 320 542 320 542 320 402 c 1,15,16
 394 402 394 402 498 404 c 1,17,18
 509 393 509 393 516.5 366.5 c 128,-1,19
 524 340 524 340 524 320 c 1,20,21
 406 322 406 322 320 322 c 1,22,23
 320 237 320 237 322 135 c 1,24,25
 313 125 313 125 290.5 119 c 128,-1,26
 268 113 268 113 256.5 113 c 128,-1,27
 245 113 245 113 237 114 c 1,28,29
 239 216 239 216 239 322 c 1,0,1
281 66 m 1,30,-1
 498 69 l 1,31,32
 510 57 510 57 517 36.5 c 128,-1,33
 524 16 524 16 524 7 c 128,-1,34
 524 -2 524 -2 524 -6 c 1,35,36
 308 -2 308 -2 284 -2 c 2,37,-1
 54 -6 l 1,38,39
 35 9 35 9 35 43 c 0,40,41
 35 56 35 56 39 69 c 1,42,-1
 281 66 l 1,30,-1
EndSplineSet
EndChar

StartChar: twosuperior
Encoding: 178 178 115
Width: 290
GlyphClass: 2
Flags: W
LayerCount: 2
Fore
SplineSet
124 712 m 0,0,1
 91 712 91 712 63 671 c 1,2,3
 57 671 57 671 49 675.5 c 128,-1,4
 41 680 41 680 40 687 c 1,5,6
 53 718 53 718 80.5 739.5 c 128,-1,7
 108 761 108 761 150.5 761 c 128,-1,8
 193 761 193 761 222.5 740 c 128,-1,9
 252 719 252 719 252 680 c 0,10,11
 252 637 252 637 232 608.5 c 128,-1,12
 212 580 212 580 203 569 c 128,-1,13
 194 558 194 558 168 530 c 128,-1,14
 142 502 142 502 133 492 c 1,15,-1
 193 492 l 2,16,17
 210 492 210 492 216 494 c 0,18,19
 231 497 231 497 240 531 c 1,20,-1
 269 518 l 1,21,22
 269 491 269 491 266 475 c 128,-1,23
 263 459 263 459 251 422 c 1,24,25
 216 429 216 429 162 429 c 2,26,-1
 124 429 l 2,27,28
 66 429 66 429 22 425 c 1,29,30
 17 440 17 440 17 451 c 1,31,-1
 41 471 l 1,32,33
 88 504 88 504 132.5 559 c 128,-1,34
 177 614 177 614 177 660 c 0,35,36
 177 712 177 712 124 712 c 0,0,1
EndSplineSet
EndChar

StartChar: threesuperior
Encoding: 179 179 116
Width: 280
GlyphClass: 2
Flags: W
LayerCount: 2
Fore
SplineSet
172 676 m 0,0,1
 172 711 172 711 127 711 c 128,-1,2
 82 711 82 711 56 676 c 1,3,4
 49 676 49 676 38 700 c 1,5,6
 52 724 52 724 80.5 742.5 c 128,-1,7
 109 761 109 761 149 761 c 128,-1,8
 189 761 189 761 216.5 742.5 c 128,-1,9
 244 724 244 724 244 692 c 0,10,11
 244 638 244 638 159 601 c 1,12,13
 198 601 198 601 226.5 581.5 c 128,-1,14
 255 562 255 562 255 515.5 c 128,-1,15
 255 469 255 469 210 442 c 128,-1,16
 165 415 165 415 111 415 c 128,-1,17
 57 415 57 415 43 423 c 0,18,19
 39 426 39 426 41 439.5 c 128,-1,20
 43 453 43 453 47 453 c 0,21,22
 62 452 62 452 78 452 c 0,23,24
 179 452 179 452 179 518 c 0,25,26
 179 542 179 542 159 553 c 128,-1,27
 139 564 139 564 116.5 564 c 128,-1,28
 94 564 94 564 78 561 c 1,29,30
 70 577 70 577 70 584 c 1,31,32
 172 635 172 635 172 676 c 0,0,1
EndSplineSet
EndChar

StartChar: acute
Encoding: 180 180 117
Width: 254
GlyphClass: 2
Flags: W
LayerCount: 2
Fore
SplineSet
229 683 m 0,0,1
 233 680 233 680 233 678 c 128,-1,2
 233 676 233 676 232 675 c 2,3,-1
 69 512 l 1,4,5
 39 519 39 519 33 541 c 1,6,-1
 120 722 l 1,7,8
 168 722 168 722 229 683 c 0,0,1
EndSplineSet
EndChar

StartChar: mu
Encoding: 181 181 118
AltUni2: 0003bc.ffffffff.0
Width: 501
GlyphClass: 2
Flags: W
LayerCount: 2
Fore
SplineSet
483 80 m 1,0,1
 489 77 489 77 489 60.5 c 128,-1,2
 489 44 489 44 488 38 c 1,3,4
 464 19 464 19 414.5 3.5 c 128,-1,5
 365 -12 365 -12 339 -12 c 0,6,7
 328 -12 328 -12 323 0 c 128,-1,8
 318 12 318 12 312 45 c 1,9,10
 239 -12 239 -12 166 -12 c 0,11,12
 121 -12 121 -12 81 0 c 1,13,14
 89 -110 89 -110 124 -204 c 0,15,16
 134 -231 134 -231 134 -237.5 c 128,-1,17
 134 -244 134 -244 124 -250 c 0,18,19
 97 -267 97 -267 47 -267 c 0,20,21
 27 -267 27 -267 16 -133 c 128,-1,22
 5 1 5 1 5 139 c 2,23,-1
 5 410 l 1,24,25
 10 415 10 415 44.5 427.5 c 128,-1,26
 79 440 79 440 100.5 440 c 128,-1,27
 122 440 122 440 126 428 c 1,28,-1
 126 173 l 2,29,30
 126 121 126 121 148.5 99.5 c 128,-1,31
 171 78 171 78 212 78 c 128,-1,32
 253 78 253 78 285 105 c 1,33,-1
 284 410 l 1,34,35
 289 415 289 415 326.5 427.5 c 128,-1,36
 364 440 364 440 381 440 c 128,-1,37
 398 440 398 440 403.5 437.5 c 128,-1,38
 409 435 409 435 409 434 c 128,-1,39
 409 433 409 433 411 428 c 1,40,-1
 411 97 l 2,41,42
 411 71 411 71 433 71 c 0,43,44
 438 71 438 71 483 80 c 1,0,1
EndSplineSet
EndChar

StartChar: paragraph
Encoding: 182 182 119
Width: 546
GlyphClass: 2
Flags: W
LayerCount: 2
Fore
SplineSet
365 370 m 1,0,1
 312 370 312 370 312 343 c 2,2,-1
 307 -103 l 1,3,-1
 219 -103 l 1,4,-1
 219 59 l 1,5,-1
 217 59 l 2,6,7
 128 59 128 59 68 108.5 c 128,-1,8
 8 158 8 158 8 255 c 0,9,10
 8 457 8 457 265 457 c 1,11,-1
 456 458 l 1,12,-1
 473 458 l 1,13,14
 488 459 488 459 537 459 c 1,15,-1
 549 387 l 1,16,17
 486 380 486 380 469 376.5 c 128,-1,18
 452 373 452 373 452 365 c 2,19,-1
 452 -102 l 1,20,-1
 364 -102 l 1,21,-1
 365 370 l 1,0,1
EndSplineSet
EndChar

StartChar: periodcentered
Encoding: 183 183 120
Width: 230
GlyphClass: 2
Flags: W
LayerCount: 2
Fore
SplineSet
66 170 m 128,-1,1
 49 189 49 189 49 217.5 c 128,-1,2
 49 246 49 246 69 265 c 128,-1,3
 89 284 89 284 115.5 284 c 128,-1,4
 142 284 142 284 161 267 c 128,-1,5
 180 250 180 250 180 221 c 128,-1,6
 180 192 180 192 162 171.5 c 128,-1,7
 144 151 144 151 113.5 151 c 128,-1,0
 83 151 83 151 66 170 c 128,-1,1
EndSplineSet
EndChar

StartChar: cedilla
Encoding: 184 184 121
Width: 833
GlyphClass: 2
Flags: W
LayerCount: 2
Fore
SplineSet
467 -109 m 0,0,1
 467 -159 467 -159 424 -180.5 c 128,-1,2
 381 -202 381 -202 314 -202 c 0,3,4
 308 -202 308 -202 303 -202 c 128,-1,5
 298 -202 298 -202 298 -188.5 c 128,-1,6
 298 -175 298 -175 301 -175 c 0,7,8
 374 -166 374 -166 374 -118 c 0,9,10
 374 -95 374 -95 359.5 -84.5 c 128,-1,11
 345 -74 345 -74 325.5 -72 c 128,-1,12
 306 -70 306 -70 304 -68 c 0,13,14
 299 -62 299 -62 293 -49 c 1,15,16
 293 -39 293 -39 317.5 -11 c 128,-1,17
 342 17 342 17 347 23 c 1,18,-1
 346 23 l 1,19,-1
 367 54 l 1,20,-1
 406 -2 l 1,21,-1
 368 -35 l 1,22,23
 411 -37 411 -37 439 -60 c 128,-1,24
 467 -83 467 -83 467 -109 c 0,0,1
EndSplineSet
EndChar

StartChar: onesuperior
Encoding: 185 185 122
Width: 233
GlyphClass: 2
Flags: W
LayerCount: 2
Fore
SplineSet
202 429 m 1,0,-1
 120 431 l 1,1,-1
 26 431 l 1,2,-1
 20 468 l 1,3,4
 80 470 80 470 80 485 c 2,5,-1
 80 682 l 2,6,7
 80 705 80 705 64 705 c 128,-1,8
 48 705 48 705 37 703 c 1,9,-1
 26 739 l 1,10,11
 55 742 55 742 75 748 c 0,12,13
 135 766 135 766 140.5 766 c 128,-1,14
 146 766 146 766 148 763.5 c 128,-1,15
 150 761 150 761 150 748 c 2,16,-1
 150 485 l 2,17,18
 150 476 150 476 165.5 472 c 128,-1,19
 181 468 181 468 196 468 c 1,20,-1
 202 429 l 1,0,-1
EndSplineSet
EndChar

StartChar: ordmasculine
Encoding: 186 186 123
Width: 354
GlyphClass: 2
Flags: W
LayerCount: 2
Fore
SplineSet
108 502.5 m 128,-1,1
 128 468 128 468 165 468 c 128,-1,2
 202 468 202 468 218.5 497 c 128,-1,3
 235 526 235 526 235 570 c 128,-1,4
 235 614 235 614 215.5 649 c 128,-1,5
 196 684 196 684 157.5 684 c 128,-1,6
 119 684 119 684 103.5 654.5 c 128,-1,7
 88 625 88 625 88 581 c 128,-1,0
 88 537 88 537 108 502.5 c 128,-1,1
48.5 465.5 m 128,-1,9
 5 503 5 503 5 568.5 c 128,-1,10
 5 634 5 634 50 678 c 128,-1,11
 95 722 95 722 163 722 c 128,-1,12
 231 722 231 722 274.5 682.5 c 128,-1,13
 318 643 318 643 318 576.5 c 128,-1,14
 318 510 318 510 273.5 469 c 128,-1,15
 229 428 229 428 160.5 428 c 128,-1,8
 92 428 92 428 48.5 465.5 c 128,-1,9
EndSplineSet
EndChar

StartChar: guillemotright
Encoding: 187 187 124
Width: 509
GlyphClass: 2
Flags: W
LayerCount: 2
Fore
SplineSet
238 23 m 1,0,1
 229 48 229 48 229 73 c 128,-1,2
 229 98 229 98 230 101 c 1,3,4
 250 120 250 120 308.5 165 c 128,-1,5
 367 210 367 210 388 230 c 1,6,-1
 229 362 l 1,7,8
 228 367 228 367 228 375 c 0,9,10
 228 410 228 410 239 433 c 1,11,12
 255 420 255 420 266 410.5 c 128,-1,13
 277 401 277 401 293.5 387.5 c 128,-1,14
 310 374 310 374 327.5 360.5 c 128,-1,15
 345 347 345 347 366.5 331.5 c 128,-1,16
 388 316 388 316 408 302 c 0,17,18
 453 271 453 271 488 253 c 1,19,20
 489 249 489 249 489 241.5 c 128,-1,21
 489 234 489 234 485 216 c 128,-1,22
 481 198 481 198 475 193 c 1,23,24
 446 186 446 186 351 113.5 c 128,-1,25
 256 41 256 41 238 23 c 1,0,1
287 254 m 1,26,27
 288 251 288 251 288 243.5 c 128,-1,28
 288 236 288 236 285 217 c 128,-1,29
 282 198 282 198 276 193 c 1,30,31
 248 186 248 186 159.5 116 c 128,-1,32
 71 46 71 46 48 23 c 1,33,34
 34 67 34 67 34 83 c 128,-1,35
 34 99 34 99 35 101 c 0,36,37
 57 121 57 121 116 165 c 128,-1,38
 175 209 175 209 198 230 c 1,39,-1
 39 362 l 1,40,41
 38 366 38 366 38 373 c 0,42,43
 38 408 38 408 49 432 c 1,44,45
 120 367 120 367 165.5 332.5 c 128,-1,46
 211 298 211 298 287 254 c 1,26,27
EndSplineSet
EndChar

StartChar: onequarter
Encoding: 188 188 125
Width: 798
GlyphClass: 2
Flags: W
LayerCount: 2
Fore
SplineSet
570 693 m 1,0,1
 574 697 574 697 587.5 697 c 128,-1,2
 601 697 601 697 618 696.5 c 128,-1,3
 635 696 635 696 649 686 c 1,4,-1
 192 -40 l 2,5,6
 185 -51 185 -51 156.5 -51 c 128,-1,7
 128 -51 128 -51 108 -44 c 1,8,-1
 570 693 l 1,0,1
629 107 m 1,10,-1
 629 -12 l 1,11,12
 575 -9 575 -9 555 0 c 1,13,-1
 555 107 l 1,14,-1
 418 107 l 2,15,16
 409 107 409 107 400.5 113 c 128,-1,17
 392 119 392 119 398 128 c 1,18,-1
 587 348 l 1,19,20
 595 355 595 355 628 355 c 1,21,22
 636 343 636 343 636 334 c 1,23,24
 629 322 629 322 629 292 c 2,25,-1
 629 160 l 1,26,-1
 641 160 l 2,27,28
 676 160 676 160 690 168 c 1,29,30
 698 158 698 158 698 151 c 0,31,32
 698 123 698 123 682 99 c 1,33,9
 659 107 659 107 629 107 c 1,10,-1
286 300 m 1,34,-1
 204 302 l 1,35,-1
 110 302 l 1,36,-1
 104 339 l 1,37,38
 140 339 140 339 152 345.5 c 128,-1,39
 164 352 164 352 164 356 c 2,40,-1
 164 582 l 2,41,42
 164 605 164 605 138 605 c 0,43,44
 122 605 122 605 111 603 c 1,45,-1
 100 639 l 1,46,47
 145 644 145 644 162 649 c 0,48,49
 220 666 220 666 225 666 c 128,-1,50
 230 666 230 666 232 663.5 c 128,-1,51
 234 661 234 661 234 648 c 2,52,-1
 234 356 l 2,53,54
 234 347 234 347 249.5 343 c 128,-1,55
 265 339 265 339 280 339 c 1,56,-1
 286 300 l 1,34,-1
558 160 m 1,57,-1
 558 253 l 1,58,-1
 479 160 l 1,59,-1
 558 160 l 1,57,-1
EndSplineSet
EndChar

StartChar: onehalf
Encoding: 189 189 126
Width: 796
GlyphClass: 2
Flags: W
LayerCount: 2
Fore
SplineSet
570 693 m 1,0,1
 574 697 574 697 587.5 697 c 128,-1,2
 601 697 601 697 618 696.5 c 128,-1,3
 635 696 635 696 649 686 c 1,4,-1
 192 -40 l 2,5,6
 185 -51 185 -51 156.5 -51 c 128,-1,7
 128 -51 128 -51 108 -44 c 1,8,-1
 570 693 l 1,0,1
551 307 m 0,9,10
 507 307 507 307 476 262 c 1,11,12
 471 262 471 262 464.5 268 c 128,-1,13
 458 274 458 274 457 281 c 1,14,15
 500 359 500 359 572 359 c 0,16,17
 620 359 620 359 652 335 c 128,-1,18
 684 311 684 311 684 268 c 0,19,20
 684 231 684 231 669 206 c 128,-1,21
 654 181 654 181 645.5 168.5 c 128,-1,22
 637 156 637 156 619 138.5 c 128,-1,23
 601 121 601 121 592 113 c 0,24,25
 547 73 547 73 535 63 c 1,26,-1
 620 63 l 2,27,28
 643 63 643 63 651 70 c 128,-1,29
 659 77 659 77 667 106 c 1,30,-1
 696 93 l 1,31,32
 696 51 696 51 678 -5 c 1,33,34
 654 4 654 4 589 4 c 2,35,-1
 551 4 l 2,36,37
 487 4 487 4 443 0 c 1,38,39
 438 15 438 15 438 32 c 1,40,-1
 462 52 l 1,41,42
 510 86 510 86 557.5 146.5 c 128,-1,43
 605 207 605 207 605 258 c 0,44,45
 605 307 605 307 551 307 c 0,9,10
286 300 m 1,46,-1
 204 302 l 1,47,-1
 110 302 l 1,48,-1
 104 339 l 1,49,50
 140 339 140 339 152 345.5 c 128,-1,51
 164 352 164 352 164 356 c 2,52,-1
 164 582 l 2,53,54
 164 605 164 605 138 605 c 0,55,56
 122 605 122 605 111 603 c 1,57,-1
 100 639 l 1,58,59
 145 644 145 644 162 649 c 0,60,61
 220 666 220 666 225 666 c 128,-1,62
 230 666 230 666 232 663.5 c 128,-1,63
 234 661 234 661 234 648 c 2,64,-1
 234 356 l 2,65,66
 234 347 234 347 249.5 343 c 128,-1,67
 265 339 265 339 280 339 c 1,68,-1
 286 300 l 1,46,-1
EndSplineSet
EndChar

StartChar: threequarters
Encoding: 190 190 127
Width: 834
GlyphClass: 2
Flags: W
LayerCount: 2
Fore
SplineSet
234 573 m 0,0,1
 234 604 234 604 189 604 c 128,-1,2
 144 604 144 604 118 569 c 1,3,4
 112 569 112 569 100 597 c 1,5,6
 114 621 114 621 142.5 639.5 c 128,-1,7
 171 658 171 658 211 658 c 128,-1,8
 251 658 251 658 278.5 639.5 c 128,-1,9
 306 621 306 621 306 589 c 0,10,11
 306 531 306 531 229 497 c 1,12,13
 269 491 269 491 296 468 c 128,-1,14
 323 445 323 445 323 399 c 128,-1,15
 323 353 323 353 274 324 c 128,-1,16
 225 295 225 295 172 295 c 128,-1,17
 119 295 119 295 105 303 c 0,18,19
 101 306 101 306 103 318 c 128,-1,20
 105 330 105 330 109 330 c 0,21,22
 124 329 124 329 140 329 c 0,23,24
 186 329 186 329 213.5 349.5 c 128,-1,25
 241 370 241 370 241 399 c 128,-1,26
 241 428 241 428 221 441 c 128,-1,27
 201 454 201 454 178.5 454 c 128,-1,28
 156 454 156 454 140 451 c 1,29,30
 132 467 132 467 132 481 c 1,31,32
 234 532 234 532 234 573 c 0,0,1
588 670 m 1,33,34
 592 674 592 674 605.5 674 c 128,-1,35
 619 674 619 674 636 673.5 c 128,-1,36
 653 673 653 673 667 663 c 1,37,-1
 210 -63 l 2,38,39
 203 -74 203 -74 174.5 -74 c 128,-1,40
 146 -74 146 -74 126 -67 c 1,41,-1
 588 670 l 1,33,34
665 107 m 1,42,-1
 665 -12 l 1,43,44
 611 -9 611 -9 591 0 c 1,45,-1
 591 107 l 1,46,-1
 454 107 l 2,47,48
 445 107 445 107 438.5 112 c 128,-1,49
 432 117 432 117 432 120.5 c 128,-1,50
 432 124 432 124 434 128 c 1,51,-1
 623 348 l 1,52,53
 631 355 631 355 664 355 c 1,54,55
 672 343 672 343 672 334 c 1,56,57
 665 322 665 322 665 292 c 2,58,-1
 665 160 l 1,59,-1
 677 160 l 2,60,61
 712 160 712 160 726 168 c 1,62,63
 734 158 734 158 734 151 c 0,64,65
 734 123 734 123 718 99 c 1,66,67
 695 107 695 107 665 107 c 1,42,-1
594 160 m 1,68,-1
 594 253 l 1,69,-1
 515 160 l 1,70,-1
 594 160 l 1,68,-1
EndSplineSet
EndChar

StartChar: questiondown
Encoding: 191 191 128
Width: 354
GlyphClass: 2
Flags: W
LayerCount: 2
Fore
SplineSet
67 -78 m 0,0,1
 67 -104 67 -104 95 -123.5 c 128,-1,2
 123 -143 123 -143 163.5 -143 c 128,-1,3
 204 -143 204 -143 225 -138.5 c 128,-1,4
 246 -134 246 -134 247 -134 c 0,5,6
 255 -134 255 -134 262 -165.5 c 128,-1,7
 269 -197 269 -197 269 -223.5 c 128,-1,8
 269 -250 269 -250 213 -250 c 0,9,10
 173 -250 173 -250 141 -236 c 0,11,12
 69 -205 69 -205 31.5 -158 c 128,-1,13
 -6 -111 -6 -111 -6 -58 c 128,-1,14
 -6 -5 -6 -5 14 31 c 128,-1,15
 34 67 34 67 84 100 c 1,16,17
 142 136 142 136 153 146 c 128,-1,18
 164 156 164 156 170 162 c 1,19,20
 179 174 179 174 179 192 c 128,-1,21
 179 210 179 210 160 232 c 1,22,23
 164 251 164 251 177 253 c 0,24,25
 184 254 184 254 205.5 242 c 128,-1,26
 227 230 227 230 249 203.5 c 128,-1,27
 271 177 271 177 271 148 c 128,-1,28
 271 119 271 119 252 86 c 128,-1,29
 233 53 233 53 195 29 c 2,30,-1
 172 14 l 1,31,-1
 172 15 l 1,32,33
 146 -1 146 -1 136 -6.5 c 128,-1,34
 126 -12 126 -12 116.5 -18.5 c 128,-1,35
 107 -25 107 -25 102 -28.5 c 128,-1,36
 97 -32 97 -32 90 -37.5 c 128,-1,37
 83 -43 83 -43 80 -47.5 c 128,-1,38
 77 -52 77 -52 74 -57 c 0,39,40
 67 -66 67 -66 67 -78 c 0,0,1
243 398 m 128,-1,42
 243 373 243 373 226 357 c 128,-1,43
 209 341 209 341 186.5 341 c 128,-1,44
 164 341 164 341 148 355.5 c 128,-1,45
 132 370 132 370 132 394.5 c 128,-1,46
 132 419 132 419 147 436.5 c 128,-1,47
 162 454 162 454 188.5 454 c 128,-1,48
 215 454 215 454 229 438.5 c 128,-1,41
 243 423 243 423 243 398 c 128,-1,42
EndSplineSet
EndChar

StartChar: Agrave
Encoding: 192 192 129
Width: 747
GlyphClass: 2
Flags: W
LayerCount: 2
Fore
SplineSet
129 0 m 1,0,-1
 7 -4 l 1,1,-1
 0 51 l 1,2,3
 35 54 35 54 57 68 c 128,-1,4
 79 82 79 82 89 98.5 c 128,-1,5
 99 115 99 115 111 148 c 2,6,-1
 320 710 l 1,7,-1
 407 710 l 1,8,-1
 643 132 l 2,9,10
 661 87 661 87 680.5 68.5 c 128,-1,11
 700 50 700 50 736 50 c 1,12,-1
 747 -3 l 1,13,14
 701 0 701 0 596 0 c 128,-1,15
 491 0 491 0 444 -3 c 1,16,-1
 435 50 l 1,17,18
 488 50 488 50 501 57.5 c 128,-1,19
 514 65 514 65 514 75 c 128,-1,20
 514 85 514 85 508 98 c 2,21,-1
 441 248 l 1,22,-1
 224 248 l 1,23,-1
 182 128 l 2,24,25
 178 117 178 117 178 107 c 0,26,27
 178 86 178 86 203 69 c 128,-1,28
 228 52 228 52 280 51 c 1,29,-1
 290 -4 l 1,30,-1
 129 0 l 1,0,-1
456 813 m 1,31,32
 458 808 458 808 458 797 c 128,-1,33
 458 786 458 786 442 769 c 1,34,-1
 216 820 l 2,35,36
 213 821 213 821 213 823 c 128,-1,37
 213 825 213 825 215 828 c 0,38,39
 244 892 244 892 286 919 c 1,40,-1
 456 813 l 1,31,32
323 529 m 1,41,-1
 246 312 l 1,42,-1
 413 312 l 1,43,-1
 323 529 l 1,41,-1
EndSplineSet
EndChar

StartChar: Aacute
Encoding: 193 193 130
Width: 747
GlyphClass: 2
Flags: W
LayerCount: 2
Fore
SplineSet
129 0 m 1,0,-1
 7 -4 l 1,1,-1
 0 51 l 1,2,3
 35 54 35 54 57 68 c 128,-1,4
 79 82 79 82 89 98.5 c 128,-1,5
 99 115 99 115 111 148 c 2,6,-1
 320 710 l 1,7,-1
 407 710 l 1,8,-1
 643 132 l 2,9,10
 661 87 661 87 680.5 68.5 c 128,-1,11
 700 50 700 50 736 50 c 1,12,-1
 747 -3 l 1,13,14
 701 0 701 0 596 0 c 128,-1,15
 491 0 491 0 444 -3 c 1,16,-1
 435 50 l 1,17,18
 488 50 488 50 501 57.5 c 128,-1,19
 514 65 514 65 514 75 c 128,-1,20
 514 85 514 85 508 98 c 2,21,-1
 441 248 l 1,22,-1
 224 248 l 1,23,-1
 182 128 l 2,24,25
 178 117 178 117 178 107 c 0,26,27
 178 86 178 86 203 69 c 128,-1,28
 228 52 228 52 280 51 c 1,29,-1
 290 -4 l 1,30,-1
 129 0 l 1,0,-1
323 529 m 1,31,-1
 246 312 l 1,32,-1
 413 312 l 1,33,-1
 323 529 l 1,31,-1
546 840 m 0,34,35
 547 837 547 837 547 834.5 c 128,-1,36
 547 832 547 832 545 831 c 2,37,-1
 322 770 l 1,38,39
 304 787 304 787 304 805 c 0,40,41
 304 809 304 809 305 813 c 1,42,-1
 470 917 l 1,43,44
 520 890 520 890 546 840 c 0,34,35
EndSplineSet
EndChar

StartChar: Acircumflex
Encoding: 194 194 131
Width: 747
GlyphClass: 2
Flags: W
LayerCount: 2
Fore
SplineSet
129 0 m 1,0,-1
 7 -4 l 1,1,-1
 0 51 l 1,2,3
 35 54 35 54 57 68 c 128,-1,4
 79 82 79 82 89 98.5 c 128,-1,5
 99 115 99 115 111 148 c 2,6,-1
 320 710 l 1,7,-1
 407 710 l 1,8,-1
 643 132 l 2,9,10
 661 87 661 87 680.5 68.5 c 128,-1,11
 700 50 700 50 736 50 c 1,12,-1
 747 -3 l 1,13,14
 701 0 701 0 596 0 c 128,-1,15
 491 0 491 0 444 -3 c 1,16,-1
 435 50 l 1,17,18
 488 50 488 50 501 57.5 c 128,-1,19
 514 65 514 65 514 75 c 128,-1,20
 514 85 514 85 508 98 c 2,21,-1
 441 248 l 1,22,-1
 224 248 l 1,23,-1
 182 128 l 2,24,25
 178 117 178 117 178 107 c 0,26,27
 178 86 178 86 203 69 c 128,-1,28
 228 52 228 52 280 51 c 1,29,-1
 290 -4 l 1,30,-1
 129 0 l 1,0,-1
312 930 m 1,31,32
 372 932 372 932 394 932 c 128,-1,33
 416 932 416 932 421 920 c 1,34,-1
 521 798 l 1,35,36
 521 782 521 782 485 769 c 1,37,-1
 363 852 l 1,38,-1
 242 769 l 1,39,40
 214 776 214 776 206 798 c 1,41,-1
 312 930 l 1,31,32
323 529 m 1,42,-1
 246 312 l 1,43,-1
 413 312 l 1,44,-1
 323 529 l 1,42,-1
EndSplineSet
EndChar

StartChar: Atilde
Encoding: 195 195 132
Width: 747
GlyphClass: 2
Flags: W
LayerCount: 2
Fore
SplineSet
129 0 m 1,0,-1
 7 -4 l 1,1,-1
 0 51 l 1,2,3
 35 54 35 54 57 68 c 128,-1,4
 79 82 79 82 89 98.5 c 128,-1,5
 99 115 99 115 111 148 c 2,6,-1
 320 710 l 1,7,-1
 407 710 l 1,8,-1
 643 132 l 2,9,10
 661 87 661 87 680.5 68.5 c 128,-1,11
 700 50 700 50 736 50 c 1,12,-1
 747 -3 l 1,13,14
 701 0 701 0 596 0 c 128,-1,15
 491 0 491 0 444 -3 c 1,16,-1
 435 50 l 1,17,18
 488 50 488 50 501 57.5 c 128,-1,19
 514 65 514 65 514 75 c 128,-1,20
 514 85 514 85 508 98 c 2,21,-1
 441 248 l 1,22,-1
 224 248 l 1,23,-1
 182 128 l 2,24,25
 178 117 178 117 178 107 c 0,26,27
 178 86 178 86 203 69 c 128,-1,28
 228 52 228 52 280 51 c 1,29,-1
 290 -4 l 1,30,-1
 129 0 l 1,0,-1
281 884 m 2,31,-1
 446 880 l 1,32,33
 497 880 497 880 524 912 c 1,34,35
 531 912 531 912 547 897 c 0,36,37
 548 895 548 895 548 892 c 128,-1,38
 548 889 548 889 546 885 c 0,39,40
 492 795 492 795 448 795 c 2,41,-1
 288 797 l 2,42,43
 251 797 251 797 221 772 c 1,44,45
 216 771 216 771 200 785 c 0,46,47
 198 788 198 788 198 791 c 128,-1,48
 198 794 198 794 200 797 c 0,49,50
 244 884 244 884 281 884 c 2,31,-1
323 529 m 1,51,-1
 246 312 l 1,52,-1
 413 312 l 1,53,-1
 323 529 l 1,51,-1
EndSplineSet
EndChar

StartChar: Aring
Encoding: 197 197 134
Width: 747
GlyphClass: 2
Flags: W
LayerCount: 2
Fore
SplineSet
285.5 777 m 128,-1,1
 258 803 258 803 258 838.5 c 128,-1,2
 258 874 258 874 284 901 c 128,-1,3
 310 928 310 928 350 928 c 128,-1,4
 390 928 390 928 417.5 904 c 128,-1,5
 445 880 445 880 445 843.5 c 128,-1,6
 445 807 445 807 416 779 c 128,-1,7
 387 751 387 751 350 751 c 128,-1,0
 313 751 313 751 285.5 777 c 128,-1,1
317 841 m 128,-1,9
 317 828 317 828 328 819 c 128,-1,10
 339 810 339 810 353 810 c 128,-1,11
 367 810 367 810 377 820 c 128,-1,12
 387 830 387 830 387 843 c 0,13,14
 387 873 387 873 354 873 c 0,15,16
 339 873 339 873 328 863.5 c 128,-1,8
 317 854 317 854 317 841 c 128,-1,9
129 0 m 1,17,-1
 7 -4 l 1,18,-1
 0 51 l 1,19,20
 35 54 35 54 57 68 c 128,-1,21
 79 82 79 82 89 98.5 c 128,-1,22
 99 115 99 115 111 148 c 2,23,-1
 320 710 l 1,24,-1
 407 710 l 1,25,-1
 643 132 l 2,26,27
 661 87 661 87 680.5 68.5 c 128,-1,28
 700 50 700 50 736 50 c 1,29,-1
 747 -3 l 1,30,31
 701 0 701 0 596 0 c 128,-1,32
 491 0 491 0 444 -3 c 1,33,-1
 435 50 l 1,34,35
 488 50 488 50 501 57.5 c 128,-1,36
 514 65 514 65 514 75 c 128,-1,37
 514 85 514 85 508 98 c 2,38,-1
 441 248 l 1,39,-1
 224 248 l 1,40,-1
 182 128 l 2,41,42
 178 117 178 117 178 107 c 0,43,44
 178 86 178 86 203 69 c 128,-1,45
 228 52 228 52 280 51 c 1,46,-1
 290 -4 l 1,47,-1
 129 0 l 1,17,-1
323 529 m 1,48,-1
 246 312 l 1,49,-1
 413 312 l 1,50,-1
 323 529 l 1,48,-1
EndSplineSet
EndChar

StartChar: AE
Encoding: 198 198 135
Width: 1053
GlyphClass: 2
Flags: W
LayerCount: 2
Fore
SplineSet
829 651 m 2,0,-1
 704 650 l 1,1,-1
 680 650 l 1,2,3
 639 648 639 648 639 646 c 2,4,-1
 639 399 l 1,5,-1
 805 399 l 2,6,7
 817 399 817 399 817 495 c 1,8,-1
 873 504 l 1,9,-1
 870 366 l 1,10,11
 870 309 870 309 873 243 c 1,12,-1
 815 232 l 1,13,14
 815 289 815 289 813 305 c 128,-1,15
 811 321 811 321 803 321 c 2,16,-1
 639 321 l 1,17,-1
 639 115 l 2,18,19
 639 82 639 82 657 72 c 128,-1,20
 675 62 675 62 718 62 c 2,21,-1
 812 62 l 2,22,23
 947 62 947 62 996 206 c 1,24,-1
 1050 195 l 1,25,26
 1050 178 1050 178 1021 89 c 128,-1,27
 992 0 992 0 978 0 c 2,28,-1
 747 -1 l 1,29,30
 747 -1 747 -1 564 0 c 0,31,32
 510 0 510 0 434 -3 c 1,33,-1
 422 51 l 1,34,35
 470 52 470 52 485.5 61 c 128,-1,36
 501 70 501 70 501 87 c 2,37,-1
 501 231 l 1,38,-1
 274 231 l 1,39,-1
 194 103 l 1,40,-1
 187 86 l 1,41,42
 187 72 187 72 211 62.5 c 128,-1,43
 235 53 235 53 260 51 c 1,44,-1
 259 -3 l 1,45,-1
 105 1 l 1,46,-1
 -19 -3 l 1,47,-1
 -14 52 l 1,48,-1
 8 52 l 1,49,50
 44 55 44 55 68.5 78 c 128,-1,51
 93 101 93 101 125 149 c 1,52,-1
 438 640 l 1,53,54
 453 659 453 659 355 659 c 1,55,-1
 342 713 l 1,56,57
 519 710 519 710 561 710 c 2,58,-1
 820 710 l 1,59,-1
 976 709 l 1,60,61
 988 682 988 682 988 622 c 128,-1,62
 988 562 988 562 983 515 c 1,63,-1
 939 522 l 1,64,65
 928 591 928 591 902.5 621 c 128,-1,66
 877 651 877 651 829 651 c 2,0,-1
501 319 m 1,67,-1
 501 593 l 1,68,-1
 330 319 l 1,69,-1
 501 319 l 1,67,-1
EndSplineSet
EndChar

StartChar: Ccedilla
Encoding: 199 199 136
Width: 768
GlyphClass: 2
Flags: W
LayerCount: 2
Fore
SplineSet
434 652 m 0,0,1
 319 652 319 652 257.5 571.5 c 128,-1,2
 196 491 196 491 196 363.5 c 128,-1,3
 196 236 196 236 268 148 c 128,-1,4
 340 60 340 60 455 60 c 0,5,6
 608 60 608 60 670 213 c 1,7,-1
 738 198 l 1,8,9
 738 186 738 186 710 115 c 128,-1,10
 682 44 682 44 668 44 c 1,11,-1
 680 45 l 1,12,13
 585 -8 585 -8 453 -12 c 1,14,-1
 427 -35 l 1,15,16
 470 -37 470 -37 498 -60 c 128,-1,17
 526 -83 526 -83 526 -109 c 0,18,19
 526 -159 526 -159 483 -180.5 c 128,-1,20
 440 -202 440 -202 373 -202 c 0,21,22
 367 -202 367 -202 362 -202 c 128,-1,23
 357 -202 357 -202 357 -188.5 c 128,-1,24
 357 -175 357 -175 360 -175 c 0,25,26
 433 -166 433 -166 433 -118 c 0,27,28
 433 -95 433 -95 418.5 -84.5 c 128,-1,29
 404 -74 404 -74 384.5 -72 c 128,-1,30
 365 -70 365 -70 363 -68 c 0,31,32
 358 -62 358 -62 352 -49 c 1,33,34
 352 -40 352 -40 379 -9 c 1,35,36
 227 7 227 7 133.5 101.5 c 128,-1,37
 40 196 40 196 40 341 c 0,38,39
 40 521 40 521 154.5 621.5 c 128,-1,40
 269 722 269 722 448 722 c 0,41,42
 527 722 527 722 619 700 c 1,43,44
 666 691 666 691 704 685 c 1,45,46
 715 662 715 662 715 606 c 128,-1,47
 715 550 715 550 709 492 c 1,48,-1
 637 500 l 1,49,50
 630 559 630 559 609 590 c 0,51,52
 566 652 566 652 434 652 c 0,0,1
EndSplineSet
EndChar

StartChar: Egrave
Encoding: 200 200 137
Width: 669
GlyphClass: 2
Flags: W
LayerCount: 2
Fore
SplineSet
438 651 m 2,0,-1
 313 650 l 1,1,-1
 289 650 l 1,2,3
 248 648 248 648 248 646 c 2,4,-1
 248 399 l 1,5,-1
 414 399 l 2,6,7
 426 399 426 399 426 495 c 1,8,-1
 482 504 l 1,9,-1
 479 366 l 1,10,11
 479 309 479 309 482 243 c 1,12,-1
 424 232 l 1,13,14
 424 289 424 289 422 305 c 128,-1,15
 420 321 420 321 412 321 c 2,16,-1
 248 321 l 1,17,-1
 248 115 l 2,18,19
 248 82 248 82 266 72 c 128,-1,20
 284 62 284 62 327 62 c 2,21,-1
 421 62 l 2,22,23
 556 62 556 62 605 206 c 1,24,-1
 659 195 l 1,25,26
 659 178 659 178 630 89 c 128,-1,27
 601 0 601 0 587 0 c 2,28,-1
 356 -1 l 1,29,30
 356 -1 356 -1 173 0 c 0,31,32
 120 0 120 0 43 -3 c 1,33,-1
 31 51 l 1,34,35
 79 52 79 52 94.5 61 c 128,-1,36
 110 70 110 70 110 87 c 2,37,-1
 110 623 l 2,38,39
 110 641 110 641 96.5 650 c 128,-1,40
 83 659 83 659 43 659 c 1,41,-1
 30 713 l 1,42,43
 150 710 150 710 170 710 c 2,44,-1
 429 710 l 1,45,-1
 585 709 l 1,46,47
 597 682 597 682 597 622 c 128,-1,48
 597 562 597 562 592 515 c 1,49,-1
 548 522 l 1,50,51
 537 591 537 591 511.5 621 c 128,-1,52
 486 651 486 651 438 651 c 2,0,-1
406 813 m 1,53,54
 408 808 408 808 408 797 c 128,-1,55
 408 786 408 786 392 769 c 1,56,-1
 166 820 l 2,57,58
 163 821 163 821 163 823 c 128,-1,59
 163 825 163 825 165 828 c 0,60,61
 194 892 194 892 236 919 c 1,62,-1
 406 813 l 1,53,54
EndSplineSet
EndChar

StartChar: Eacute
Encoding: 201 201 138
Width: 669
GlyphClass: 2
Flags: W
LayerCount: 2
Fore
SplineSet
438 651 m 2,0,-1
 313 650 l 1,1,-1
 289 650 l 1,2,3
 248 648 248 648 248 646 c 2,4,-1
 248 399 l 1,5,-1
 414 399 l 2,6,7
 426 399 426 399 426 495 c 1,8,-1
 482 504 l 1,9,-1
 479 366 l 1,10,11
 479 309 479 309 482 243 c 1,12,-1
 424 232 l 1,13,14
 424 289 424 289 422 305 c 128,-1,15
 420 321 420 321 412 321 c 2,16,-1
 248 321 l 1,17,-1
 248 115 l 2,18,19
 248 82 248 82 266 72 c 128,-1,20
 284 62 284 62 327 62 c 2,21,-1
 421 62 l 2,22,23
 556 62 556 62 605 206 c 1,24,-1
 659 195 l 1,25,26
 659 178 659 178 630 89 c 128,-1,27
 601 0 601 0 587 0 c 2,28,-1
 356 -1 l 1,29,30
 356 -1 356 -1 173 0 c 0,31,32
 120 0 120 0 43 -3 c 1,33,-1
 31 51 l 1,34,35
 79 52 79 52 94.5 61 c 128,-1,36
 110 70 110 70 110 87 c 2,37,-1
 110 623 l 2,38,39
 110 641 110 641 96.5 650 c 128,-1,40
 83 659 83 659 43 659 c 1,41,-1
 30 713 l 1,42,43
 150 710 150 710 170 710 c 2,44,-1
 429 710 l 1,45,-1
 585 709 l 1,46,47
 597 682 597 682 597 622 c 128,-1,48
 597 562 597 562 592 515 c 1,49,-1
 548 522 l 1,50,51
 537 591 537 591 511.5 621 c 128,-1,52
 486 651 486 651 438 651 c 2,0,-1
507 840 m 0,53,54
 508 837 508 837 508 834.5 c 128,-1,55
 508 832 508 832 506 831 c 2,56,-1
 283 770 l 1,57,58
 265 787 265 787 265 805 c 0,59,60
 265 809 265 809 266 813 c 1,61,-1
 431 917 l 1,62,63
 481 890 481 890 507 840 c 0,53,54
EndSplineSet
EndChar

StartChar: Ecircumflex
Encoding: 202 202 139
Width: 669
GlyphClass: 2
Flags: W
LayerCount: 2
Fore
SplineSet
438 651 m 2,0,-1
 313 650 l 1,1,-1
 289 650 l 1,2,3
 248 648 248 648 248 646 c 2,4,-1
 248 399 l 1,5,-1
 414 399 l 2,6,7
 426 399 426 399 426 495 c 1,8,-1
 482 504 l 1,9,-1
 479 366 l 1,10,11
 479 309 479 309 482 243 c 1,12,-1
 424 232 l 1,13,14
 424 289 424 289 422 305 c 128,-1,15
 420 321 420 321 412 321 c 2,16,-1
 248 321 l 1,17,-1
 248 115 l 2,18,19
 248 82 248 82 266 72 c 128,-1,20
 284 62 284 62 327 62 c 2,21,-1
 421 62 l 2,22,23
 556 62 556 62 605 206 c 1,24,-1
 659 195 l 1,25,26
 659 178 659 178 630 89 c 128,-1,27
 601 0 601 0 587 0 c 2,28,-1
 356 -1 l 1,29,30
 356 -1 356 -1 173 0 c 0,31,32
 120 0 120 0 43 -3 c 1,33,-1
 31 51 l 1,34,35
 79 52 79 52 94.5 61 c 128,-1,36
 110 70 110 70 110 87 c 2,37,-1
 110 623 l 2,38,39
 110 641 110 641 96.5 650 c 128,-1,40
 83 659 83 659 43 659 c 1,41,-1
 30 713 l 1,42,43
 150 710 150 710 170 710 c 2,44,-1
 429 710 l 1,45,-1
 585 709 l 1,46,47
 597 682 597 682 597 622 c 128,-1,48
 597 562 597 562 592 515 c 1,49,-1
 548 522 l 1,50,51
 537 591 537 591 511.5 621 c 128,-1,52
 486 651 486 651 438 651 c 2,0,-1
302 930 m 1,53,54
 362 932 362 932 384 932 c 128,-1,55
 406 932 406 932 411 920 c 1,56,-1
 511 798 l 1,57,58
 511 782 511 782 475 769 c 1,59,-1
 353 852 l 1,60,-1
 232 769 l 1,61,62
 204 776 204 776 196 798 c 1,63,-1
 302 930 l 1,53,54
EndSplineSet
EndChar

StartChar: Edieresis
Encoding: 203 203 140
Width: 669
GlyphClass: 2
Flags: W
LayerCount: 2
Fore
SplineSet
438 651 m 2,0,-1
 313 650 l 1,1,-1
 289 650 l 1,2,3
 248 648 248 648 248 646 c 2,4,-1
 248 399 l 1,5,-1
 414 399 l 2,6,7
 426 399 426 399 426 495 c 1,8,-1
 482 504 l 1,9,-1
 479 366 l 1,10,11
 479 309 479 309 482 243 c 1,12,-1
 424 232 l 1,13,14
 424 289 424 289 422 305 c 128,-1,15
 420 321 420 321 412 321 c 2,16,-1
 248 321 l 1,17,-1
 248 115 l 2,18,19
 248 82 248 82 266 72 c 128,-1,20
 284 62 284 62 327 62 c 2,21,-1
 421 62 l 2,22,23
 556 62 556 62 605 206 c 1,24,-1
 659 195 l 1,25,26
 659 178 659 178 630 89 c 128,-1,27
 601 0 601 0 587 0 c 2,28,-1
 356 -1 l 1,29,30
 356 -1 356 -1 173 0 c 0,31,32
 120 0 120 0 43 -3 c 1,33,-1
 31 51 l 1,34,35
 79 52 79 52 94.5 61 c 128,-1,36
 110 70 110 70 110 87 c 2,37,-1
 110 623 l 2,38,39
 110 641 110 641 96.5 650 c 128,-1,40
 83 659 83 659 43 659 c 1,41,-1
 30 713 l 1,42,43
 150 710 150 710 170 710 c 2,44,-1
 429 710 l 1,45,-1
 585 709 l 1,46,47
 597 682 597 682 597 622 c 128,-1,48
 597 562 597 562 592 515 c 1,49,-1
 548 522 l 1,50,51
 537 591 537 591 511.5 621 c 128,-1,52
 486 651 486 651 438 651 c 2,0,-1
193 789.5 m 128,-1,54
 174 808 174 808 174 837.5 c 128,-1,55
 174 867 174 867 194 888 c 128,-1,56
 214 909 214 909 244 909 c 128,-1,57
 274 909 274 909 293.5 891 c 128,-1,58
 313 873 313 873 313 843 c 128,-1,59
 313 813 313 813 293 792 c 128,-1,60
 273 771 273 771 242.5 771 c 128,-1,53
 212 771 212 771 193 789.5 c 128,-1,54
375 789.5 m 128,-1,62
 356 808 356 808 356 837.5 c 128,-1,63
 356 867 356 867 376 888 c 128,-1,64
 396 909 396 909 426 909 c 128,-1,65
 456 909 456 909 475 891 c 128,-1,66
 494 873 494 873 494 843 c 128,-1,67
 494 813 494 813 474 792 c 128,-1,68
 454 771 454 771 424 771 c 128,-1,61
 394 771 394 771 375 789.5 c 128,-1,62
EndSplineSet
EndChar

StartChar: Igrave
Encoding: 204 204 141
Width: 358
GlyphClass: 2
Flags: W
LayerCount: 2
Fore
SplineSet
248 623 m 2,0,-1
 248 87 l 2,1,2
 248 69 248 69 261.5 60 c 128,-1,3
 275 51 275 51 315 51 c 1,4,-1
 328 -3 l 1,5,6
 208 0 208 0 164 0 c 128,-1,7
 120 0 120 0 43 -3 c 1,8,-1
 31 51 l 1,9,10
 79 52 79 52 94.5 61 c 128,-1,11
 110 70 110 70 110 87 c 2,12,-1
 110 623 l 2,13,14
 110 641 110 641 96.5 650 c 128,-1,15
 83 659 83 659 43 659 c 1,16,-1
 30 713 l 1,17,18
 150 710 150 710 194.5 710 c 128,-1,19
 239 710 239 710 315 713 c 1,20,-1
 327 659 l 1,21,22
 279 658 279 658 263.5 649 c 128,-1,23
 248 640 248 640 248 623 c 2,0,-1
251 813 m 1,24,25
 253 808 253 808 253 797 c 128,-1,26
 253 786 253 786 237 769 c 1,27,-1
 11 820 l 2,28,29
 8 821 8 821 8 823 c 128,-1,30
 8 825 8 825 10 828 c 0,31,32
 39 892 39 892 81 919 c 1,33,-1
 251 813 l 1,24,25
EndSplineSet
EndChar

StartChar: Iacute
Encoding: 205 205 142
Width: 358
GlyphClass: 2
Flags: W
LayerCount: 2
Fore
SplineSet
248 623 m 2,0,-1
 248 87 l 2,1,2
 248 69 248 69 261.5 60 c 128,-1,3
 275 51 275 51 315 51 c 1,4,-1
 328 -3 l 1,5,6
 208 0 208 0 164 0 c 128,-1,7
 120 0 120 0 43 -3 c 1,8,-1
 31 51 l 1,9,10
 79 52 79 52 94.5 61 c 128,-1,11
 110 70 110 70 110 87 c 2,12,-1
 110 623 l 2,13,14
 110 641 110 641 96.5 650 c 128,-1,15
 83 659 83 659 43 659 c 1,16,-1
 30 713 l 1,17,18
 150 710 150 710 194.5 710 c 128,-1,19
 239 710 239 710 315 713 c 1,20,-1
 327 659 l 1,21,22
 279 658 279 658 263.5 649 c 128,-1,23
 248 640 248 640 248 623 c 2,0,-1
355 840 m 0,24,25
 356 837 356 837 356 834.5 c 128,-1,26
 356 832 356 832 354 831 c 2,27,-1
 131 770 l 1,28,29
 113 787 113 787 113 805 c 0,30,31
 113 809 113 809 114 813 c 1,32,-1
 279 917 l 1,33,34
 329 890 329 890 355 840 c 0,24,25
EndSplineSet
EndChar

StartChar: Icircumflex
Encoding: 206 206 143
Width: 358
GlyphClass: 2
Flags: W
LayerCount: 2
Fore
SplineSet
248 623 m 2,0,-1
 248 87 l 2,1,2
 248 69 248 69 261.5 60 c 128,-1,3
 275 51 275 51 315 51 c 1,4,-1
 328 -3 l 1,5,6
 208 0 208 0 164 0 c 128,-1,7
 120 0 120 0 43 -3 c 1,8,-1
 31 51 l 1,9,10
 79 52 79 52 94.5 61 c 128,-1,11
 110 70 110 70 110 87 c 2,12,-1
 110 623 l 2,13,14
 110 641 110 641 96.5 650 c 128,-1,15
 83 659 83 659 43 659 c 1,16,-1
 30 713 l 1,17,18
 150 710 150 710 194.5 710 c 128,-1,19
 239 710 239 710 315 713 c 1,20,-1
 327 659 l 1,21,22
 279 658 279 658 263.5 649 c 128,-1,23
 248 640 248 640 248 623 c 2,0,-1
137 930 m 1,24,25
 197 932 197 932 219 932 c 128,-1,26
 241 932 241 932 246 920 c 1,27,-1
 346 798 l 1,28,29
 346 792 346 792 338 784 c 128,-1,30
 330 776 330 776 310 769 c 1,31,-1
 188 852 l 1,32,-1
 67 769 l 1,33,34
 39 776 39 776 31 798 c 1,35,-1
 137 930 l 1,24,25
EndSplineSet
EndChar

StartChar: Idieresis
Encoding: 207 207 144
Width: 358
GlyphClass: 2
Flags: W
LayerCount: 2
Fore
SplineSet
248 623 m 2,0,-1
 248 87 l 2,1,2
 248 69 248 69 261.5 60 c 128,-1,3
 275 51 275 51 315 51 c 1,4,-1
 328 -3 l 1,5,6
 208 0 208 0 164 0 c 128,-1,7
 120 0 120 0 43 -3 c 1,8,-1
 31 51 l 1,9,10
 79 52 79 52 94.5 61 c 128,-1,11
 110 70 110 70 110 87 c 2,12,-1
 110 623 l 2,13,14
 110 641 110 641 96.5 650 c 128,-1,15
 83 659 83 659 43 659 c 1,16,-1
 30 713 l 1,17,18
 150 710 150 710 194.5 710 c 128,-1,19
 239 710 239 710 315 713 c 1,20,-1
 327 659 l 1,21,22
 279 658 279 658 263.5 649 c 128,-1,23
 248 640 248 640 248 623 c 2,0,-1
38 789.5 m 128,-1,25
 19 808 19 808 19 837.5 c 128,-1,26
 19 867 19 867 39 888 c 128,-1,27
 59 909 59 909 89 909 c 128,-1,28
 119 909 119 909 138.5 891 c 128,-1,29
 158 873 158 873 158 843 c 128,-1,30
 158 813 158 813 138 792 c 128,-1,31
 118 771 118 771 87.5 771 c 128,-1,24
 57 771 57 771 38 789.5 c 128,-1,25
220 789.5 m 128,-1,33
 201 808 201 808 201 837.5 c 128,-1,34
 201 867 201 867 221 888 c 128,-1,35
 241 909 241 909 271 909 c 128,-1,36
 301 909 301 909 320 891 c 128,-1,37
 339 873 339 873 339 843 c 128,-1,38
 339 813 339 813 319 792 c 128,-1,39
 299 771 299 771 269 771 c 128,-1,32
 239 771 239 771 220 789.5 c 128,-1,33
EndSplineSet
EndChar

StartChar: Eth
Encoding: 208 208 145
Width: 834
GlyphClass: 2
Flags: W
LayerCount: 2
Fore
SplineSet
33 397 m 1,0,1
 33 397 33 397 112 396 c 1,2,-1
 112 622 l 2,3,4
 112 640 112 640 98.5 649 c 128,-1,5
 85 658 85 658 45 658 c 1,6,-1
 32 712 l 1,7,8
 152 709 152 709 172 709 c 2,9,10
 172 709 172 709 372 711 c 1,11,12
 570 711 570 711 682 621.5 c 128,-1,13
 794 532 794 532 794 364.5 c 128,-1,14
 794 197 794 197 679.5 97 c 128,-1,15
 565 -3 565 -3 355 -3 c 1,16,-1
 175 2 l 1,17,18
 122 2 122 2 45 -1 c 1,19,-1
 33 53 l 1,20,21
 81 54 81 54 96.5 63 c 128,-1,22
 112 72 112 72 112 89 c 2,23,-1
 112 338 l 1,24,25
 82 337 82 337 44 337 c 1,26,27
 30 351 30 351 30 369.5 c 128,-1,28
 30 388 30 388 33 397 c 1,0,1
247 395 m 1,29,-1
 399 397 l 1,30,31
 407 388 407 388 413 369 c 128,-1,32
 419 350 419 350 419 337 c 1,33,34
 369 337 369 337 247 339 c 1,35,-1
 247 126 l 2,36,37
 247 100 247 100 252 89 c 128,-1,38
 257 78 257 78 287 69 c 128,-1,39
 317 60 317 60 382 60 c 0,40,41
 507 60 507 60 573 135 c 128,-1,42
 639 210 639 210 639 352.5 c 128,-1,43
 639 495 639 495 563.5 573.5 c 128,-1,44
 488 652 488 652 348 652 c 2,45,-1
 273 652 l 2,46,47
 247 652 247 652 247 645 c 2,48,-1
 247 395 l 1,29,-1
EndSplineSet
EndChar

StartChar: Ntilde
Encoding: 209 209 146
Width: 826
GlyphClass: 2
Flags: W
LayerCount: 2
Fore
SplineSet
721 -4 m 1,0,1
 701 0 701 0 677.5 0 c 128,-1,2
 654 0 654 0 639 -3 c 1,3,-1
 216 534 l 1,4,-1
 216 87 l 2,5,6
 216 69 216 69 229.5 60 c 128,-1,7
 243 51 243 51 283 51 c 1,8,-1
 296 -3 l 1,9,10
 176 0 176 0 148 0 c 128,-1,11
 120 0 120 0 43 -3 c 1,12,-1
 31 51 l 1,13,14
 117 53 117 53 117 87 c 2,15,-1
 117 623 l 2,16,17
 117 659 117 659 43 659 c 1,18,-1
 30 713 l 1,19,20
 150 710 150 710 192 710 c 128,-1,21
 234 710 234 710 260 713 c 1,22,23
 260 701 260 701 274 680.5 c 128,-1,24
 288 660 288 660 297.5 645.5 c 128,-1,25
 307 631 307 631 322.5 610.5 c 128,-1,26
 338 590 338 590 349.5 575 c 128,-1,27
 361 560 361 560 379 538 c 0,28,29
 445 455 445 455 459.5 437 c 128,-1,30
 474 419 474 419 540.5 332.5 c 128,-1,31
 607 246 607 246 622 228 c 1,32,-1
 621 623 l 2,33,34
 621 641 621 641 607.5 650 c 128,-1,35
 594 659 594 659 554 659 c 1,36,-1
 541 713 l 1,37,38
 661 710 661 710 689.5 710 c 128,-1,39
 718 710 718 710 794 713 c 1,40,-1
 806 659 l 1,41,42
 720 657 720 657 720 623 c 2,43,-1
 721 -4 l 1,0,1
355 881 m 2,44,-1
 520 877 l 1,45,46
 571 877 571 877 598 909 c 1,47,48
 605 909 605 909 621 894 c 0,49,50
 622 892 622 892 622 889 c 128,-1,51
 622 886 622 886 620 882 c 0,52,53
 566 792 566 792 522 792 c 2,54,-1
 362 794 l 2,55,56
 325 794 325 794 295 769 c 1,57,58
 295 769 295 769 292 769 c 128,-1,59
 289 769 289 769 274 782 c 0,60,61
 272 785 272 785 272 788 c 128,-1,62
 272 791 272 791 274 794 c 0,63,64
 318 881 318 881 355 881 c 2,44,-1
EndSplineSet
EndChar

StartChar: Ograve
Encoding: 210 210 147
Width: 843
GlyphClass: 2
Flags: W
LayerCount: 2
Fore
SplineSet
146 86.5 m 128,-1,1
 40 185 40 185 40 342.5 c 128,-1,2
 40 500 40 500 153 611 c 128,-1,3
 266 722 266 722 430.5 722 c 128,-1,4
 595 722 595 722 699 622.5 c 128,-1,5
 803 523 803 523 803 364 c 128,-1,6
 803 205 803 205 692.5 96.5 c 128,-1,7
 582 -12 582 -12 417 -12 c 128,-1,0
 252 -12 252 -12 146 86.5 c 128,-1,1
303 108 m 0,8,9
 361 60 361 60 450 60 c 128,-1,10
 539 60 539 60 593.5 136 c 128,-1,11
 648 212 648 212 648 326 c 0,12,13
 648 467 648 467 585 560 c 128,-1,14
 522 653 522 653 403 653 c 0,15,16
 309 653 309 653 252 575 c 128,-1,17
 195 497 195 497 195 383 c 0,18,19
 195 196 195 196 303 108 c 0,8,9
484 813 m 1,20,21
 486 808 486 808 486 797 c 128,-1,22
 486 786 486 786 470 769 c 1,23,-1
 244 820 l 2,24,25
 241 821 241 821 241 823 c 128,-1,26
 241 825 241 825 243 828 c 0,27,28
 272 892 272 892 314 919 c 1,29,-1
 484 813 l 1,20,21
EndSplineSet
EndChar

StartChar: Oacute
Encoding: 211 211 148
Width: 843
GlyphClass: 2
Flags: W
LayerCount: 2
Fore
SplineSet
146 86.5 m 128,-1,1
 40 185 40 185 40 342.5 c 128,-1,2
 40 500 40 500 153 611 c 128,-1,3
 266 722 266 722 430.5 722 c 128,-1,4
 595 722 595 722 699 622.5 c 128,-1,5
 803 523 803 523 803 364 c 128,-1,6
 803 205 803 205 692.5 96.5 c 128,-1,7
 582 -12 582 -12 417 -12 c 128,-1,0
 252 -12 252 -12 146 86.5 c 128,-1,1
303 108 m 0,8,9
 361 60 361 60 450 60 c 128,-1,10
 539 60 539 60 593.5 136 c 128,-1,11
 648 212 648 212 648 326 c 0,12,13
 648 467 648 467 585 560 c 128,-1,14
 522 653 522 653 403 653 c 0,15,16
 309 653 309 653 252 575 c 128,-1,17
 195 497 195 497 195 383 c 0,18,19
 195 196 195 196 303 108 c 0,8,9
596 840 m 0,20,21
 597 837 597 837 597 834.5 c 128,-1,22
 597 832 597 832 595 831 c 2,23,-1
 372 770 l 1,24,25
 354 787 354 787 354 805 c 0,26,27
 354 809 354 809 355 813 c 1,28,-1
 520 917 l 1,29,30
 570 890 570 890 596 840 c 0,20,21
EndSplineSet
EndChar

StartChar: Ocircumflex
Encoding: 212 212 149
Width: 843
GlyphClass: 2
Flags: W
LayerCount: 2
Fore
SplineSet
146 86.5 m 128,-1,1
 40 185 40 185 40 342.5 c 128,-1,2
 40 500 40 500 153 611 c 128,-1,3
 266 722 266 722 430.5 722 c 128,-1,4
 595 722 595 722 699 622.5 c 128,-1,5
 803 523 803 523 803 364 c 128,-1,6
 803 205 803 205 692.5 96.5 c 128,-1,7
 582 -12 582 -12 417 -12 c 128,-1,0
 252 -12 252 -12 146 86.5 c 128,-1,1
303 108 m 0,8,9
 361 60 361 60 450 60 c 128,-1,10
 539 60 539 60 593.5 136 c 128,-1,11
 648 212 648 212 648 326 c 0,12,13
 648 467 648 467 585 560 c 128,-1,14
 522 653 522 653 403 653 c 0,15,16
 309 653 309 653 252 575 c 128,-1,17
 195 497 195 497 195 383 c 0,18,19
 195 196 195 196 303 108 c 0,8,9
374 930 m 1,20,21
 434 932 434 932 456 932 c 128,-1,22
 478 932 478 932 483 920 c 1,23,-1
 583 798 l 1,24,25
 583 782 583 782 547 769 c 1,26,-1
 425 852 l 1,27,-1
 304 769 l 1,28,29
 276 776 276 776 268 798 c 1,30,-1
 374 930 l 1,20,21
EndSplineSet
EndChar

StartChar: Otilde
Encoding: 213 213 150
Width: 843
GlyphClass: 2
Flags: W
LayerCount: 2
Fore
SplineSet
146 86.5 m 128,-1,1
 40 185 40 185 40 342.5 c 128,-1,2
 40 500 40 500 153 611 c 128,-1,3
 266 722 266 722 430.5 722 c 128,-1,4
 595 722 595 722 699 622.5 c 128,-1,5
 803 523 803 523 803 364 c 128,-1,6
 803 205 803 205 692.5 96.5 c 128,-1,7
 582 -12 582 -12 417 -12 c 128,-1,0
 252 -12 252 -12 146 86.5 c 128,-1,1
303 108 m 0,8,9
 361 60 361 60 450 60 c 128,-1,10
 539 60 539 60 593.5 136 c 128,-1,11
 648 212 648 212 648 326 c 0,12,13
 648 467 648 467 585 560 c 128,-1,14
 522 653 522 653 403 653 c 0,15,16
 309 653 309 653 252 575 c 128,-1,17
 195 497 195 497 195 383 c 0,18,19
 195 196 195 196 303 108 c 0,8,9
329 884 m 2,20,-1
 494 880 l 1,21,22
 545 880 545 880 572 912 c 1,23,24
 579 912 579 912 595 897 c 0,25,26
 596 895 596 895 596 892 c 128,-1,27
 596 889 596 889 594 885 c 0,28,29
 540 795 540 795 496 795 c 2,30,-1
 336 797 l 2,31,32
 299 797 299 797 269 772 c 1,33,34
 269 772 269 772 266 772 c 128,-1,35
 263 772 263 772 248 785 c 0,36,37
 246 788 246 788 246 791 c 128,-1,38
 246 794 246 794 248 797 c 0,39,40
 292 884 292 884 329 884 c 2,20,-1
EndSplineSet
EndChar

StartChar: Odieresis
Encoding: 214 214 151
Width: 843
GlyphClass: 2
Flags: W
LayerCount: 2
Fore
SplineSet
146 86.5 m 128,-1,1
 40 185 40 185 40 342.5 c 128,-1,2
 40 500 40 500 153 611 c 128,-1,3
 266 722 266 722 430.5 722 c 128,-1,4
 595 722 595 722 699 622.5 c 128,-1,5
 803 523 803 523 803 364 c 128,-1,6
 803 205 803 205 692.5 96.5 c 128,-1,7
 582 -12 582 -12 417 -12 c 128,-1,0
 252 -12 252 -12 146 86.5 c 128,-1,1
303 108 m 0,8,9
 361 60 361 60 450 60 c 128,-1,10
 539 60 539 60 593.5 136 c 128,-1,11
 648 212 648 212 648 326 c 0,12,13
 648 467 648 467 585 560 c 128,-1,14
 522 653 522 653 403 653 c 0,15,16
 309 653 309 653 252 575 c 128,-1,17
 195 497 195 497 195 383 c 0,18,19
 195 196 195 196 303 108 c 0,8,9
280 789.5 m 128,-1,21
 261 808 261 808 261 837.5 c 128,-1,22
 261 867 261 867 281 888 c 128,-1,23
 301 909 301 909 331 909 c 128,-1,24
 361 909 361 909 380.5 891 c 128,-1,25
 400 873 400 873 400 843 c 128,-1,26
 400 813 400 813 380 792 c 128,-1,27
 360 771 360 771 329.5 771 c 128,-1,20
 299 771 299 771 280 789.5 c 128,-1,21
462 789.5 m 128,-1,29
 443 808 443 808 443 837.5 c 128,-1,30
 443 867 443 867 463 888 c 128,-1,31
 483 909 483 909 513 909 c 128,-1,32
 543 909 543 909 562 891 c 128,-1,33
 581 873 581 873 581 843 c 128,-1,34
 581 813 581 813 561 792 c 128,-1,35
 541 771 541 771 511 771 c 128,-1,28
 481 771 481 771 462 789.5 c 128,-1,29
EndSplineSet
EndChar

StartChar: multiply
Encoding: 215 215 152
Width: 548
GlyphClass: 2
Flags: W
LayerCount: 2
Fore
SplineSet
225 266 m 1,0,-1
 81 403 l 1,1,2
 81 422 81 422 90 446.5 c 128,-1,3
 99 471 99 471 121 482 c 1,4,-1
 278 323 l 1,5,-1
 411 457 l 1,6,7
 429 456 429 456 457.5 448 c 128,-1,8
 486 440 486 440 501 428 c 1,9,10
 387 320 387 320 332 265 c 1,11,12
 367 230 367 230 479 123 c 1,13,14
 479 108 479 108 470.5 78.5 c 128,-1,15
 462 49 462 49 452 35 c 1,16,17
 427 53 427 53 278 208 c 1,18,-1
 132 59 l 1,19,20
 113 59 113 59 87.5 68 c 128,-1,21
 62 77 62 77 52 98 c 1,22,-1
 225 266 l 1,0,-1
EndSplineSet
EndChar

StartChar: Oslash
Encoding: 216 216 153
Width: 813
GlyphClass: 2
Flags: W
LayerCount: 2
Fore
SplineSet
144 88 m 1,0,1
 40 187 40 187 40 343.5 c 128,-1,2
 40 500 40 500 153 611 c 128,-1,3
 266 722 266 722 424 722 c 0,4,5
 526 722 526 722 610 683 c 1,6,-1
 676 767 l 2,7,8
 678 768 678 768 684 768 c 128,-1,9
 690 768 690 768 712.5 761 c 128,-1,10
 735 754 735 754 750 743 c 1,11,-1
 673 644 l 1,12,13
 803 544 803 544 803 361 c 0,14,15
 803 205 803 205 692.5 96.5 c 128,-1,16
 582 -12 582 -12 424 -12 c 0,17,18
 301 -12 301 -12 207 41 c 1,19,-1
 139 -46 l 1,20,21
 130 -48 130 -48 109 -48 c 128,-1,22
 88 -48 88 -48 48 -34 c 1,23,-1
 144 88 l 1,0,1
276 131 m 1,24,25
 341 60 341 60 440 60 c 128,-1,26
 539 60 539 60 593.5 136 c 128,-1,27
 648 212 648 212 648 333.5 c 128,-1,28
 648 455 648 455 595 543 c 1,29,-1
 276 131 l 1,24,25
252 575 m 128,-1,31
 195 497 195 497 195 387.5 c 128,-1,32
 195 278 195 278 231 200 c 1,33,-1
 546 602 l 1,34,35
 487 653 487 653 398 653 c 128,-1,30
 309 653 309 653 252 575 c 128,-1,31
EndSplineSet
EndChar

StartChar: Ugrave
Encoding: 217 217 154
Width: 788
GlyphClass: 2
Flags: W
LayerCount: 2
Fore
SplineSet
431 -12 m 0,0,1
 270 -12 270 -12 190 51 c 128,-1,2
 110 114 110 114 110 253 c 2,3,-1
 110 623 l 2,4,5
 110 641 110 641 96.5 650 c 128,-1,6
 83 659 83 659 43 659 c 1,7,-1
 30 713 l 1,8,9
 150 710 150 710 194.5 710 c 128,-1,10
 239 710 239 710 315 713 c 1,11,-1
 327 659 l 1,12,13
 279 658 279 658 263.5 649 c 128,-1,14
 248 640 248 640 248 623 c 2,15,-1
 248 265 l 2,16,17
 248 60 248 60 439 60 c 0,18,19
 511 60 511 60 546.5 110 c 128,-1,20
 582 160 582 160 582 251 c 2,21,-1
 582 623 l 2,22,23
 582 641 582 641 568.5 650 c 128,-1,24
 555 659 555 659 515 659 c 1,25,-1
 502 713 l 1,26,27
 622 710 622 710 651 710 c 128,-1,28
 680 710 680 710 756 713 c 1,29,-1
 768 659 l 1,30,31
 720 658 720 658 704.5 649 c 128,-1,32
 689 640 689 640 689 623 c 2,33,-1
 689 260 l 2,34,35
 689 -12 689 -12 431 -12 c 0,0,1
460 813 m 1,36,37
 462 808 462 808 462 797 c 128,-1,38
 462 786 462 786 446 769 c 1,39,-1
 220 820 l 2,40,41
 217 821 217 821 217 823 c 128,-1,42
 217 825 217 825 219 828 c 0,43,44
 248 892 248 892 290 919 c 1,45,-1
 460 813 l 1,36,37
EndSplineSet
EndChar

StartChar: Uacute
Encoding: 218 218 155
Width: 788
GlyphClass: 2
Flags: W
LayerCount: 2
Fore
SplineSet
431 -12 m 0,0,1
 270 -12 270 -12 190 51 c 128,-1,2
 110 114 110 114 110 253 c 2,3,-1
 110 623 l 2,4,5
 110 641 110 641 96.5 650 c 128,-1,6
 83 659 83 659 43 659 c 1,7,-1
 30 713 l 1,8,9
 150 710 150 710 194.5 710 c 128,-1,10
 239 710 239 710 315 713 c 1,11,-1
 327 659 l 1,12,13
 279 658 279 658 263.5 649 c 128,-1,14
 248 640 248 640 248 623 c 2,15,-1
 248 265 l 2,16,17
 248 60 248 60 439 60 c 0,18,19
 511 60 511 60 546.5 110 c 128,-1,20
 582 160 582 160 582 251 c 2,21,-1
 582 623 l 2,22,23
 582 641 582 641 568.5 650 c 128,-1,24
 555 659 555 659 515 659 c 1,25,-1
 502 713 l 1,26,27
 622 710 622 710 651 710 c 128,-1,28
 680 710 680 710 756 713 c 1,29,-1
 768 659 l 1,30,31
 720 658 720 658 704.5 649 c 128,-1,32
 689 640 689 640 689 623 c 2,33,-1
 689 260 l 2,34,35
 689 -12 689 -12 431 -12 c 0,0,1
600 840 m 0,36,37
 601 837 601 837 601 834.5 c 128,-1,38
 601 832 601 832 599 831 c 2,39,-1
 376 770 l 1,40,41
 358 787 358 787 358 805 c 0,42,43
 358 809 358 809 359 813 c 1,44,-1
 524 917 l 1,45,46
 574 890 574 890 600 840 c 0,36,37
EndSplineSet
EndChar

StartChar: Ucircumflex
Encoding: 219 219 156
Width: 788
GlyphClass: 2
Flags: W
LayerCount: 2
Fore
SplineSet
431 -12 m 0,0,1
 270 -12 270 -12 190 51 c 128,-1,2
 110 114 110 114 110 253 c 2,3,-1
 110 623 l 2,4,5
 110 641 110 641 96.5 650 c 128,-1,6
 83 659 83 659 43 659 c 1,7,-1
 30 713 l 1,8,9
 150 710 150 710 194.5 710 c 128,-1,10
 239 710 239 710 315 713 c 1,11,-1
 327 659 l 1,12,13
 279 658 279 658 263.5 649 c 128,-1,14
 248 640 248 640 248 623 c 2,15,-1
 248 265 l 2,16,17
 248 60 248 60 439 60 c 0,18,19
 511 60 511 60 546.5 110 c 128,-1,20
 582 160 582 160 582 251 c 2,21,-1
 582 623 l 2,22,23
 582 641 582 641 568.5 650 c 128,-1,24
 555 659 555 659 515 659 c 1,25,-1
 502 713 l 1,26,27
 622 710 622 710 651 710 c 128,-1,28
 680 710 680 710 756 713 c 1,29,-1
 768 659 l 1,30,31
 720 658 720 658 704.5 649 c 128,-1,32
 689 640 689 640 689 623 c 2,33,-1
 689 260 l 2,34,35
 689 -12 689 -12 431 -12 c 0,0,1
374 930 m 1,36,37
 434 932 434 932 456 932 c 128,-1,38
 478 932 478 932 483 920 c 1,39,-1
 583 798 l 1,40,41
 583 782 583 782 547 769 c 1,42,-1
 425 852 l 1,43,-1
 304 769 l 1,44,45
 276 776 276 776 268 798 c 1,46,-1
 374 930 l 1,36,37
EndSplineSet
EndChar

StartChar: Udieresis
Encoding: 220 220 157
Width: 788
GlyphClass: 2
Flags: W
LayerCount: 2
Fore
SplineSet
431 -12 m 0,0,1
 270 -12 270 -12 190 51 c 128,-1,2
 110 114 110 114 110 253 c 2,3,-1
 110 623 l 2,4,5
 110 641 110 641 96.5 650 c 128,-1,6
 83 659 83 659 43 659 c 1,7,-1
 30 713 l 1,8,9
 150 710 150 710 194.5 710 c 128,-1,10
 239 710 239 710 315 713 c 1,11,-1
 327 659 l 1,12,13
 279 658 279 658 263.5 649 c 128,-1,14
 248 640 248 640 248 623 c 2,15,-1
 248 265 l 2,16,17
 248 60 248 60 439 60 c 0,18,19
 511 60 511 60 546.5 110 c 128,-1,20
 582 160 582 160 582 251 c 2,21,-1
 582 623 l 2,22,23
 582 641 582 641 568.5 650 c 128,-1,24
 555 659 555 659 515 659 c 1,25,-1
 502 713 l 1,26,27
 622 710 622 710 651 710 c 128,-1,28
 680 710 680 710 756 713 c 1,29,-1
 768 659 l 1,30,31
 720 658 720 658 704.5 649 c 128,-1,32
 689 640 689 640 689 623 c 2,33,-1
 689 260 l 2,34,35
 689 -12 689 -12 431 -12 c 0,0,1
279 789.5 m 128,-1,37
 260 808 260 808 260 837.5 c 128,-1,38
 260 867 260 867 280 888 c 128,-1,39
 300 909 300 909 330 909 c 128,-1,40
 360 909 360 909 379.5 891 c 128,-1,41
 399 873 399 873 399 843 c 128,-1,42
 399 813 399 813 379 792 c 128,-1,43
 359 771 359 771 328.5 771 c 128,-1,36
 298 771 298 771 279 789.5 c 128,-1,37
461 789.5 m 128,-1,45
 442 808 442 808 442 837.5 c 128,-1,46
 442 867 442 867 462 888 c 128,-1,47
 482 909 482 909 512 909 c 128,-1,48
 542 909 542 909 561 891 c 128,-1,49
 580 873 580 873 580 843 c 128,-1,50
 580 813 580 813 560 792 c 128,-1,51
 540 771 540 771 510 771 c 128,-1,44
 480 771 480 771 461 789.5 c 128,-1,45
EndSplineSet
EndChar

StartChar: Yacute
Encoding: 221 221 158
Width: 704
GlyphClass: 2
Flags: W
LayerCount: 2
Fore
SplineSet
292 660 m 1,0,1
 226 660 226 660 226 640 c 0,2,3
 226 629 226 629 239 612 c 1,4,-1
 375 387 l 1,5,-1
 514 582 l 1,6,7
 534 607 534 607 534 623 c 128,-1,8
 534 639 534 639 518 649.5 c 128,-1,9
 502 660 502 660 463 660 c 1,10,-1
 453 713 l 1,11,-1
 604 710 l 1,12,-1
 726 713 l 1,13,-1
 733 660 l 1,14,15
 706 660 706 660 679 644 c 128,-1,16
 652 628 652 628 636.5 611.5 c 128,-1,17
 621 595 621 595 594 562 c 1,18,-1
 427 334 l 1,19,-1
 428 87 l 2,20,21
 428 69 428 69 441.5 60 c 128,-1,22
 455 51 455 51 495 51 c 1,23,-1
 508 -3 l 1,24,25
 388 0 388 0 344 0 c 128,-1,26
 300 0 300 0 223 -3 c 1,27,-1
 211 51 l 1,28,29
 259 52 259 52 274.5 61 c 128,-1,30
 290 70 290 70 290 87 c 2,31,-1
 290 310 l 1,32,-1
 104 578 l 1,33,34
 43 660 43 660 -19 660 c 1,35,-1
 -30 713 l 1,36,37
 16 710 16 710 134 710 c 128,-1,38
 252 710 252 710 283 713 c 1,39,-1
 292 660 l 1,0,1
598 840 m 0,40,41
 599 837 599 837 599 834.5 c 128,-1,42
 599 832 599 832 597 831 c 2,43,-1
 374 770 l 1,44,45
 356 787 356 787 356 805 c 0,46,47
 356 809 356 809 357 813 c 1,48,-1
 522 917 l 1,49,50
 572 890 572 890 598 840 c 0,40,41
EndSplineSet
EndChar

StartChar: Thorn
Encoding: 222 222 159
Width: 567
GlyphClass: 2
Flags: W
LayerCount: 2
Fore
SplineSet
234 623 m 2,0,-1
 234 568 l 1,1,2
 277 570 277 570 307 570 c 0,3,4
 425 570 425 570 499.5 521 c 128,-1,5
 574 472 574 472 574 374 c 0,6,7
 574 321 574 321 552 280.5 c 128,-1,8
 530 240 530 240 492 217 c 0,9,10
 418 171 418 171 318 171 c 0,11,12
 290 171 290 171 267 176 c 1,13,14
 256 185 256 185 256 204 c 128,-1,15
 256 223 256 223 264 232 c 1,16,17
 280 229 280 229 306 229 c 0,18,19
 366 229 366 229 403 268.5 c 128,-1,20
 440 308 440 308 440 375 c 128,-1,21
 440 442 440 442 401 475.5 c 128,-1,22
 362 509 362 509 293 509 c 0,23,24
 237 509 237 509 234 494 c 1,25,-1
 234 491 l 1,26,-1
 234 87 l 2,27,28
 234 69 234 69 247.5 60 c 128,-1,29
 261 51 261 51 301 51 c 1,30,-1
 314 -3 l 1,31,32
 194 0 194 0 149.5 0 c 128,-1,33
 105 0 105 0 29 -3 c 1,34,-1
 17 51 l 1,35,36
 65 52 65 52 80.5 61 c 128,-1,37
 96 70 96 70 96 87 c 2,38,-1
 96 623 l 2,39,40
 96 641 96 641 82.5 650 c 128,-1,41
 69 659 69 659 29 659 c 1,42,-1
 16 713 l 1,43,44
 136 710 136 710 180.5 710 c 128,-1,45
 225 710 225 710 301 713 c 1,46,-1
 313 659 l 1,47,48
 265 658 265 658 249.5 649 c 128,-1,49
 234 640 234 640 234 623 c 2,0,-1
EndSplineSet
EndChar

StartChar: germandbls
Encoding: 223 223 160
Width: 601
GlyphClass: 2
Flags: W
LayerCount: 2
Fore
SplineSet
95 76 m 2,0,-1
 95 361 l 1,1,-1
 45 361 l 1,2,3
 32 389 32 389 32 402 c 1,4,5
 51 404 51 404 95 416 c 1,6,-1
 95 434 l 2,7,8
 95 560 95 560 167.5 663.5 c 128,-1,9
 240 767 240 767 346 767 c 0,10,11
 419 767 419 767 481 725 c 128,-1,12
 543 683 543 683 543 609 c 0,13,14
 543 575 543 575 523.5 542.5 c 128,-1,15
 504 510 504 510 480 489.5 c 128,-1,16
 456 469 456 469 436.5 443.5 c 128,-1,17
 417 418 417 418 417 397.5 c 128,-1,18
 417 377 417 377 435 356.5 c 128,-1,19
 453 336 453 336 479 316 c 128,-1,20
 505 296 505 296 530.5 272.5 c 128,-1,21
 556 249 556 249 574 214.5 c 128,-1,22
 592 180 592 180 592 140 c 0,23,24
 592 76 592 76 549 32 c 128,-1,25
 506 -12 506 -12 433 -12 c 128,-1,26
 360 -12 360 -12 309 18 c 1,27,28
 305 23 305 23 305 33 c 128,-1,29
 305 43 305 43 310 66.5 c 128,-1,30
 315 90 315 90 332 104 c 0,31,32
 335 106 335 106 341 106 c 128,-1,33
 347 106 347 106 350 102 c 0,34,35
 392 50 392 50 435 50 c 0,36,37
 463 50 463 50 480 66.5 c 128,-1,38
 497 83 497 83 497 106 c 128,-1,39
 497 129 497 129 488 144 c 128,-1,40
 479 159 479 159 468.5 167.5 c 128,-1,41
 458 176 458 176 437.5 191.5 c 128,-1,42
 417 207 417 207 410 212.5 c 128,-1,43
 403 218 403 218 383 235 c 128,-1,44
 363 252 363 252 357 257.5 c 128,-1,45
 351 263 351 263 336.5 278 c 128,-1,46
 322 293 322 293 316 302 c 0,47,48
 300 331 300 331 300 349 c 128,-1,49
 300 367 300 367 303.5 378.5 c 128,-1,50
 307 390 307 390 317 403 c 128,-1,51
 327 416 327 416 332.5 422.5 c 128,-1,52
 338 429 338 429 354 444 c 128,-1,53
 370 459 370 459 383 472 c 128,-1,54
 396 485 396 485 407.5 498 c 128,-1,55
 419 511 419 511 431 534.5 c 128,-1,56
 443 558 443 558 443 580 c 0,57,58
 443 633 443 633 410 671 c 128,-1,59
 377 709 377 709 323 709 c 0,60,61
 220 709 220 709 220 554 c 2,62,-1
 219 76 l 2,63,64
 219 60 219 60 230.5 52.5 c 128,-1,65
 242 45 242 45 278 45 c 1,66,-1
 289 -3 l 1,67,68
 184 0 184 0 143 0 c 128,-1,69
 102 0 102 0 35 -3 c 1,70,-1
 25 45 l 1,71,72
 66 46 66 46 80.5 53.5 c 128,-1,73
 95 61 95 61 95 76 c 2,0,-1
EndSplineSet
EndChar

StartChar: agrave
Encoding: 224 224 161
Width: 457
GlyphClass: 2
Flags: W
LayerCount: 2
Fore
SplineSet
166 152.5 m 128,-1,1
 143 135 143 135 143 111.5 c 128,-1,2
 143 88 143 88 159.5 74 c 128,-1,3
 176 60 176 60 203 60 c 128,-1,4
 230 60 230 60 254 82 c 1,5,-1
 252 183 l 1,6,0
 189 170 189 170 166 152.5 c 128,-1,1
439 69 m 1,7,-1
 447 28 l 1,8,9
 430 21 430 21 376.5 4.5 c 128,-1,10
 323 -12 323 -12 310 -12 c 128,-1,11
 297 -12 297 -12 291 -9 c 128,-1,12
 285 -6 285 -6 280 2 c 128,-1,13
 275 10 275 10 273 14.5 c 128,-1,14
 271 19 271 19 267 31.5 c 128,-1,15
 263 44 263 44 262 47 c 1,16,17
 208 -12 208 -12 139 -12 c 0,18,19
 94 -12 94 -12 63 16.5 c 128,-1,20
 32 45 32 45 32 87 c 0,21,22
 32 144 32 144 77.5 171.5 c 128,-1,23
 123 199 123 199 249 226 c 1,24,-1
 249 262 l 2,25,26
 249 320 249 320 236 348.5 c 128,-1,27
 223 377 223 377 190.5 377 c 128,-1,28
 158 377 158 377 140 367 c 1,29,-1
 140 303 l 2,30,31
 140 297 140 297 108 291 c 128,-1,32
 76 285 76 285 61 285 c 128,-1,33
 46 285 46 285 46 321 c 0,34,35
 46 338 46 338 52 357 c 128,-1,36
 58 376 58 376 65 384 c 0,37,38
 83 404 83 404 142.5 426 c 128,-1,39
 202 448 202 448 233 448 c 0,40,41
 298 448 298 448 334.5 408 c 128,-1,42
 371 368 371 368 371 290 c 2,43,-1
 371 87 l 2,44,45
 371 68 371 68 387 68 c 2,46,-1
 414 69 l 1,47,-1
 439 69 l 1,7,-1
80 656 m 2,48,49
 79 657 79 657 79 659 c 128,-1,50
 79 661 79 661 83 664 c 0,51,52
 144 703 144 703 192 703 c 1,53,-1
 279 522 l 1,54,55
 273 500 273 500 243 493 c 1,56,-1
 80 656 l 2,48,49
EndSplineSet
EndChar

StartChar: aacute
Encoding: 225 225 162
Width: 457
GlyphClass: 2
Flags: W
LayerCount: 2
Fore
SplineSet
166 152.5 m 128,-1,1
 143 135 143 135 143 111.5 c 128,-1,2
 143 88 143 88 159.5 74 c 128,-1,3
 176 60 176 60 203 60 c 128,-1,4
 230 60 230 60 254 82 c 1,5,-1
 252 183 l 1,6,0
 189 170 189 170 166 152.5 c 128,-1,1
439 69 m 1,7,-1
 447 28 l 1,8,9
 430 21 430 21 376.5 4.5 c 128,-1,10
 323 -12 323 -12 310 -12 c 128,-1,11
 297 -12 297 -12 291 -9 c 128,-1,12
 285 -6 285 -6 280 2 c 128,-1,13
 275 10 275 10 273 14.5 c 128,-1,14
 271 19 271 19 267 31.5 c 128,-1,15
 263 44 263 44 262 47 c 1,16,17
 208 -12 208 -12 139 -12 c 0,18,19
 94 -12 94 -12 63 16.5 c 128,-1,20
 32 45 32 45 32 87 c 0,21,22
 32 144 32 144 77.5 171.5 c 128,-1,23
 123 199 123 199 249 226 c 1,24,-1
 249 262 l 2,25,26
 249 320 249 320 236 348.5 c 128,-1,27
 223 377 223 377 190.5 377 c 128,-1,28
 158 377 158 377 140 367 c 1,29,-1
 140 303 l 2,30,31
 140 297 140 297 108 291 c 128,-1,32
 76 285 76 285 61 285 c 128,-1,33
 46 285 46 285 46 321 c 0,34,35
 46 338 46 338 52 357 c 128,-1,36
 58 376 58 376 65 384 c 0,37,38
 83 404 83 404 142.5 426 c 128,-1,39
 202 448 202 448 233 448 c 0,40,41
 298 448 298 448 334.5 408 c 128,-1,42
 371 368 371 368 371 290 c 2,43,-1
 371 87 l 2,44,45
 371 68 371 68 387 68 c 2,46,-1
 414 69 l 1,47,-1
 439 69 l 1,7,-1
374 683 m 0,48,49
 378 680 378 680 378 678 c 128,-1,50
 378 676 378 676 377 675 c 2,51,-1
 214 512 l 1,52,53
 184 519 184 519 178 541 c 1,54,-1
 265 722 l 1,55,56
 313 722 313 722 374 683 c 0,48,49
EndSplineSet
EndChar

StartChar: acircumflex
Encoding: 226 226 163
Width: 457
GlyphClass: 2
Flags: W
LayerCount: 2
Fore
SplineSet
166 152.5 m 128,-1,1
 143 135 143 135 143 111.5 c 128,-1,2
 143 88 143 88 159.5 74 c 128,-1,3
 176 60 176 60 203 60 c 128,-1,4
 230 60 230 60 254 82 c 1,5,-1
 252 183 l 1,6,0
 189 170 189 170 166 152.5 c 128,-1,1
439 69 m 1,7,-1
 447 28 l 1,8,9
 430 21 430 21 376.5 4.5 c 128,-1,10
 323 -12 323 -12 310 -12 c 128,-1,11
 297 -12 297 -12 291 -9 c 128,-1,12
 285 -6 285 -6 280 2 c 128,-1,13
 275 10 275 10 273 14.5 c 128,-1,14
 271 19 271 19 267 31.5 c 128,-1,15
 263 44 263 44 262 47 c 1,16,17
 208 -12 208 -12 139 -12 c 0,18,19
 94 -12 94 -12 63 16.5 c 128,-1,20
 32 45 32 45 32 87 c 0,21,22
 32 144 32 144 77.5 171.5 c 128,-1,23
 123 199 123 199 249 226 c 1,24,-1
 249 262 l 2,25,26
 249 320 249 320 236 348.5 c 128,-1,27
 223 377 223 377 190.5 377 c 128,-1,28
 158 377 158 377 140 367 c 1,29,-1
 140 303 l 2,30,31
 140 297 140 297 108 291 c 128,-1,32
 76 285 76 285 61 285 c 128,-1,33
 46 285 46 285 46 321 c 0,34,35
 46 338 46 338 52 357 c 128,-1,36
 58 376 58 376 65 384 c 0,37,38
 83 404 83 404 142.5 426 c 128,-1,39
 202 448 202 448 233 448 c 0,40,41
 298 448 298 448 334.5 408 c 128,-1,42
 371 368 371 368 371 290 c 2,43,-1
 371 87 l 2,44,45
 371 68 371 68 387 68 c 2,46,-1
 414 69 l 1,47,-1
 439 69 l 1,7,-1
167 693 m 1,48,49
 227 695 227 695 249 695 c 128,-1,50
 271 695 271 695 276 683 c 2,51,-1
 356 511 l 1,52,53
 356 505 356 505 348 496.5 c 128,-1,54
 340 488 340 488 320 482 c 1,55,-1
 218 605 l 1,56,-1
 117 482 l 1,57,58
 89 489 89 489 81 511 c 1,59,-1
 167 693 l 1,48,49
EndSplineSet
EndChar

StartChar: atilde
Encoding: 227 227 164
Width: 457
GlyphClass: 2
Flags: W
LayerCount: 2
Fore
SplineSet
166 152.5 m 128,-1,1
 143 135 143 135 143 111.5 c 128,-1,2
 143 88 143 88 159.5 74 c 128,-1,3
 176 60 176 60 203 60 c 128,-1,4
 230 60 230 60 254 82 c 1,5,-1
 252 183 l 1,6,0
 189 170 189 170 166 152.5 c 128,-1,1
439 69 m 1,7,-1
 447 28 l 1,8,9
 430 21 430 21 376.5 4.5 c 128,-1,10
 323 -12 323 -12 310 -12 c 128,-1,11
 297 -12 297 -12 291 -9 c 128,-1,12
 285 -6 285 -6 280 2 c 128,-1,13
 275 10 275 10 273 14.5 c 128,-1,14
 271 19 271 19 267 31.5 c 128,-1,15
 263 44 263 44 262 47 c 1,16,17
 208 -12 208 -12 139 -12 c 0,18,19
 94 -12 94 -12 63 16.5 c 128,-1,20
 32 45 32 45 32 87 c 0,21,22
 32 144 32 144 77.5 171.5 c 128,-1,23
 123 199 123 199 249 226 c 1,24,-1
 249 262 l 2,25,26
 249 320 249 320 236 348.5 c 128,-1,27
 223 377 223 377 190.5 377 c 128,-1,28
 158 377 158 377 140 367 c 1,29,-1
 140 303 l 2,30,31
 140 297 140 297 108 291 c 128,-1,32
 76 285 76 285 61 285 c 128,-1,33
 46 285 46 285 46 321 c 0,34,35
 46 338 46 338 52 357 c 128,-1,36
 58 376 58 376 65 384 c 0,37,38
 83 404 83 404 142.5 426 c 128,-1,39
 202 448 202 448 233 448 c 0,40,41
 298 448 298 448 334.5 408 c 128,-1,42
 371 368 371 368 371 290 c 2,43,-1
 371 87 l 2,44,45
 371 68 371 68 387 68 c 2,46,-1
 414 69 l 1,47,-1
 439 69 l 1,7,-1
116 641 m 2,48,-1
 281 637 l 1,49,50
 332 637 332 637 359 669 c 1,51,52
 366 669 366 669 382 654 c 0,53,54
 383 652 383 652 383 649 c 128,-1,55
 383 646 383 646 381 642 c 0,56,57
 327 552 327 552 283 552 c 2,58,-1
 123 554 l 2,59,60
 86 554 86 554 56 529 c 1,61,62
 56 529 56 529 53 529 c 128,-1,63
 50 529 50 529 35 542 c 0,64,65
 33 545 33 545 33 548 c 128,-1,66
 33 551 33 551 35 554 c 0,67,68
 78 641 78 641 116 641 c 2,48,-1
EndSplineSet
EndChar

StartChar: adieresis
Encoding: 228 228 165
Width: 457
GlyphClass: 2
Flags: W
LayerCount: 2
Fore
SplineSet
166 152.5 m 128,-1,1
 143 135 143 135 143 111.5 c 128,-1,2
 143 88 143 88 159.5 74 c 128,-1,3
 176 60 176 60 203 60 c 128,-1,4
 230 60 230 60 254 82 c 1,5,-1
 252 183 l 1,6,0
 189 170 189 170 166 152.5 c 128,-1,1
439 69 m 1,7,-1
 447 28 l 1,8,9
 430 21 430 21 376.5 4.5 c 128,-1,10
 323 -12 323 -12 310 -12 c 128,-1,11
 297 -12 297 -12 291 -9 c 128,-1,12
 285 -6 285 -6 280 2 c 128,-1,13
 275 10 275 10 273 14.5 c 128,-1,14
 271 19 271 19 267 31.5 c 128,-1,15
 263 44 263 44 262 47 c 1,16,17
 208 -12 208 -12 139 -12 c 0,18,19
 94 -12 94 -12 63 16.5 c 128,-1,20
 32 45 32 45 32 87 c 0,21,22
 32 144 32 144 77.5 171.5 c 128,-1,23
 123 199 123 199 249 226 c 1,24,-1
 249 262 l 2,25,26
 249 320 249 320 236 348.5 c 128,-1,27
 223 377 223 377 190.5 377 c 128,-1,28
 158 377 158 377 140 367 c 1,29,-1
 140 303 l 2,30,31
 140 297 140 297 108 291 c 128,-1,32
 76 285 76 285 61 285 c 128,-1,33
 46 285 46 285 46 321 c 0,34,35
 46 338 46 338 52 357 c 128,-1,36
 58 376 58 376 65 384 c 0,37,38
 83 404 83 404 142.5 426 c 128,-1,39
 202 448 202 448 233 448 c 0,40,41
 298 448 298 448 334.5 408 c 128,-1,42
 371 368 371 368 371 290 c 2,43,-1
 371 87 l 2,44,45
 371 68 371 68 387 68 c 2,46,-1
 414 69 l 1,47,-1
 439 69 l 1,7,-1
79 556.5 m 128,-1,49
 60 575 60 575 60 604.5 c 128,-1,50
 60 634 60 634 80 655 c 128,-1,51
 100 676 100 676 130 676 c 128,-1,52
 160 676 160 676 179.5 658 c 128,-1,53
 199 640 199 640 199 610 c 128,-1,54
 199 580 199 580 179 559 c 128,-1,55
 159 538 159 538 128.5 538 c 128,-1,48
 98 538 98 538 79 556.5 c 128,-1,49
261 556.5 m 128,-1,57
 242 575 242 575 242 604.5 c 128,-1,58
 242 634 242 634 262 655 c 128,-1,59
 282 676 282 676 312 676 c 128,-1,60
 342 676 342 676 361 658 c 128,-1,61
 380 640 380 640 380 610 c 128,-1,62
 380 580 380 580 360 559 c 128,-1,63
 340 538 340 538 310 538 c 128,-1,56
 280 538 280 538 261 556.5 c 128,-1,57
EndSplineSet
EndChar

StartChar: aring
Encoding: 229 229 166
Width: 457
GlyphClass: 2
Flags: W
LayerCount: 2
Fore
SplineSet
153.5 539.5 m 128,-1,1
 124 568 124 568 124 608.5 c 128,-1,2
 124 649 124 649 152 679.5 c 128,-1,3
 180 710 180 710 223 710 c 128,-1,4
 266 710 266 710 295.5 683 c 128,-1,5
 325 656 325 656 325 615.5 c 128,-1,6
 325 575 325 575 294.5 543 c 128,-1,7
 264 511 264 511 223.5 511 c 128,-1,0
 183 511 183 511 153.5 539.5 c 128,-1,1
197 640 m 128,-1,9
 185 629 185 629 185 612 c 128,-1,10
 185 595 185 595 197 584.5 c 128,-1,11
 209 574 209 574 226.5 574 c 128,-1,12
 244 574 244 574 255.5 586 c 128,-1,13
 267 598 267 598 267 615 c 0,14,15
 267 651 267 651 228 651 c 0,16,8
 209 651 209 651 197 640 c 128,-1,9
166 152.5 m 128,-1,18
 143 135 143 135 143 111.5 c 128,-1,19
 143 88 143 88 159.5 74 c 128,-1,20
 176 60 176 60 203 60 c 128,-1,21
 230 60 230 60 254 82 c 1,22,-1
 252 183 l 1,23,17
 189 170 189 170 166 152.5 c 128,-1,18
439 69 m 1,24,-1
 447 28 l 1,25,26
 430 21 430 21 376.5 4.5 c 128,-1,27
 323 -12 323 -12 310 -12 c 128,-1,28
 297 -12 297 -12 291 -9 c 128,-1,29
 285 -6 285 -6 280 2 c 128,-1,30
 275 10 275 10 273 14.5 c 128,-1,31
 271 19 271 19 267 31.5 c 128,-1,32
 263 44 263 44 262 47 c 1,33,34
 208 -12 208 -12 139 -12 c 0,35,36
 94 -12 94 -12 63 16.5 c 128,-1,37
 32 45 32 45 32 87 c 0,38,39
 32 144 32 144 77.5 171.5 c 128,-1,40
 123 199 123 199 249 226 c 1,41,-1
 249 262 l 2,42,43
 249 320 249 320 236 348.5 c 128,-1,44
 223 377 223 377 190.5 377 c 128,-1,45
 158 377 158 377 140 367 c 1,46,-1
 140 303 l 2,47,48
 140 297 140 297 108 291 c 128,-1,49
 76 285 76 285 61 285 c 128,-1,50
 46 285 46 285 46 321 c 0,51,52
 46 338 46 338 52 357 c 128,-1,53
 58 376 58 376 65 384 c 0,54,55
 83 404 83 404 142.5 426 c 128,-1,56
 202 448 202 448 233 448 c 0,57,58
 298 448 298 448 334.5 408 c 128,-1,59
 371 368 371 368 371 290 c 2,60,-1
 371 87 l 2,61,62
 371 68 371 68 387 68 c 2,63,-1
 414 69 l 1,64,-1
 439 69 l 1,24,-1
EndSplineSet
EndChar

StartChar: ae
Encoding: 230 230 167
Width: 697
GlyphClass: 2
Flags: W
LayerCount: 2
Fore
SplineSet
519 59 m 0,0,1
 553 59 553 59 585.5 74.5 c 128,-1,2
 618 90 618 90 629.5 101.5 c 128,-1,3
 641 113 641 113 646 107 c 2,4,-1
 662 85 l 1,5,6
 628 43 628 43 577.5 15.5 c 128,-1,7
 527 -12 527 -12 479 -12 c 0,8,9
 375 -12 375 -12 315 53 c 1,10,11
 246 -12 246 -12 163 -12 c 0,12,13
 100 -12 100 -12 66 15.5 c 128,-1,14
 32 43 32 43 32 87 c 0,15,16
 32 144 32 144 82.5 176.5 c 128,-1,17
 133 209 133 209 257 232 c 1,18,19
 257 240 257 240 259 252 c 1,20,-1
 259 262 l 2,21,22
 259 377 259 377 189 377 c 0,23,24
 158 377 158 377 140 367 c 1,25,-1
 140 303 l 2,26,27
 140 297 140 297 108 291 c 128,-1,28
 76 285 76 285 61 285 c 128,-1,29
 46 285 46 285 46 321 c 0,30,31
 46 338 46 338 52 357 c 128,-1,32
 58 376 58 376 65 384 c 0,33,34
 83 404 83 404 142.5 426 c 128,-1,35
 202 448 202 448 233 448 c 0,36,37
 305 448 305 448 338 398 c 1,38,39
 400 448 400 448 477 448 c 128,-1,40
 554 448 554 448 609 402.5 c 128,-1,41
 664 357 664 357 664 271 c 0,42,43
 664 256 664 256 655 256 c 1,44,-1
 379 202 l 1,45,46
 378 152 378 152 416 105.5 c 128,-1,47
 454 59 454 59 519 59 c 0,0,1
526.5 359.5 m 128,-1,49
 504 389 504 389 462.5 389 c 128,-1,50
 421 389 421 389 398 351 c 128,-1,51
 375 313 375 313 375 272 c 0,52,53
 375 262 375 262 376 252 c 1,54,-1
 549 296 l 1,55,48
 549 330 549 330 526.5 359.5 c 128,-1,49
162 73.5 m 128,-1,57
 181 60 181 60 215 60 c 128,-1,58
 249 60 249 60 286 93 c 1,59,60
 266 130 266 130 259 183 c 1,61,62
 143 156 143 156 143 113 c 0,63,56
 143 87 143 87 162 73.5 c 128,-1,57
EndSplineSet
EndChar

StartChar: ccedilla
Encoding: 231 231 168
Width: 459
GlyphClass: 2
Flags: W
LayerCount: 2
Fore
SplineSet
35 207 m 0,0,1
 35 322 35 322 101 385 c 128,-1,2
 167 448 167 448 261 448 c 0,3,4
 308 448 308 448 362.5 430 c 128,-1,5
 417 412 417 412 436 393 c 0,6,7
 437 391 437 391 437 388 c 0,8,9
 437 372 437 372 401 321 c 0,10,11
 397 317 397 317 390 317 c 128,-1,12
 383 317 383 317 364 334 c 0,13,14
 309 387 309 387 262 387 c 128,-1,15
 215 387 215 387 190 347 c 128,-1,16
 165 307 165 307 165 237.5 c 128,-1,17
 165 168 165 168 198.5 113.5 c 128,-1,18
 232 59 232 59 298 59 c 128,-1,19
 364 59 364 59 416 106 c 0,20,21
 423 113 423 113 428 107 c 2,22,-1
 444 85 l 1,23,24
 384 10 384 10 298 -8 c 1,25,-1
 301 -12 l 1,26,-1
 263 -45 l 1,27,28
 306 -47 306 -47 334 -70 c 128,-1,29
 362 -93 362 -93 362 -119 c 0,30,31
 362 -169 362 -169 319 -190.5 c 128,-1,32
 276 -212 276 -212 209 -212 c 0,33,34
 203 -212 203 -212 198 -212 c 128,-1,35
 193 -212 193 -212 193 -198.5 c 128,-1,36
 193 -185 193 -185 196 -185 c 0,37,38
 269 -176 269 -176 269 -128 c 0,39,40
 269 -105 269 -105 254.5 -94.5 c 128,-1,41
 240 -84 240 -84 220.5 -82 c 128,-1,42
 201 -80 201 -80 199 -78 c 0,43,44
 194 -72 194 -72 188 -59 c 1,45,46
 188 -49 188 -49 223 -10 c 1,47,48
 136 0 136 0 85.5 60.5 c 128,-1,49
 35 121 35 121 35 207 c 0,0,1
EndSplineSet
EndChar

StartChar: egrave
Encoding: 232 232 169
Width: 476
GlyphClass: 2
Flags: W
LayerCount: 2
Fore
SplineSet
437 236 m 2,0,-1
 165 236 l 1,1,2
 165 178 165 178 187 127 c 0,3,4
 200 97 200 97 229.5 78 c 128,-1,5
 259 59 259 59 297 59 c 128,-1,6
 335 59 335 59 367.5 74.5 c 128,-1,7
 400 90 400 90 411.5 101.5 c 128,-1,8
 423 113 423 113 428 107 c 2,9,-1
 444 85 l 1,10,11
 410 43 410 43 359.5 15.5 c 128,-1,12
 309 -12 309 -12 261 -12 c 0,13,14
 153 -12 153 -12 94 49.5 c 128,-1,15
 35 111 35 111 35 215.5 c 128,-1,16
 35 320 35 320 101 384 c 128,-1,17
 167 448 167 448 252 448 c 128,-1,18
 337 448 337 448 391.5 399 c 128,-1,19
 446 350 446 350 446 251 c 0,20,21
 446 236 446 236 437 236 c 2,0,-1
331 296 m 1,22,23
 331 387 331 387 256 387 c 0,24,25
 219 387 219 387 196 359 c 128,-1,26
 173 331 173 331 169 296 c 1,27,-1
 331 296 l 1,22,23
119 656 m 2,28,29
 118 657 118 657 118 659 c 128,-1,30
 118 661 118 661 122 664 c 0,31,32
 183 703 183 703 231 703 c 1,33,-1
 318 522 l 1,34,35
 312 500 312 500 282 493 c 1,36,-1
 119 656 l 2,28,29
EndSplineSet
EndChar

StartChar: eacute
Encoding: 233 233 170
Width: 476
GlyphClass: 2
Flags: W
LayerCount: 2
Fore
SplineSet
437 236 m 2,0,-1
 165 236 l 1,1,2
 165 178 165 178 187 127 c 0,3,4
 200 97 200 97 229.5 78 c 128,-1,5
 259 59 259 59 297 59 c 128,-1,6
 335 59 335 59 367.5 74.5 c 128,-1,7
 400 90 400 90 411.5 101.5 c 128,-1,8
 423 113 423 113 428 107 c 2,9,-1
 444 85 l 1,10,11
 410 43 410 43 359.5 15.5 c 128,-1,12
 309 -12 309 -12 261 -12 c 0,13,14
 153 -12 153 -12 94 49.5 c 128,-1,15
 35 111 35 111 35 215.5 c 128,-1,16
 35 320 35 320 101 384 c 128,-1,17
 167 448 167 448 252 448 c 128,-1,18
 337 448 337 448 391.5 399 c 128,-1,19
 446 350 446 350 446 251 c 0,20,21
 446 236 446 236 437 236 c 2,0,-1
331 296 m 1,22,23
 331 387 331 387 256 387 c 0,24,25
 219 387 219 387 196 359 c 128,-1,26
 173 331 173 331 169 296 c 1,27,-1
 331 296 l 1,22,23
388 683 m 0,28,29
 392 680 392 680 392 678 c 128,-1,30
 392 676 392 676 391 675 c 2,31,-1
 228 512 l 1,32,33
 198 519 198 519 192 541 c 1,34,-1
 279 722 l 1,35,36
 327 722 327 722 388 683 c 0,28,29
EndSplineSet
EndChar

StartChar: ecircumflex
Encoding: 234 234 171
Width: 476
GlyphClass: 2
Flags: W
LayerCount: 2
Fore
SplineSet
437 236 m 2,0,-1
 165 236 l 1,1,2
 165 178 165 178 187 127 c 0,3,4
 200 97 200 97 229.5 78 c 128,-1,5
 259 59 259 59 297 59 c 128,-1,6
 335 59 335 59 367.5 74.5 c 128,-1,7
 400 90 400 90 411.5 101.5 c 128,-1,8
 423 113 423 113 428 107 c 2,9,-1
 444 85 l 1,10,11
 410 43 410 43 359.5 15.5 c 128,-1,12
 309 -12 309 -12 261 -12 c 0,13,14
 153 -12 153 -12 94 49.5 c 128,-1,15
 35 111 35 111 35 215.5 c 128,-1,16
 35 320 35 320 101 384 c 128,-1,17
 167 448 167 448 252 448 c 128,-1,18
 337 448 337 448 391.5 399 c 128,-1,19
 446 350 446 350 446 251 c 0,20,21
 446 236 446 236 437 236 c 2,0,-1
331 296 m 1,22,23
 331 387 331 387 256 387 c 0,24,25
 219 387 219 387 196 359 c 128,-1,26
 173 331 173 331 169 296 c 1,27,-1
 331 296 l 1,22,23
207 693 m 1,28,29
 267 695 267 695 289 695 c 128,-1,30
 311 695 311 695 316 683 c 2,31,-1
 396 511 l 1,32,33
 396 505 396 505 387.5 496.5 c 128,-1,34
 379 488 379 488 360 482 c 1,35,-1
 258 605 l 1,36,-1
 157 482 l 1,37,38
 129 489 129 489 121 511 c 1,39,-1
 207 693 l 1,28,29
EndSplineSet
EndChar

StartChar: edieresis
Encoding: 235 235 172
Width: 476
GlyphClass: 2
Flags: W
LayerCount: 2
Fore
SplineSet
437 236 m 2,0,-1
 165 236 l 1,1,2
 165 178 165 178 187 127 c 0,3,4
 200 97 200 97 229.5 78 c 128,-1,5
 259 59 259 59 297 59 c 128,-1,6
 335 59 335 59 367.5 74.5 c 128,-1,7
 400 90 400 90 411.5 101.5 c 128,-1,8
 423 113 423 113 428 107 c 2,9,-1
 444 85 l 1,10,11
 410 43 410 43 359.5 15.5 c 128,-1,12
 309 -12 309 -12 261 -12 c 0,13,14
 153 -12 153 -12 94 49.5 c 128,-1,15
 35 111 35 111 35 215.5 c 128,-1,16
 35 320 35 320 101 384 c 128,-1,17
 167 448 167 448 252 448 c 128,-1,18
 337 448 337 448 391.5 399 c 128,-1,19
 446 350 446 350 446 251 c 0,20,21
 446 236 446 236 437 236 c 2,0,-1
331 296 m 1,22,23
 331 387 331 387 256 387 c 0,24,25
 219 387 219 387 196 359 c 128,-1,26
 173 331 173 331 169 296 c 1,27,-1
 331 296 l 1,22,23
117 556.5 m 128,-1,29
 98 575 98 575 98 604.5 c 128,-1,30
 98 634 98 634 118 655 c 128,-1,31
 138 676 138 676 168 676 c 128,-1,32
 198 676 198 676 217.5 658 c 128,-1,33
 237 640 237 640 237 610 c 128,-1,34
 237 580 237 580 217 559 c 128,-1,35
 197 538 197 538 166.5 538 c 128,-1,28
 136 538 136 538 117 556.5 c 128,-1,29
299 556.5 m 128,-1,37
 280 575 280 575 280 604.5 c 128,-1,38
 280 634 280 634 300 655 c 128,-1,39
 320 676 320 676 350 676 c 128,-1,40
 380 676 380 676 399 658 c 128,-1,41
 418 640 418 640 418 610 c 128,-1,42
 418 580 418 580 398 559 c 128,-1,43
 378 538 378 538 348 538 c 128,-1,36
 318 538 318 538 299 556.5 c 128,-1,37
EndSplineSet
EndChar

StartChar: igrave
Encoding: 236 236 173
Width: 319
GlyphClass: 2
Flags: W
LayerCount: 2
Fore
SplineSet
234 433 m 2,0,-1
 234 76 l 2,1,2
 234 60 234 60 245.5 52.5 c 128,-1,3
 257 45 257 45 293 45 c 1,4,-1
 304 -3 l 1,5,6
 199 0 199 0 158.5 0 c 128,-1,7
 118 0 118 0 51 -3 c 1,8,-1
 41 45 l 1,9,10
 82 46 82 46 96 53.5 c 128,-1,11
 110 61 110 61 110 76 c 2,12,-1
 110 316 l 2,13,14
 110 339 110 339 98 351.5 c 128,-1,15
 86 364 86 364 50 364 c 2,16,-1
 37 364 l 1,17,-1
 23 405 l 1,18,19
 113 426 113 426 201 456 c 1,20,21
 222 456 222 456 228 451.5 c 128,-1,22
 234 447 234 447 234 433 c 2,0,-1
1 656 m 2,23,24
 0 657 0 657 0 659 c 128,-1,25
 0 661 0 661 4 664 c 0,26,27
 65 703 65 703 113 703 c 1,28,-1
 200 522 l 1,29,30
 194 500 194 500 164 493 c 1,31,-1
 1 656 l 2,23,24
EndSplineSet
EndChar

StartChar: iacute
Encoding: 237 237 174
Width: 319
GlyphClass: 2
Flags: W
LayerCount: 2
Fore
SplineSet
234 433 m 2,0,-1
 234 76 l 2,1,2
 234 60 234 60 245.5 52.5 c 128,-1,3
 257 45 257 45 293 45 c 1,4,-1
 304 -3 l 1,5,6
 199 0 199 0 158.5 0 c 128,-1,7
 118 0 118 0 51 -3 c 1,8,-1
 41 45 l 1,9,10
 82 46 82 46 96 53.5 c 128,-1,11
 110 61 110 61 110 76 c 2,12,-1
 110 316 l 2,13,14
 110 339 110 339 98 351.5 c 128,-1,15
 86 364 86 364 50 364 c 2,16,-1
 37 364 l 1,17,-1
 23 405 l 1,18,19
 113 426 113 426 201 456 c 1,20,21
 222 456 222 456 228 451.5 c 128,-1,22
 234 447 234 447 234 433 c 2,0,-1
305 683 m 0,23,24
 309 680 309 680 309 678 c 128,-1,25
 309 676 309 676 308 675 c 2,26,-1
 145 512 l 1,27,28
 115 519 115 519 109 541 c 1,29,-1
 196 722 l 1,30,31
 244 722 244 722 305 683 c 0,23,24
EndSplineSet
EndChar

StartChar: icircumflex
Encoding: 238 238 175
Width: 319
GlyphClass: 2
Flags: W
LayerCount: 2
Fore
SplineSet
234 433 m 2,0,-1
 234 76 l 2,1,2
 234 60 234 60 245.5 52.5 c 128,-1,3
 257 45 257 45 293 45 c 1,4,-1
 304 -3 l 1,5,6
 199 0 199 0 158.5 0 c 128,-1,7
 118 0 118 0 51 -3 c 1,8,-1
 41 45 l 1,9,10
 82 46 82 46 96 53.5 c 128,-1,11
 110 61 110 61 110 76 c 2,12,-1
 110 316 l 2,13,14
 110 339 110 339 98 351.5 c 128,-1,15
 86 364 86 364 50 364 c 2,16,-1
 37 364 l 1,17,-1
 23 405 l 1,18,19
 113 426 113 426 201 456 c 1,20,21
 222 456 222 456 228 451.5 c 128,-1,22
 234 447 234 447 234 433 c 2,0,-1
98 693 m 1,23,24
 158 695 158 695 180 695 c 128,-1,25
 202 695 202 695 207 683 c 2,26,-1
 287 511 l 1,27,28
 287 505 287 505 278.5 496.5 c 128,-1,29
 270 488 270 488 251 482 c 1,30,-1
 149 605 l 1,31,-1
 48 482 l 1,32,33
 20 489 20 489 12 511 c 1,34,-1
 98 693 l 1,23,24
EndSplineSet
EndChar

StartChar: idieresis
Encoding: 239 239 176
Width: 319
GlyphClass: 2
Flags: W
LayerCount: 2
Fore
SplineSet
234 433 m 2,0,-1
 234 76 l 2,1,2
 234 60 234 60 245.5 52.5 c 128,-1,3
 257 45 257 45 293 45 c 1,4,-1
 304 -3 l 1,5,6
 199 0 199 0 158.5 0 c 128,-1,7
 118 0 118 0 51 -3 c 1,8,-1
 41 45 l 1,9,10
 82 46 82 46 96 53.5 c 128,-1,11
 110 61 110 61 110 76 c 2,12,-1
 110 316 l 2,13,14
 110 339 110 339 98 351.5 c 128,-1,15
 86 364 86 364 50 364 c 2,16,-1
 37 364 l 1,17,-1
 23 405 l 1,18,19
 113 426 113 426 201 456 c 1,20,21
 222 456 222 456 228 451.5 c 128,-1,22
 234 447 234 447 234 433 c 2,0,-1
9 556.5 m 128,-1,24
 -10 575 -10 575 -10 604.5 c 128,-1,25
 -10 634 -10 634 10 655 c 128,-1,26
 30 676 30 676 60 676 c 128,-1,27
 90 676 90 676 109.5 658 c 128,-1,28
 129 640 129 640 129 610 c 128,-1,29
 129 580 129 580 109 559 c 128,-1,30
 89 538 89 538 58.5 538 c 128,-1,23
 28 538 28 538 9 556.5 c 128,-1,24
191 556.5 m 128,-1,32
 172 575 172 575 172 604.5 c 128,-1,33
 172 634 172 634 192 655 c 128,-1,34
 212 676 212 676 242 676 c 128,-1,35
 272 676 272 676 291 658 c 128,-1,36
 310 640 310 640 310 610 c 128,-1,37
 310 580 310 580 290 559 c 128,-1,38
 270 538 270 538 240 538 c 128,-1,31
 210 538 210 538 191 556.5 c 128,-1,32
EndSplineSet
EndChar

StartChar: eth
Encoding: 240 240 177
Width: 518
GlyphClass: 2
Flags: W
LayerCount: 2
Fore
SplineSet
438.5 55 m 128,-1,1
 369 -12 369 -12 261.5 -12 c 128,-1,2
 154 -12 154 -12 86 46.5 c 128,-1,3
 18 105 18 105 18 208 c 128,-1,4
 18 311 18 311 88 379.5 c 128,-1,5
 158 448 158 448 261 448 c 0,6,7
 310 448 310 448 354 434 c 1,8,9
 344 472 344 472 291 549 c 1,10,-1
 186 481 l 1,11,12
 178 481 178 481 163.5 498 c 128,-1,13
 149 515 149 515 145 529 c 1,14,-1
 256 598 l 1,15,16
 206 659 206 659 165 692 c 0,17,18
 158 698 158 698 168 714 c 128,-1,19
 178 730 178 730 186 734 c 1,20,21
 254 694 254 694 317 636 c 1,22,-1
 422 701 l 1,23,24
 433 699 433 699 446 686 c 128,-1,25
 459 673 459 673 463 661 c 1,26,-1
 358 593 l 1,27,28
 427 506 427 506 448 469 c 0,29,30
 508 365 508 365 508 234 c 0,31,0
 508 122 508 122 438.5 55 c 128,-1,1
179.5 104.5 m 128,-1,33
 211 50 211 50 269 50 c 128,-1,34
 327 50 327 50 352.5 95.5 c 128,-1,35
 378 141 378 141 378 210 c 128,-1,36
 378 279 378 279 347.5 333.5 c 128,-1,37
 317 388 317 388 257.5 388 c 128,-1,38
 198 388 198 388 173 341.5 c 128,-1,39
 148 295 148 295 148 227 c 128,-1,32
 148 159 148 159 179.5 104.5 c 128,-1,33
EndSplineSet
EndChar

StartChar: ntilde
Encoding: 241 241 178
Width: 582
GlyphClass: 2
Flags: W
LayerCount: 2
Fore
SplineSet
209 418 m 128,-1,1
 209 413 209 413 210 403 c 128,-1,2
 211 393 211 393 211 388 c 1,3,4
 287 428 287 428 322 438 c 128,-1,5
 357 448 357 448 382 448 c 0,6,7
 440 448 440 448 476 406 c 128,-1,8
 512 364 512 364 512 284 c 2,9,-1
 512 76 l 2,10,11
 512 67 512 67 513.5 61.5 c 128,-1,12
 515 56 515 56 525 50.5 c 128,-1,13
 535 45 535 45 554 45 c 1,14,-1
 565 -3 l 1,15,16
 460 0 460 0 433 0 c 128,-1,17
 406 0 406 0 339 -3 c 1,18,-1
 329 45 l 1,19,20
 363 46 363 46 375 53.5 c 128,-1,21
 387 61 387 61 388 76 c 1,22,-1
 388 254 l 2,23,24
 388 307 388 307 370.5 332.5 c 128,-1,25
 353 358 353 358 311.5 358 c 128,-1,26
 270 358 270 358 216 335 c 1,27,-1
 216 76 l 2,28,29
 216 67 216 67 217.5 61.5 c 128,-1,30
 219 56 219 56 229 50.5 c 128,-1,31
 239 45 239 45 258 45 c 1,32,-1
 269 -3 l 1,33,34
 164 0 164 0 137 0 c 128,-1,35
 110 0 110 0 43 -3 c 1,36,-1
 33 45 l 1,37,38
 67 46 67 46 79 53.5 c 128,-1,39
 91 61 91 61 92 76 c 1,40,-1
 92 316 l 2,41,42
 92 340 92 340 81 349.5 c 128,-1,43
 70 359 70 359 53.5 359 c 128,-1,44
 37 359 37 359 29 358 c 1,45,-1
 15 399 l 1,46,47
 77 414 77 414 183 456 c 1,48,49
 196 456 196 456 199.5 450.5 c 128,-1,50
 203 445 203 445 205 441 c 128,-1,51
 207 437 207 437 208 430 c 128,-1,0
 209 423 209 423 209 418 c 128,-1,1
229 641 m 2,52,-1
 394 637 l 1,53,54
 445 637 445 637 472 669 c 1,55,56
 479 669 479 669 495 654 c 0,57,58
 496 652 496 652 496 649 c 128,-1,59
 496 646 496 646 494 642 c 0,60,61
 440 552 440 552 396 552 c 2,62,-1
 236 554 l 2,63,64
 199 554 199 554 169 529 c 1,65,66
 169 529 169 529 166 529 c 128,-1,67
 163 529 163 529 148 542 c 0,68,69
 146 545 146 545 146 548 c 128,-1,70
 146 551 146 551 148 554 c 0,71,72
 192 641 192 641 229 641 c 2,52,-1
EndSplineSet
EndChar

StartChar: ograve
Encoding: 242 242 179
Width: 560
GlyphClass: 2
Flags: W
LayerCount: 2
Fore
SplineSet
196.5 104.5 m 128,-1,1
 228 50 228 50 286 50 c 128,-1,2
 344 50 344 50 369.5 95.5 c 128,-1,3
 395 141 395 141 395 210 c 128,-1,4
 395 279 395 279 364.5 333.5 c 128,-1,5
 334 388 334 388 274.5 388 c 128,-1,6
 215 388 215 388 190 341.5 c 128,-1,7
 165 295 165 295 165 227 c 128,-1,0
 165 159 165 159 196.5 104.5 c 128,-1,1
103 46.5 m 128,-1,9
 35 105 35 105 35 208 c 128,-1,10
 35 311 35 311 105 379.5 c 128,-1,11
 175 448 175 448 281.5 448 c 128,-1,12
 388 448 388 448 456.5 386.5 c 128,-1,13
 525 325 525 325 525 221 c 128,-1,14
 525 117 525 117 455 52.5 c 128,-1,15
 385 -12 385 -12 278 -12 c 128,-1,8
 171 -12 171 -12 103 46.5 c 128,-1,9
141 656 m 2,16,17
 140 657 140 657 140 659 c 128,-1,18
 140 661 140 661 144 664 c 0,19,20
 205 703 205 703 253 703 c 1,21,-1
 340 522 l 1,22,23
 334 500 334 500 304 493 c 1,24,-1
 141 656 l 2,16,17
EndSplineSet
EndChar

StartChar: oacute
Encoding: 243 243 180
Width: 560
GlyphClass: 2
Flags: W
LayerCount: 2
Fore
SplineSet
196.5 104.5 m 128,-1,1
 228 50 228 50 286 50 c 128,-1,2
 344 50 344 50 369.5 95.5 c 128,-1,3
 395 141 395 141 395 210 c 128,-1,4
 395 279 395 279 364.5 333.5 c 128,-1,5
 334 388 334 388 274.5 388 c 128,-1,6
 215 388 215 388 190 341.5 c 128,-1,7
 165 295 165 295 165 227 c 128,-1,0
 165 159 165 159 196.5 104.5 c 128,-1,1
103 46.5 m 128,-1,9
 35 105 35 105 35 208 c 128,-1,10
 35 311 35 311 105 379.5 c 128,-1,11
 175 448 175 448 281.5 448 c 128,-1,12
 388 448 388 448 456.5 386.5 c 128,-1,13
 525 325 525 325 525 221 c 128,-1,14
 525 117 525 117 455 52.5 c 128,-1,15
 385 -12 385 -12 278 -12 c 128,-1,8
 171 -12 171 -12 103 46.5 c 128,-1,9
416 683 m 0,16,17
 420 680 420 680 420 678 c 128,-1,18
 420 676 420 676 419 675 c 2,19,-1
 256 512 l 1,20,21
 226 519 226 519 220 541 c 1,22,-1
 307 722 l 1,23,24
 355 722 355 722 416 683 c 0,16,17
EndSplineSet
EndChar

StartChar: ocircumflex
Encoding: 244 244 181
Width: 560
GlyphClass: 2
Flags: W
LayerCount: 2
Fore
SplineSet
196.5 104.5 m 128,-1,1
 228 50 228 50 286 50 c 128,-1,2
 344 50 344 50 369.5 95.5 c 128,-1,3
 395 141 395 141 395 210 c 128,-1,4
 395 279 395 279 364.5 333.5 c 128,-1,5
 334 388 334 388 274.5 388 c 128,-1,6
 215 388 215 388 190 341.5 c 128,-1,7
 165 295 165 295 165 227 c 128,-1,0
 165 159 165 159 196.5 104.5 c 128,-1,1
103 46.5 m 128,-1,9
 35 105 35 105 35 208 c 128,-1,10
 35 311 35 311 105 379.5 c 128,-1,11
 175 448 175 448 281.5 448 c 128,-1,12
 388 448 388 448 456.5 386.5 c 128,-1,13
 525 325 525 325 525 221 c 128,-1,14
 525 117 525 117 455 52.5 c 128,-1,15
 385 -12 385 -12 278 -12 c 128,-1,8
 171 -12 171 -12 103 46.5 c 128,-1,9
228 693 m 1,16,17
 288 695 288 695 310 695 c 128,-1,18
 332 695 332 695 337 683 c 2,19,-1
 417 511 l 1,20,21
 417 505 417 505 408.5 496.5 c 128,-1,22
 400 488 400 488 381 482 c 1,23,-1
 279 605 l 1,24,-1
 178 482 l 1,25,26
 150 489 150 489 142 511 c 1,27,-1
 228 693 l 1,16,17
EndSplineSet
EndChar

StartChar: otilde
Encoding: 245 245 182
Width: 560
GlyphClass: 2
Flags: W
LayerCount: 2
Fore
SplineSet
196.5 104.5 m 128,-1,1
 228 50 228 50 286 50 c 128,-1,2
 344 50 344 50 369.5 95.5 c 128,-1,3
 395 141 395 141 395 210 c 128,-1,4
 395 279 395 279 364.5 333.5 c 128,-1,5
 334 388 334 388 274.5 388 c 128,-1,6
 215 388 215 388 190 341.5 c 128,-1,7
 165 295 165 295 165 227 c 128,-1,0
 165 159 165 159 196.5 104.5 c 128,-1,1
103 46.5 m 128,-1,9
 35 105 35 105 35 208 c 128,-1,10
 35 311 35 311 105 379.5 c 128,-1,11
 175 448 175 448 281.5 448 c 128,-1,12
 388 448 388 448 456.5 386.5 c 128,-1,13
 525 325 525 325 525 221 c 128,-1,14
 525 117 525 117 455 52.5 c 128,-1,15
 385 -12 385 -12 278 -12 c 128,-1,8
 171 -12 171 -12 103 46.5 c 128,-1,9
188 641 m 2,16,-1
 353 637 l 1,17,18
 404 637 404 637 431 669 c 1,19,20
 438 669 438 669 454 654 c 0,21,22
 455 652 455 652 455 649 c 128,-1,23
 455 646 455 646 453 642 c 0,24,25
 399 552 399 552 355 552 c 2,26,27
 355 552 355 552 195 554 c 0,28,29
 158 554 158 554 128 529 c 1,30,31
 128 529 128 529 125 529 c 128,-1,32
 122 529 122 529 107 542 c 0,33,34
 105 545 105 545 105 548 c 128,-1,35
 105 551 105 551 107 554 c 0,36,37
 150 641 150 641 188 641 c 2,16,-1
EndSplineSet
EndChar

StartChar: odieresis
Encoding: 246 246 183
Width: 560
GlyphClass: 2
Flags: W
LayerCount: 2
Fore
SplineSet
196.5 104.5 m 128,-1,1
 228 50 228 50 286 50 c 128,-1,2
 344 50 344 50 369.5 95.5 c 128,-1,3
 395 141 395 141 395 210 c 128,-1,4
 395 279 395 279 364.5 333.5 c 128,-1,5
 334 388 334 388 274.5 388 c 128,-1,6
 215 388 215 388 190 341.5 c 128,-1,7
 165 295 165 295 165 227 c 128,-1,0
 165 159 165 159 196.5 104.5 c 128,-1,1
103 46.5 m 128,-1,9
 35 105 35 105 35 208 c 128,-1,10
 35 311 35 311 105 379.5 c 128,-1,11
 175 448 175 448 281.5 448 c 128,-1,12
 388 448 388 448 456.5 386.5 c 128,-1,13
 525 325 525 325 525 221 c 128,-1,14
 525 117 525 117 455 52.5 c 128,-1,15
 385 -12 385 -12 278 -12 c 128,-1,8
 171 -12 171 -12 103 46.5 c 128,-1,9
139 556.5 m 128,-1,17
 120 575 120 575 120 604.5 c 128,-1,18
 120 634 120 634 140 655 c 128,-1,19
 160 676 160 676 190 676 c 128,-1,20
 220 676 220 676 239.5 658 c 128,-1,21
 259 640 259 640 259 610 c 128,-1,22
 259 580 259 580 239 559 c 128,-1,23
 219 538 219 538 188.5 538 c 128,-1,16
 158 538 158 538 139 556.5 c 128,-1,17
321 556.5 m 128,-1,25
 302 575 302 575 302 604.5 c 128,-1,26
 302 634 302 634 322 655 c 128,-1,27
 342 676 342 676 372 676 c 128,-1,28
 402 676 402 676 421 658 c 128,-1,29
 440 640 440 640 440 610 c 128,-1,30
 440 580 440 580 420 559 c 128,-1,31
 400 538 400 538 370 538 c 128,-1,24
 340 538 340 538 321 556.5 c 128,-1,25
EndSplineSet
EndChar

StartChar: divide
Encoding: 247 247 184
Width: 568
GlyphClass: 2
Flags: W
LayerCount: 2
Fore
SplineSet
233.5 363 m 128,-1,1
 216 380 216 380 216 407 c 128,-1,2
 216 434 216 434 234.5 453.5 c 128,-1,3
 253 473 253 473 280.5 473 c 128,-1,4
 308 473 308 473 326 456 c 128,-1,5
 344 439 344 439 344 411.5 c 128,-1,6
 344 384 344 384 325.5 365 c 128,-1,7
 307 346 307 346 279 346 c 128,-1,0
 251 346 251 346 233.5 363 c 128,-1,1
233 74.5 m 128,-1,9
 216 92 216 92 216 118.5 c 128,-1,10
 216 145 216 145 234.5 164.5 c 128,-1,11
 253 184 253 184 280.5 184 c 128,-1,12
 308 184 308 184 326 167.5 c 128,-1,13
 344 151 344 151 344 123.5 c 128,-1,14
 344 96 344 96 325.5 76.5 c 128,-1,15
 307 57 307 57 278.5 57 c 128,-1,8
 250 57 250 57 233 74.5 c 128,-1,9
281 301 m 1,16,-1
 498 304 l 1,17,18
 510 292 510 292 517 272 c 128,-1,19
 524 252 524 252 524 242.5 c 128,-1,20
 524 233 524 233 524 229 c 1,21,22
 308 233 308 233 284 233 c 2,23,-1
 54 229 l 1,24,25
 35 244 35 244 35 278 c 0,26,27
 35 291 35 291 39 304 c 1,28,-1
 281 301 l 1,16,-1
EndSplineSet
EndChar

StartChar: oslash
Encoding: 248 248 185
Width: 529
GlyphClass: 2
Flags: W
LayerCount: 2
Fore
SplineSet
15 209 m 0,0,1
 15 311 15 311 85 379.5 c 128,-1,2
 155 448 155 448 258 448 c 0,3,4
 323 448 323 448 379 424 c 1,5,-1
 418 479 l 1,6,7
 438 479 438 479 459 450 c 1,8,-1
 423 398 l 1,9,10
 505 334 505 334 505 225.5 c 128,-1,11
 505 117 505 117 435 52.5 c 128,-1,12
 365 -12 365 -12 262 -12 c 0,13,14
 200 -12 200 -12 151 6 c 1,15,-1
 112 -51 l 1,16,17
 105 -53 105 -53 98 -53 c 0,18,19
 77 -53 77 -53 54 -34 c 1,20,-1
 101 32 l 1,21,22
 15 91 15 91 15 209 c 0,0,1
170 341.5 m 128,-1,24
 145 295 145 295 145 232 c 128,-1,25
 145 169 145 169 166 124 c 1,26,-1
 329 354 l 1,27,28
 298 388 298 388 246.5 388 c 128,-1,23
 195 388 195 388 170 341.5 c 128,-1,24
269 50 m 0,29,30
 324 50 324 50 349.5 95.5 c 128,-1,31
 375 141 375 141 375 200.5 c 128,-1,32
 375 260 375 260 358 304 c 1,33,-1
 200 76 l 1,34,35
 229 50 229 50 269 50 c 0,29,30
EndSplineSet
EndChar

StartChar: ugrave
Encoding: 249 249 186
Width: 566
GlyphClass: 2
Flags: W
LayerCount: 2
Fore
SplineSet
305 433 m 1,0,-1
 394 430 l 1,1,2
 434 430 434 430 482 436 c 1,3,-1
 482 113 l 2,4,5
 482 78 482 78 488.5 73 c 128,-1,6
 495 68 495 68 506 68 c 2,7,-1
 521 68 l 1,8,-1
 542 69 l 1,9,-1
 551 17 l 1,10,11
 480 13 480 13 393 -12 c 1,12,13
 374 -12 374 -12 374 -1 c 1,14,-1
 368 44 l 1,15,16
 284 -12 284 -12 231 -12 c 0,17,18
 74 -12 74 -12 74 143 c 2,19,-1
 75 354 l 2,20,21
 75 363 75 363 73.5 368.5 c 128,-1,22
 72 374 72 374 62 379.5 c 128,-1,23
 52 385 52 385 33 385 c 1,24,-1
 22 433 l 1,25,-1
 111 430 l 1,26,27
 151 430 151 430 199 436 c 1,28,-1
 199 175 l 2,29,30
 199 78 199 78 277 78 c 0,31,32
 325 78 325 78 358 106 c 1,33,-1
 358 354 l 2,34,35
 358 363 358 363 356.5 368.5 c 128,-1,36
 355 374 355 374 345 379.5 c 128,-1,37
 335 385 335 385 316 385 c 1,38,-1
 305 433 l 1,0,-1
107 656 m 2,39,40
 106 657 106 657 106 659 c 128,-1,41
 106 661 106 661 110 664 c 0,42,43
 171 703 171 703 219 703 c 1,44,-1
 306 522 l 1,45,46
 300 500 300 500 270 493 c 1,47,-1
 107 656 l 2,39,40
EndSplineSet
EndChar

StartChar: uacute
Encoding: 250 250 187
Width: 566
GlyphClass: 2
Flags: W
LayerCount: 2
Fore
SplineSet
305 433 m 1,0,-1
 394 430 l 1,1,2
 434 430 434 430 482 436 c 1,3,-1
 482 113 l 2,4,5
 482 78 482 78 488.5 73 c 128,-1,6
 495 68 495 68 506 68 c 2,7,-1
 521 68 l 1,8,-1
 542 69 l 1,9,-1
 551 17 l 1,10,11
 480 13 480 13 393 -12 c 1,12,13
 374 -12 374 -12 374 -1 c 1,14,-1
 368 44 l 1,15,16
 284 -12 284 -12 231 -12 c 0,17,18
 74 -12 74 -12 74 143 c 2,19,-1
 75 354 l 2,20,21
 75 363 75 363 73.5 368.5 c 128,-1,22
 72 374 72 374 62 379.5 c 128,-1,23
 52 385 52 385 33 385 c 1,24,-1
 22 433 l 1,25,-1
 111 430 l 1,26,27
 151 430 151 430 199 436 c 1,28,-1
 199 175 l 2,29,30
 199 78 199 78 277 78 c 0,31,32
 325 78 325 78 358 106 c 1,33,-1
 358 354 l 2,34,35
 358 363 358 363 356.5 368.5 c 128,-1,36
 355 374 355 374 345 379.5 c 128,-1,37
 335 385 335 385 316 385 c 1,38,-1
 305 433 l 1,0,-1
398 683 m 0,39,40
 402 680 402 680 402 678 c 128,-1,41
 402 676 402 676 401 675 c 2,42,-1
 238 512 l 1,43,44
 208 519 208 519 202 541 c 1,45,-1
 289 722 l 1,46,47
 337 722 337 722 398 683 c 0,39,40
EndSplineSet
EndChar

StartChar: ucircumflex
Encoding: 251 251 188
Width: 566
GlyphClass: 2
Flags: W
LayerCount: 2
Fore
SplineSet
305 433 m 1,0,-1
 394 430 l 1,1,2
 434 430 434 430 482 436 c 1,3,-1
 482 113 l 2,4,5
 482 78 482 78 488.5 73 c 128,-1,6
 495 68 495 68 506 68 c 2,7,-1
 521 68 l 1,8,-1
 542 69 l 1,9,-1
 551 17 l 1,10,11
 480 13 480 13 393 -12 c 1,12,13
 374 -12 374 -12 374 -1 c 1,14,-1
 368 44 l 1,15,16
 284 -12 284 -12 231 -12 c 0,17,18
 74 -12 74 -12 74 143 c 2,19,-1
 75 354 l 2,20,21
 75 363 75 363 73.5 368.5 c 128,-1,22
 72 374 72 374 62 379.5 c 128,-1,23
 52 385 52 385 33 385 c 1,24,-1
 22 433 l 1,25,-1
 111 430 l 1,26,27
 151 430 151 430 199 436 c 1,28,-1
 199 175 l 2,29,30
 199 78 199 78 277 78 c 0,31,32
 325 78 325 78 358 106 c 1,33,-1
 358 354 l 2,34,35
 358 363 358 363 356.5 368.5 c 128,-1,36
 355 374 355 374 345 379.5 c 128,-1,37
 335 385 335 385 316 385 c 1,38,-1
 305 433 l 1,0,-1
206 693 m 1,39,40
 266 695 266 695 288 695 c 128,-1,41
 310 695 310 695 315 683 c 2,42,-1
 395 511 l 1,43,44
 395 505 395 505 386.5 496.5 c 128,-1,45
 378 488 378 488 359 482 c 1,46,-1
 257 605 l 1,47,-1
 156 482 l 1,48,49
 128 489 128 489 120 511 c 1,50,-1
 206 693 l 1,39,40
EndSplineSet
EndChar

StartChar: udieresis
Encoding: 252 252 189
Width: 566
GlyphClass: 2
Flags: W
LayerCount: 2
Fore
SplineSet
305 433 m 1,0,-1
 394 430 l 1,1,2
 434 430 434 430 482 436 c 1,3,-1
 482 113 l 2,4,5
 482 78 482 78 488.5 73 c 128,-1,6
 495 68 495 68 506 68 c 2,7,-1
 521 68 l 1,8,-1
 542 69 l 1,9,-1
 551 17 l 1,10,11
 480 13 480 13 393 -12 c 1,12,13
 374 -12 374 -12 374 -1 c 1,14,-1
 368 44 l 1,15,16
 284 -12 284 -12 231 -12 c 0,17,18
 74 -12 74 -12 74 143 c 2,19,-1
 75 354 l 2,20,21
 75 363 75 363 73.5 368.5 c 128,-1,22
 72 374 72 374 62 379.5 c 128,-1,23
 52 385 52 385 33 385 c 1,24,-1
 22 433 l 1,25,-1
 111 430 l 1,26,27
 151 430 151 430 199 436 c 1,28,-1
 199 175 l 2,29,30
 199 78 199 78 277 78 c 0,31,32
 325 78 325 78 358 106 c 1,33,-1
 358 354 l 2,34,35
 358 363 358 363 356.5 368.5 c 128,-1,36
 355 374 355 374 345 379.5 c 128,-1,37
 335 385 335 385 316 385 c 1,38,-1
 305 433 l 1,0,-1
122 556.5 m 128,-1,40
 103 575 103 575 103 604.5 c 128,-1,41
 103 634 103 634 123 655 c 128,-1,42
 143 676 143 676 173 676 c 128,-1,43
 203 676 203 676 222.5 658 c 128,-1,44
 242 640 242 640 242 610 c 128,-1,45
 242 580 242 580 222 559 c 128,-1,46
 202 538 202 538 171.5 538 c 128,-1,39
 141 538 141 538 122 556.5 c 128,-1,40
304 556.5 m 128,-1,48
 285 575 285 575 285 604.5 c 128,-1,49
 285 634 285 634 305 655 c 128,-1,50
 325 676 325 676 355 676 c 128,-1,51
 385 676 385 676 404 658 c 128,-1,52
 423 640 423 640 423 610 c 128,-1,53
 423 580 423 580 403 559 c 128,-1,54
 383 538 383 538 353 538 c 128,-1,47
 323 538 323 538 304 556.5 c 128,-1,48
EndSplineSet
EndChar

